<?xml version="1.0" encoding="utf-8"?>
<!-- Generator: Adobe Illustrator 26.0.1, SVG Export Plug-In . SVG Version: 6.00 Build 0)  -->
<svg version="1.1" id="Layer_1" xmlns="http://www.w3.org/2000/svg" xmlns:xlink="http://www.w3.org/1999/xlink" x="0px" y="0px"
	 viewBox="0 0 10 10" style="enable-background:new 0 0 10 10;" xml:space="preserve">
<style type="text/css">
	.st0{fill:#686B6C;}
	.st1{fill:#686B6B;}
	.st2{fill:#676A6B;}
	.st3{fill:#686A6B;}
	.st4{fill:#7D8082;}
</style>
<g>
	<path class="st0" d="M5,8.7c0,0-0.1,0-0.1,0C3.8,8.7,3.4,8,3.8,7c0-0.1,0.1-0.2,0.2-0.2c0.7-0.2,1.3-0.2,2,0C6.7,7,6.4,7.7,6.4,8.1
		c0,0.4-0.3,0.6-0.7,0.5C5.4,8.7,5.2,8.7,5,8.7z"/>
	<path class="st0" d="M1.7,6C1.6,6,1.5,6,1.4,6C1,6,0.5,5.9,0.4,5.5C0.3,5.1,0.2,4.6,0.6,4.2C0.7,4,0.8,4,1,4c0.5,0,1,0,1.5,0
		c0.2,0,0.4,0.1,0.5,0.3C3.1,4.7,3.1,5.2,3,5.6C2.8,6,2.4,6,2,6C1.9,6,1.8,6,1.7,6z"/>
	<path class="st1" d="M8.4,8.7c0,0-0.1,0-0.1,0C7.1,8.7,6.8,8.2,7.1,7c0.1-0.3,0.4-0.3,0.6-0.4c0.2-0.1,0.5,0,0.7,0
		c1.6,0,1.3,0.3,1.3,1.5c0,0.3-0.2,0.5-0.5,0.5C8.9,8.7,8.7,8.7,8.4,8.7C8.4,8.7,8.4,8.7,8.4,8.7z"/>
	<path class="st1" d="M9.6,4.3c0.2,0.4,0.1,0.9,0.1,1.4C9.6,6,9.2,5.9,8.9,6C8.7,6.1,8.5,6,8.3,6C7.2,6,6.8,5.6,7.1,4.4
		C7.2,4.1,7.4,4,7.7,4c0.5,0,0.9,0,1.4,0C9.3,4.2,9.5,4.1,9.6,4.3z"/>
	<path class="st0" d="M6.2,5.8c-0.6,0.2-1.3,0.3-2,0.1C3.9,5.8,3.8,5.7,3.8,5.3c0-0.5-0.1-0.9,0.3-1.3C4.7,3.9,5.3,4,5.9,4
		C5.9,4,6,4,6.1,4c0.2,0.1,0.3,0.2,0.3,0.5C6.3,5,6.5,5.4,6.2,5.8z"/>
	<path class="st2" d="M7.3,3.2C6.9,2.8,7.1,2.2,7.1,1.6c0-0.2,0.2-0.2,0.3-0.2c0.4-0.1,0.7-0.1,1.1-0.1c0.4,0,0.9-0.1,1.1,0.3
		c0.2,0.5,0.3,1.1-0.2,1.6C8.8,3.4,8.1,3.3,7.3,3.2z"/>
	<path class="st0" d="M2.9,8.4C2.8,8.6,2.6,8.7,2.3,8.7c-0.5,0-1.1,0-1.6,0C0,7.9,0.1,7.1,0.8,6.6c0.4,0,0.9,0,1.3,0
		c0.7,0,0.9,0.2,1,0.9C3.1,7.9,3.1,8.2,2.9,8.4z"/>
	<path class="st3" d="M3.9,1.4c0.6-0.1,1.2-0.1,1.8-0.1c0.7,0,0.8,0.3,0.7,1.2c0,0.6-0.2,0.8-0.8,0.8C5,3.2,4.4,3.4,3.8,3.1
		C3.6,2.6,3.7,2,3.9,1.4z"/>
	<path class="st4" d="M9.6,4.3c-0.2,0-0.4,0-0.5-0.2C9.4,4,9.5,4.1,9.6,4.3z"/>
	<path class="st0" d="M1.7,1.4c0.1,0,0.2,0,0.3,0c0.9,0,1.1,0.2,1,1.2C3,3,2.8,3.3,2.2,3.3c-0.4,0-0.8,0-1.2,0c-0.5,0-0.7-0.2-0.7-1
		c0-0.7,0.1-0.9,0.7-0.9C1.3,1.4,1.5,1.4,1.7,1.4C1.7,1.4,1.7,1.4,1.7,1.4z"/>
</g>
</svg>
