<?xml version="1.0" encoding="utf-8"?>
<!-- Generator: Adobe Illustrator 26.0.1, SVG Export Plug-In . SVG Version: 6.00 Build 0)  -->
<svg version="1.1" id="Layer_1" xmlns="http://www.w3.org/2000/svg" xmlns:xlink="http://www.w3.org/1999/xlink" x="0px" y="0px"
	 viewBox="0 0 10 10" style="enable-background:new 0 0 10 10;" xml:space="preserve">
<style type="text/css">
	.st0{fill:#566876;}
	.st1{fill:#FFFFFF;}
	.st2{fill:#5A6B79;}
	.st3{fill:#576977;}
</style>
<g>
	<path class="st0" d="M1.8,2.7c0-0.2,0.2-0.2,0.3-0.2c0.3,0,0.4-0.1,0.4-0.4c0-0.1,0-0.3,0.2-0.3c0.2,0,0.2,0.2,0.2,0.3
		c0,0.3,0.1,0.4,0.4,0.3c0.1,0,0.3,0,0.3,0.2c0,0.2-0.1,0.2-0.3,0.2c-0.3,0-0.4,0.1-0.4,0.4c0,0.1,0,0.3-0.2,0.3
		c-0.2,0-0.2-0.2-0.2-0.3c0-0.3-0.1-0.4-0.4-0.3C2,2.8,1.8,2.8,1.8,2.7z"/>
	<path class="st0" d="M7.4,2.5c-0.4,0-0.7,0-1.1,0c-0.1,0-0.2,0.1-0.2,0.2c0,0.1,0.1,0.2,0.2,0.2h1.1c0.1,0,0.2-0.1,0.2-0.2
		S7.5,2.5,7.4,2.5z M7.5,7.2c-0.4,0-0.8,0-1.2,0c-0.1,0-0.2,0-0.2,0.2c0,0.2,0.1,0.2,0.2,0.2h1.2c0.1,0,0.3,0,0.3-0.2
		C7.7,7.2,7.6,7.2,7.5,7.2z M7.4,6.2H6.3c-0.1,0-0.3,0-0.2,0.2c0,0.1,0.1,0.2,0.3,0.2h1.1c0.1,0,0.3,0,0.3-0.2S7.6,6.2,7.4,6.2z
		 M6.3,6.6h1.1c0.1,0,0.3,0,0.3-0.2S7.6,6.2,7.4,6.2H6.3c-0.1,0-0.3,0-0.2,0.2C6.1,6.6,6.2,6.6,6.3,6.6z M7.5,7.2
		c-0.4,0-0.8,0-1.2,0c-0.1,0-0.2,0-0.2,0.2c0,0.2,0.1,0.2,0.2,0.2h1.2c0.1,0,0.3,0,0.3-0.2C7.7,7.2,7.6,7.2,7.5,7.2z M7.4,2.5
		c-0.4,0-0.7,0-1.1,0c-0.1,0-0.2,0.1-0.2,0.2c0,0.1,0.1,0.2,0.2,0.2h1.1c0.1,0,0.2-0.1,0.2-0.2S7.5,2.5,7.4,2.5z M9.3,5.5
		C9.2,5.4,9.2,5.2,9.2,5V1.2c0-0.6-0.3-0.9-0.9-0.9H1.2c-0.6,0-0.9,0.3-0.9,0.9v7.1c0,0.6,0.3,0.9,0.9,0.9c1.3,0,2.5,0,3.8,0
		c0.2,0,0.3,0,0.5,0.1c1.1,0.6,2.4,0.4,3.3-0.5C9.7,8,9.9,6.6,9.3,5.5z M5.2,0.7c1.1,0,2.1,0,3.2,0c0.3,0,0.4,0.1,0.4,0.4v3.7
		c-1.3-1-2.5-1-3.8,0c0-1.3,0-2.6,0-3.9C4.9,0.8,5,0.7,5.2,0.7z M0.7,1.2c0-0.4,0.1-0.5,0.5-0.5c1,0,2.1,0,3.1,0
		c0.2,0,0.3,0.1,0.3,0.3c0,1.1,0,2.2,0,3.3c0,0.2,0,0.3-0.3,0.3c-0.5,0-1.1,0-1.7,0c-0.5,0-1.1,0-1.7,0c-0.2,0-0.3,0-0.3-0.3
		C0.7,3.3,0.7,2.2,0.7,1.2z M3.4,8.8c-0.7,0-1.5,0-2.2,0c-0.3,0-0.5-0.1-0.5-0.4V5.1C0.7,5,0.7,5,0.9,5C2,5,3.2,5,4.4,5
		c0.2,0,0.3,0.2,0.1,0.5C4.3,5.7,4.2,6,4.1,6.3C4,7.2,4.2,8,4.8,8.8H3.4z M6.9,9.3c-1.3,0-2.4-1.1-2.4-2.4c0-1.3,1.1-2.4,2.4-2.4
		c1.3,0,2.4,1.1,2.4,2.4C9.3,8.2,8.2,9.3,6.9,9.3z M7.4,6.2H6.3c-0.1,0-0.3,0-0.2,0.2c0,0.1,0.1,0.2,0.3,0.2h1.1
		c0.1,0,0.3,0,0.3-0.2S7.6,6.2,7.4,6.2z M7.5,7.2c-0.4,0-0.8,0-1.2,0c-0.1,0-0.2,0-0.2,0.2c0,0.2,0.1,0.2,0.2,0.2h1.2
		c0.1,0,0.3,0,0.3-0.2C7.7,7.2,7.6,7.2,7.5,7.2z M6.4,2.8h1.1c0.1,0,0.2-0.1,0.2-0.2S7.5,2.5,7.4,2.5c-0.4,0-0.7,0-1.1,0
		c-0.1,0-0.2,0.1-0.2,0.2C6.1,2.8,6.2,2.8,6.4,2.8z M3.2,6.6c0.1-0.1,0.2-0.2,0-0.3C3.1,6.2,3,6.2,2.9,6.3c-0.2,0.3-0.4,0.3-0.6,0
		C2.3,6.2,2.2,6.2,2,6.3C1.9,6.4,2,6.5,2.1,6.6c0.1,0.1,0.2,0.1,0.3,0.2C2.3,7,2.2,7.1,2.1,7.2C2,7.3,1.9,7.4,2.1,7.5
		c0.1,0.1,0.2,0,0.3,0c0.2-0.3,0.4-0.3,0.6,0C3,7.5,3.1,7.6,3.2,7.5c0.1-0.1,0.1-0.2,0-0.3C2.9,7,2.9,6.8,3.2,6.6z M7.4,2.5
		c-0.4,0-0.7,0-1.1,0c-0.1,0-0.2,0.1-0.2,0.2c0,0.1,0.1,0.2,0.2,0.2h1.1c0.1,0,0.2-0.1,0.2-0.2S7.5,2.5,7.4,2.5z M7.4,2.5
		c-0.4,0-0.7,0-1.1,0c-0.1,0-0.2,0.1-0.2,0.2c0,0.1,0.1,0.2,0.2,0.2h1.1c0.1,0,0.2-0.1,0.2-0.2S7.5,2.5,7.4,2.5z"/>
	<path class="st1" d="M7.7,7.3c0,0.1-0.1,0.2-0.3,0.2H6.3c-0.1,0-0.3,0-0.2-0.2c0-0.1,0.1-0.2,0.2-0.2c0.4,0,0.8,0,1.2,0
		C7.6,7.2,7.7,7.2,7.7,7.3z"/>
	<path class="st1" d="M6.1,6.4c0-0.2,0.1-0.2,0.2-0.2h1.2c0.1,0,0.3,0,0.3,0.2S7.6,6.6,7.4,6.6H6.3C6.2,6.6,6.1,6.6,6.1,6.4z"/>
	<path class="st1" d="M3.5,2.6c0,0.2-0.1,0.2-0.3,0.2c-0.3,0-0.4,0.1-0.4,0.4c0,0.1,0,0.3-0.2,0.3c-0.2,0-0.2-0.2-0.2-0.3
		c0-0.3-0.1-0.4-0.4-0.3c-0.1,0-0.3,0-0.3-0.2c0-0.2,0.2-0.2,0.3-0.2c0.3,0,0.4-0.1,0.4-0.4c0-0.1,0-0.3,0.2-0.3
		c0.2,0,0.2,0.2,0.2,0.3c0,0.3,0.1,0.4,0.4,0.3C3.3,2.4,3.5,2.5,3.5,2.6z"/>
	<path class="st1" d="M7.6,2.6c0,0.1-0.1,0.2-0.2,0.2H6.4c-0.1,0-0.2,0-0.2-0.2c0-0.1,0.1-0.2,0.2-0.2c0.4,0,0.7,0,1.1,0
		C7.5,2.5,7.6,2.5,7.6,2.6z"/>
	<path class="st1" d="M3.2,7.5C3.1,7.6,3,7.5,2.9,7.4c-0.2-0.3-0.4-0.3-0.6,0c-0.1,0.1-0.2,0.1-0.3,0C1.9,7.4,2,7.3,2.1,7.2
		C2.2,7.1,2.3,7,2.4,6.8C2.3,6.7,2.2,6.7,2.1,6.6C2,6.5,1.9,6.4,2,6.3c0.1-0.1,0.2-0.1,0.3,0c0.2,0.3,0.4,0.3,0.6,0
		c0.1-0.1,0.2-0.2,0.3,0c0.1,0.1,0.1,0.2,0,0.3C2.9,6.8,2.9,7,3.2,7.2C3.3,7.3,3.3,7.4,3.2,7.5z"/>
	<path class="st2" d="M7.7,6.4c0,0.2-0.1,0.2-0.3,0.2H6.3c-0.1,0-0.3,0-0.3-0.2c0-0.2,0.1-0.2,0.2-0.2h1.2C7.6,6.2,7.7,6.3,7.7,6.4z
		"/>
	<path class="st2" d="M7.7,7.3c0,0.1-0.1,0.2-0.3,0.2H6.3c-0.1,0-0.3,0-0.2-0.2c0-0.1,0.1-0.2,0.2-0.2c0.4,0,0.8,0,1.2,0
		C7.6,7.2,7.7,7.2,7.7,7.3z"/>
	<path class="st3" d="M3.5,2.6c0,0.2-0.1,0.2-0.3,0.2c-0.3,0-0.4,0.1-0.4,0.4c0,0.1,0,0.3-0.2,0.3c-0.2,0-0.2-0.2-0.2-0.3
		c0-0.3-0.1-0.4-0.4-0.3c-0.1,0-0.3,0-0.3-0.2c0-0.2,0.2-0.2,0.3-0.2c0.3,0,0.4-0.1,0.4-0.4c0-0.1,0-0.3,0.2-0.3
		c0.2,0,0.2,0.2,0.2,0.3c0,0.3,0.1,0.4,0.4,0.3C3.3,2.4,3.5,2.5,3.5,2.6z"/>
	<path class="st2" d="M7.6,2.6c0,0.1-0.1,0.2-0.2,0.2H6.4c-0.1,0-0.2,0-0.2-0.2c0-0.1,0.1-0.2,0.2-0.2c0.4,0,0.7,0,1.1,0
		C7.5,2.5,7.6,2.5,7.6,2.6z"/>
	<path class="st3" d="M3.2,7.5C3.1,7.6,3,7.5,2.9,7.4c-0.2-0.3-0.4-0.3-0.6,0c-0.1,0.1-0.2,0.1-0.3,0C1.9,7.4,2,7.3,2.1,7.2
		C2.2,7.1,2.3,7,2.4,6.8C2.3,6.7,2.2,6.7,2.1,6.6C2,6.5,1.9,6.4,2,6.3c0.1-0.1,0.2-0.1,0.3,0c0.2,0.3,0.4,0.3,0.6,0
		c0.1-0.1,0.2-0.2,0.3,0c0.1,0.1,0.1,0.2,0,0.3C2.9,6.8,2.9,7,3.2,7.2C3.3,7.3,3.3,7.4,3.2,7.5z"/>
</g>
</svg>
