<?xml version="1.0" encoding="utf-8"?>
<!-- Generator: Adobe Illustrator 26.0.1, SVG Export Plug-In . SVG Version: 6.00 Build 0)  -->
<svg version="1.1" id="Layer_1" xmlns="http://www.w3.org/2000/svg" xmlns:xlink="http://www.w3.org/1999/xlink" x="0px" y="0px"
	 viewBox="0 0 10 10" style="enable-background:new 0 0 10 10;" xml:space="preserve">
<style type="text/css">
	.st0{fill:#FFFFFE;}
	.st1{fill:#5C5C5C;}
	.st2{fill:#615E28;}
	.st3{fill:#605D27;}
	.st4{fill:#FCCE0B;}
	.st5{fill:#FAF9F7;}
	.st6{fill:#5D5C48;}
	.st7{fill:#636146;}
	.st8{fill:#636140;}
	.st9{fill:#605E3A;}
	.st10{fill:#615E34;}
	.st11{fill:#615F45;}
	.st12{fill:#626151;}
	.st13{fill:#605E3F;}
	.st14{fill:#626030;}
	.st15{fill:#64612B;}
	.st16{fill:#65623D;}
	.st17{fill:#5B5944;}
	.st18{fill:#656339;}
	.st19{fill:#656348;}
	.st20{fill:#605E33;}
	.st21{fill:#52513A;}
	.st22{fill:#626042;}
	.st23{fill:#5F5D3C;}
	.st24{fill:#5F5D39;}
	.st25{fill:#62604B;}
	.st26{fill:#615F3C;}
	.st27{fill:#666664;}
	.st28{fill:#656665;}
	.st29{fill:#666665;}
	.st30{fill:#656565;}
	.st31{fill:#646463;}
	.st32{fill:#646464;}
	.st33{fill:#656564;}
	.st34{fill:#636361;}
	.st35{fill:#636360;}
	.st36{fill:#646462;}
	.st37{fill:#63635F;}
	.st38{fill:#656562;}
	.st39{fill:#65645F;}
	.st40{fill:#656460;}
	.st41{fill:#656461;}
	.st42{fill:#63625B;}
	.st43{fill:#62625C;}
	.st44{fill:#65645C;}
	.st45{fill:#65655F;}
	.st46{fill:#64645F;}
	.st47{fill:#636259;}
	.st48{fill:#65645A;}
	.st49{fill:#656458;}
	.st50{fill:#64645C;}
	.st51{fill:#65645E;}
	.st52{fill:#656457;}
	.st53{fill:#64635A;}
	.st54{fill:#646358;}
	.st55{fill:#64645B;}
	.st56{fill:#646356;}
	.st57{fill:#636256;}
	.st58{fill:#626152;}
	.st59{fill:#60605C;}
	.st60{fill:#646252;}
	.st61{fill:#65645B;}
	.st62{fill:#656455;}
	.st63{fill:#63614D;}
	.st64{fill:#666553;}
	.st65{fill:#62625F;}
	.st66{fill:#656451;}
	.st67{fill:#62625E;}
	.st68{fill:#646461;}
	.st69{fill:#5F5E5B;}
	.st70{fill:#5E5E5B;}
	.st71{fill:#5D5D5A;}
	.st72{fill:#61615E;}
	.st73{fill:#61615D;}
	.st74{fill:#FFFEFB;}
	.st75{fill:#FFFFFC;}
	.st76{fill:#FFFEFA;}
	.st77{fill:#FFFEF9;}
	.st78{fill:#FFFDF6;}
	.st79{fill:#FFFCF2;}
	.st80{fill:#FCCF0C;}
	.st81{fill:#FCD017;}
	.st82{fill:#FCD018;}
	.st83{fill:#FCD11A;}
</style>
<g>
	<path class="st0" d="M7.9,3.9c0.3,0,0.7,0,1,0C9,3.9,9,3.9,9,4c0,0.4,0,0.9,0,1.3c0,0.1,0,0.2-0.1,0.2c-0.1,0-0.1-0.1-0.2-0.2
		c0-0.3,0-0.6,0-0.8c0-0.1,0-0.1,0-0.2c0-0.1-0.1-0.2-0.2-0.2c-0.5,0-1,0-1.4,0C7,4.2,7,4.2,7,4.4c0,0.5,0,0.9,0,1.4
		C7,5.9,7,6,7.2,6c0.3,0,0.6,0,1,0C8.3,6,8.4,6,8.3,6.2c-0.2,0-0.4,0-0.6,0c-0.7,0-1.3,0-2,0c-0.2,0-0.4,0-0.5,0c0,0,0,0-0.1,0
		c-0.1,0-0.2,0-0.3,0c-0.6,0-1.3,0-1.9,0c-0.5,0-0.9,0-1.4,0c-0.4,0-0.9,0-1.3,0c0-0.8,0-1.5,0-2.3c0.8,0,1.7,0,2.5,0
		c1,0,2.1,0,3.1,0c0.6,0,1.1,0,1.7,0C7.7,3.9,7.8,3.9,7.9,3.9z"/>
	<path class="st1" d="M9.3,6C9.3,6,9.3,6,9.3,6c0,0.1,0,0.1,0,0.2c-0.1,0-0.2,0-0.3,0c0-0.1,0-0.1,0.1-0.1C9.2,6.2,9.3,6.1,9.3,6z"
		/>
	<path class="st2" d="M4.2,8.8c0-0.1,0-0.1,0.1-0.1c0.1,0,0.1,0.1,0.1,0.1C4.3,8.8,4.3,8.8,4.2,8.8z"/>
	<path class="st3" d="M4.9,8.8c0,0,0-0.1,0.1-0.1C5,8.7,5,8.8,5,8.8C5,8.8,4.9,8.8,4.9,8.8z"/>
	<path class="st4" d="M8.3,6.2c0-0.1,0-0.2-0.2-0.2C7.8,6,7.4,6,7.1,6C7,6,6.9,6,6.9,5.9c0-0.5,0-1.1,0-1.6c0-0.1,0-0.2,0.1-0.2
		c0.5,0,1.1,0,1.6,0c0.1,0,0.1,0,0.1,0.1c0,0.4,0,0.7,0,1.1c0,0.1-0.1,0.2,0.1,0.2C9.1,5.5,9,5.4,9,5.3C9,4.9,9,4.5,9,4
		c0,0.6,0,1.1,0,1.7c-0.1,0-0.2,0.1-0.2,0.2c0,0.1-0.1,0.1-0.1,0.1c-0.1,0-0.2,0.1-0.2,0.1C8.5,6.2,8.4,6.2,8.3,6.2z"/>
	<path class="st5" d="M8.5,6.2c0-0.1,0-0.2,0.2-0.2c0.1,0,0.1,0,0.1-0.1c0-0.2,0-0.2,0.2-0.2c0,0,0,0,0,0C9.1,6,9.1,6,9.3,6
		c0,0.1,0,0.2-0.2,0.2c0,0-0.1,0-0.1,0c0,0.1,0,0.1,0,0.2c0,0.1,0,0.1-0.1,0.1c-0.1,0-0.1,0-0.1-0.1c0-0.1,0-0.2-0.2-0.2
		C8.6,6.2,8.6,6.2,8.5,6.2z"/>
	<path class="st6" d="M1.6,6.2c0.2,0,0.4,0,0.6,0c0.3,0,0.5,0,0.8,0c-0.3,0-0.6,0-0.9,0c0,0-0.1-0.1-0.1,0.1c0,0.1,0,0.1-0.1,0.1
		c-0.1,0-0.1-0.1,0-0.2C1.7,6.2,1.7,6.2,1.6,6.2z"/>
	<path class="st7" d="M1.3,6.5c0.1,0,0.1,0.1,0.1,0.1c0,0.1,0,0.1-0.1,0.1c-0.1,0-0.1,0-0.1-0.1C1.1,6.5,1.2,6.5,1.3,6.5z"/>
	<path class="st8" d="M1.7,7.2c0,0.1,0,0.1-0.1,0.1c-0.1,0-0.1,0-0.1-0.1c0-0.1,0-0.1,0.1-0.1C1.6,7.1,1.7,7.1,1.7,7.2z"/>
	<path class="st9" d="M2,7.8c-0.1,0-0.1,0-0.1-0.1c0-0.1,0-0.1,0.1-0.1c0.1,0,0.1,0,0.1,0.1C2.1,7.7,2,7.8,2,7.8z"/>
	<path class="st10" d="M2.6,8.1c0,0.1-0.1,0.1-0.1,0.1c-0.1,0-0.1,0-0.1-0.1C2.4,8,2.4,8,2.6,8.1C2.5,8,2.6,8.1,2.6,8.1z"/>
	<path class="st11" d="M1.8,6.7c0,0.1,0,0.1-0.1,0.1c-0.1,0-0.1,0-0.1-0.1c0-0.1,0-0.1,0.1-0.1C1.8,6.6,1.8,6.7,1.8,6.7z"/>
	<path class="st12" d="M5.2,6.2c0.2,0,0.4,0,0.5,0C5.6,6.3,5.4,6.2,5.3,6.3C5.3,6.4,5.3,6.2,5.2,6.2z"/>
	<path class="st13" d="M2,7.3C2,7.3,2,7.2,2,7.2C2,7.1,2,7.1,2,7.1C2.1,7.1,2.1,7.2,2,7.3C2.1,7.3,2.1,7.3,2,7.3z"/>
	<path class="st14" d="M3.1,8.4C3.1,8.5,3.1,8.5,3.1,8.4C3,8.5,2.9,8.5,2.9,8.4C2.9,8.4,3,8.4,3.1,8.4C3.1,8.4,3.1,8.4,3.1,8.4z"/>
	<path class="st15" d="M3.6,8.6C3.7,8.6,3.7,8.6,3.6,8.6c0.1,0.1,0.1,0.1,0,0.1C3.6,8.7,3.6,8.7,3.6,8.6C3.6,8.6,3.6,8.6,3.6,8.6z"
		/>
	<path class="st16" d="M2.4,7.6C2.4,7.6,2.4,7.6,2.4,7.6c0.1-0.1,0.1-0.1,0.1,0C2.5,7.7,2.5,7.7,2.4,7.6C2.4,7.7,2.4,7.7,2.4,7.6z"
		/>
	<path class="st17" d="M4.8,6.2c0.1,0,0.2,0,0.3,0c0,0-0.1,0-0.1,0C5,6.3,4.9,6.3,4.8,6.2z"/>
	<path class="st18" d="M3,8C3,8,3,8,3,8C2.9,8,2.9,8,2.9,8C2.9,7.9,2.9,7.9,3,8C3,7.9,3,7.9,3,8z"/>
	<path class="st19" d="M2.1,6.9C2.1,6.9,2.1,6.8,2.1,6.9c-0.1-0.1-0.1-0.1,0-0.1C2.2,6.7,2.2,6.7,2.1,6.9C2.2,6.8,2.2,6.8,2.1,6.9z"
		/>
	<path class="st20" d="M3.5,8.3C3.4,8.3,3.4,8.3,3.5,8.3c-0.1-0.1,0-0.1,0-0.1C3.5,8.1,3.5,8.2,3.5,8.3C3.5,8.3,3.5,8.3,3.5,8.3z"/>
	<path class="st21" d="M5.8,6.4C5.8,6.4,5.8,6.5,5.8,6.4c-0.1,0.1-0.1,0-0.1,0C5.7,6.4,5.7,6.4,5.8,6.4C5.8,6.3,5.8,6.4,5.8,6.4z"/>
	<path class="st22" d="M2.5,7.1C2.5,7.1,2.5,7.2,2.5,7.1c0.1,0.1,0,0.1,0,0.1C2.4,7.3,2.4,7.2,2.5,7.1C2.4,7.2,2.4,7.1,2.5,7.1z"/>
	<path class="st23" d="M2.9,7.5C2.9,7.5,2.9,7.5,2.9,7.5C2.9,7.6,2.9,7.6,2.9,7.5C2.8,7.6,2.8,7.6,2.9,7.5C2.8,7.5,2.8,7.5,2.9,7.5z
		"/>
	<path class="st24" d="M7.4,6.3C7.4,6.4,7.4,6.4,7.4,6.3C7.3,6.4,7.3,6.4,7.4,6.3C7.3,6.3,7.3,6.3,7.4,6.3C7.4,6.3,7.4,6.3,7.4,6.3z
		"/>
	<path class="st25" d="M2.3,6.5C2.2,6.5,2.2,6.5,2.3,6.5c-0.1-0.1,0-0.1,0-0.1C2.3,6.4,2.3,6.4,2.3,6.5C2.3,6.4,2.3,6.5,2.3,6.5z"/>
	<path class="st26" d="M7,6.4C7,6.4,7,6.4,7,6.4c0,0.1,0,0.1,0,0.1C6.9,6.5,6.9,6.4,7,6.4C6.9,6.4,7,6.4,7,6.4z"/>
	<path class="st27" d="M2.2,2.5c0,0.1-0.1,0.1-0.2,0.2c-0.1,0-0.2-0.1-0.2-0.2c0-0.1,0.1-0.2,0.2-0.2C2.1,2.3,2.2,2.4,2.2,2.5z"/>
	<path class="st28" d="M2.3,2.1c0-0.1,0-0.2,0.2-0.2c0.1,0,0.2,0.1,0.2,0.2c0,0.1-0.1,0.2-0.2,0.2C2.4,2.2,2.4,2.2,2.3,2.1z"/>
	<path class="st29" d="M3.2,1.8c0,0.1-0.1,0.1-0.2,0.1C3,1.9,2.9,1.8,2.9,1.7c0-0.1,0.1-0.2,0.2-0.2C3.2,1.6,3.2,1.6,3.2,1.8z"/>
	<path class="st30" d="M3,2.1c0.1,0,0.2,0.1,0.2,0.2c0,0.1-0.1,0.2-0.2,0.2c-0.1,0-0.2-0.1-0.2-0.2C2.8,2.1,2.9,2.1,3,2.1z"/>
	<path class="st31" d="M3.7,1.3c0.1,0,0.2,0.1,0.2,0.2c0,0.1,0,0.2-0.2,0.2c-0.1,0-0.2-0.1-0.2-0.2C3.5,1.4,3.6,1.4,3.7,1.3z"/>
	<path class="st32" d="M3.6,2c0,0.1-0.1,0.2-0.2,0.1C3.4,2.1,3.3,2.1,3.3,2c0-0.1,0.1-0.1,0.2-0.1C3.6,1.8,3.6,1.9,3.6,2z"/>
	<path class="st31" d="M4,2.2c0,0.1-0.1,0.1-0.1,0.1c-0.1,0-0.1-0.1-0.2-0.2C3.7,2.1,3.8,2,3.9,2C3.9,2,4,2.1,4,2.2z"/>
	<path class="st33" d="M4,1.7c0.1,0,0.1,0.1,0.1,0.2c0,0.1,0,0.1-0.1,0.1C4,2,3.9,1.9,3.9,1.8C3.9,1.7,3.9,1.7,4,1.7z"/>
	<path class="st28" d="M4.4,1.4c0,0.1-0.1,0.2-0.1,0.2c-0.1,0-0.2-0.1-0.1-0.2c0-0.1,0-0.1,0.1-0.1C4.4,1.2,4.4,1.3,4.4,1.4z"/>
	<path class="st33" d="M5.1,1.4c0,0.1-0.1,0.1-0.1,0.1c-0.1,0-0.1-0.1-0.1-0.1c0-0.1,0.1-0.1,0.1-0.1C5,1.2,5.1,1.3,5.1,1.4z"/>
	<path class="st33" d="M4.6,1.9c-0.1,0-0.1-0.1-0.1-0.1c0-0.1,0.1-0.1,0.2-0.1c0.1,0,0.1,0.1,0.1,0.1C4.7,1.8,4.7,1.9,4.6,1.9z"/>
	<path class="st31" d="M4.4,2.2c-0.1,0-0.1,0-0.2-0.1C4.2,2,4.3,2,4.3,2C4.4,2,4.5,2,4.5,2.1C4.5,2.2,4.4,2.2,4.4,2.2z"/>
	<path class="st34" d="M5.2,1.9c-0.1,0-0.1-0.1-0.1-0.1c0-0.1,0.1-0.1,0.1-0.1c0.1,0,0.1,0.1,0.1,0.1C5.3,1.9,5.3,1.9,5.2,1.9z"/>
	<path class="st35" d="M5.7,1.5c0,0.1-0.1,0.1-0.1,0.1c-0.1,0-0.1-0.1-0.1-0.2c0-0.1,0.1-0.1,0.1-0.1C5.7,1.4,5.7,1.4,5.7,1.5z"/>
	<path class="st36" d="M5,2.1C5,2.2,5,2.2,4.9,2.2c-0.1,0-0.1,0-0.1-0.1C4.7,2,4.8,2,4.9,2C5,2,5,2,5,2.1z"/>
	<path class="st36" d="M4.7,2.4c0,0.1,0,0.1-0.1,0.1c-0.1,0-0.1,0-0.1-0.1c0-0.1,0-0.1,0.1-0.1C4.7,2.3,4.7,2.3,4.7,2.4z"/>
	<path class="st37" d="M5.9,1.9c0,0.1-0.1,0.1-0.1,0.1C5.7,2.1,5.6,2,5.6,1.9c0-0.1,0.1-0.1,0.1-0.1C5.8,1.8,5.9,1.9,5.9,1.9z"/>
	<path class="st38" d="M5.1,2.3c0.1,0,0.1,0,0.1,0.1c0,0.1-0.1,0.1-0.1,0.1C5,2.6,5,2.5,4.9,2.4C4.9,2.3,5,2.3,5.1,2.3z"/>
	<path class="st38" d="M5.5,2.2c0,0.1-0.1,0.1-0.1,0.1c-0.1,0-0.1,0-0.1-0.1c0-0.1,0-0.1,0.1-0.1C5.5,2.1,5.5,2.1,5.5,2.2z"/>
	<path class="st39" d="M6.2,1.8c-0.1,0-0.1-0.1-0.1-0.1c0-0.1,0-0.1,0.1-0.1c0.1,0,0.1,0.1,0.1,0.1C6.3,1.8,6.2,1.8,6.2,1.8z"/>
	<path class="st40" d="M5.6,2.6c0,0.1-0.1,0.1-0.1,0.1c-0.1,0-0.1,0-0.1-0.1c0-0.1,0.1-0.1,0.1-0.1C5.6,2.4,5.6,2.5,5.6,2.6z"/>
	<path class="st41" d="M5.2,2.9c-0.1,0-0.1-0.1-0.1-0.1c0-0.1,0-0.1,0.1-0.1c0.1,0,0.1,0.1,0.1,0.1C5.3,2.8,5.3,2.9,5.2,2.9z"/>
	<path class="st40" d="M6,2.3c0,0.1-0.1,0.1-0.1,0.1c-0.1,0-0.1,0-0.1-0.1c0-0.1,0-0.1,0.1-0.1C5.9,2.2,6,2.3,6,2.3z"/>
	<path class="st42" d="M6.4,2.6c0,0.1-0.1,0.1-0.1,0.1c-0.1,0-0.1-0.1-0.1-0.1c0-0.1,0-0.1,0.1-0.1C6.4,2.5,6.4,2.5,6.4,2.6z"/>
	<path class="st43" d="M6.1,2.7c0,0.1,0,0.1-0.1,0.1c-0.1,0-0.1,0-0.1-0.1c0-0.1,0-0.1,0.1-0.1C6,2.6,6.1,2.7,6.1,2.7z"/>
	<path class="st44" d="M6.7,1.9c0.1,0,0.1,0,0.1,0.1c0,0.1,0,0.1-0.1,0.1c-0.1,0-0.1,0-0.1-0.1C6.6,2,6.7,1.9,6.7,1.9z"/>
	<path class="st45" d="M6.3,2.1c0.1,0,0.1,0,0.1,0.1c0,0.1,0,0.1-0.1,0.1c-0.1,0-0.1,0-0.1-0.1C6.2,2.1,6.2,2.1,6.3,2.1z"/>
	<path class="st46" d="M5.7,2.9c0,0.1,0,0.1-0.1,0.1C5.6,3,5.5,3,5.5,2.9c0-0.1,0-0.1,0.1-0.1C5.7,2.8,5.7,2.8,5.7,2.9z"/>
	<path class="st47" d="M6.8,2.6c-0.1,0-0.1,0-0.1-0.1c0-0.1,0-0.1,0.1-0.1c0.1,0,0.1,0,0.1,0.1C6.9,2.6,6.8,2.6,6.8,2.6z"/>
	<path class="st48" d="M6.8,2.9C6.8,3,6.8,3,6.7,3C6.7,3,6.6,3,6.6,2.9c0-0.1,0-0.1,0.1-0.1C6.8,2.8,6.8,2.9,6.8,2.9z"/>
	<path class="st49" d="M7.2,2.3c0.1,0,0.1,0,0.1,0.1c0,0.1,0,0.1-0.1,0.1c-0.1,0-0.1,0-0.1-0.1C7.1,2.4,7.2,2.3,7.2,2.3z"/>
	<path class="st44" d="M6.3,3.1c-0.1,0-0.1,0-0.1-0.1c0-0.1,0-0.1,0.1-0.1c0.1,0,0.1,0,0.1,0.1C6.4,3.1,6.4,3.1,6.3,3.1z"/>
	<path class="st50" d="M6.1,3.1c0,0.1,0,0.1-0.1,0.1c-0.1,0-0.1,0-0.1-0.1C5.9,3,5.9,3,6,3C6.1,3,6.1,3,6.1,3.1z"/>
	<path class="st51" d="M5.7,3.1c0.1,0,0.1,0,0.1,0.1c0,0.1,0,0.1-0.1,0.1c-0.1,0-0.1,0-0.1-0.1C5.6,3.1,5.6,3.1,5.7,3.1z"/>
	<path class="st52" d="M7.3,2.9C7.3,3,7.2,3,7.2,3C7.1,3,7.1,3,7.1,2.9c0-0.1,0-0.1,0.1-0.1C7.2,2.8,7.3,2.9,7.3,2.9z"/>
	<path class="st53" d="M6.4,3.3c0,0.1,0,0.1-0.1,0.1c-0.1,0-0.1-0.1-0.1-0.1C6.2,3.3,6.3,3.2,6.4,3.3C6.4,3.3,6.4,3.3,6.4,3.3z"/>
	<path class="st54" d="M6.7,3.4C6.6,3.4,6.6,3.4,6.7,3.4c-0.1-0.2-0.1-0.2,0-0.2c0.1,0,0.1,0.1,0.1,0.1C6.8,3.4,6.7,3.4,6.7,3.4z"/>
	<path class="st55" d="M6,3.3c0.1,0,0.1,0,0.1,0.1c0,0.1,0,0.1-0.1,0.1C5.9,3.5,5.9,3.5,6,3.3C5.9,3.3,5.9,3.3,6,3.3z"/>
	<path class="st56" d="M7.2,3.3C7.2,3.4,7.1,3.4,7.2,3.3C7,3.4,7,3.4,7,3.3c0-0.1,0-0.1,0.1-0.1C7.1,3.2,7.2,3.3,7.2,3.3z"/>
	<path class="st57" d="M6.7,3.6c0,0.1,0,0.1-0.1,0.1c-0.1,0-0.1,0-0.1-0.1c0-0.1,0-0.1,0.1-0.1C6.6,3.6,6.7,3.6,6.7,3.6z"/>
	<path class="st58" d="M7.8,2.9C7.8,3,7.7,3,7.8,2.9C7.6,3,7.6,3,7.6,2.9c0-0.1,0-0.1,0.1-0.1C7.7,2.8,7.8,2.9,7.8,2.9z"/>
	<path class="st59" d="M2.3,3.8c-0.1,0-0.1,0-0.1-0.1c0-0.1,0-0.1,0.1-0.1c0.1,0,0.1,0,0.1,0.1C2.4,3.8,2.3,3.8,2.3,3.8z"/>
	<path class="st60" d="M7.6,3.4c0,0.1,0,0.1-0.1,0.1c-0.1,0-0.1,0-0.1-0.1c0-0.1,0-0.1,0.1-0.1C7.6,3.3,7.6,3.3,7.6,3.4z"/>
	<path class="st54" d="M6.2,3.7C6.2,3.6,6.2,3.6,6.2,3.7c0.2-0.1,0.2-0.1,0.2,0C6.4,3.7,6.3,3.8,6.2,3.7C6.2,3.8,6.2,3.7,6.2,3.7z"
		/>
	<path class="st61" d="M6.1,3.7C6.1,3.7,6.1,3.8,6.1,3.7c-0.1,0.1-0.2,0.1-0.2,0C5.9,3.6,5.9,3.6,6.1,3.7C6,3.6,6.1,3.6,6.1,3.7z"/>
	<path class="st62" d="M7,3.7c0,0.1,0,0.1-0.1,0.1c-0.1,0-0.1,0-0.1-0.1C6.9,3.6,6.9,3.6,7,3.7C7,3.6,7,3.6,7,3.7z"/>
	<path class="st63" d="M8.1,3.5C8.1,3.5,8.1,3.6,8.1,3.5C8,3.6,7.9,3.5,7.9,3.5C7.9,3.4,7.9,3.4,8.1,3.5C8.1,3.4,8.1,3.4,8.1,3.5z"
		/>
	<path class="st64" d="M7.3,3.7C7.4,3.7,7.4,3.7,7.3,3.7c0.1,0.1,0,0.2,0,0.2C7.3,3.9,7.2,3.8,7.3,3.7C7.3,3.7,7.3,3.7,7.3,3.7z"/>
	<path class="st65" d="M3,3.3C3,3.4,3,3.4,3,3.3c-0.1,0.1-0.2,0-0.2,0C2.8,3.3,2.9,3.3,3,3.3C3,3.3,3,3.3,3,3.3z"/>
	<path class="st66" d="M7.9,3.9c-0.1,0-0.1,0-0.2,0c0-0.1,0-0.1,0.1-0.1C7.8,3.8,7.9,3.9,7.9,3.9z"/>
	<path class="st67" d="M2.6,3.7C2.6,3.7,2.6,3.7,2.6,3.7c-0.1-0.1,0-0.2,0-0.2C2.7,3.6,2.7,3.6,2.6,3.7C2.7,3.7,2.7,3.7,2.6,3.7z"/>
	<path class="st68" d="M3.5,3.2C3.5,3.2,3.5,3.2,3.5,3.2c-0.1-0.1-0.1-0.1,0-0.2C3.6,3.1,3.6,3.1,3.5,3.2C3.6,3.2,3.6,3.2,3.5,3.2z"
		/>
	<path class="st68" d="M3.2,3.4C3.2,3.4,3.1,3.4,3.2,3.4c-0.1-0.1,0-0.1,0-0.1C3.3,3.3,3.3,3.3,3.2,3.4C3.3,3.4,3.2,3.4,3.2,3.4z"/>
	<path class="st69" d="M2.9,3.7C2.9,3.7,2.9,3.7,2.9,3.7c-0.1-0.1,0-0.1,0-0.1C3,3.6,3,3.6,2.9,3.7C3,3.7,3,3.7,2.9,3.7z"/>
	<path class="st70" d="M4.2,3.1C4.2,3.2,4.2,3.2,4.2,3.1C4.1,3.2,4,3.2,4,3.2C4,3.1,4.1,3.1,4.2,3.1C4.1,3.1,4.2,3.1,4.2,3.1z"/>
	<path class="st71" d="M4.7,3.3C4.7,3.3,4.6,3.3,4.7,3.3c-0.1,0.1-0.1,0-0.1,0C4.6,3.2,4.6,3.2,4.7,3.3C4.6,3.2,4.7,3.3,4.7,3.3z"/>
	<path class="st72" d="M3.8,3.2C3.8,3.2,3.8,3.2,3.8,3.2c0.1,0.1,0.1,0.1,0,0.1C3.7,3.3,3.7,3.3,3.8,3.2C3.7,3.2,3.7,3.2,3.8,3.2z"
		/>
	<path class="st73" d="M4.4,3.3C4.4,3.3,4.3,3.4,4.4,3.3c-0.1,0.1-0.1,0-0.1,0C4.3,3.3,4.3,3.3,4.4,3.3C4.3,3.2,4.4,3.3,4.4,3.3z"/>
	<path class="st72" d="M3.5,3.4C3.5,3.5,3.5,3.5,3.5,3.4c-0.1,0-0.1,0-0.1,0C3.4,3.4,3.5,3.4,3.5,3.4C3.5,3.4,3.5,3.4,3.5,3.4z"/>
	<path class="st4" d="M3.6,6c-1,0-2,0-3,0C0.5,6,0.5,6,0.5,5.9c0-0.5,0-1.1,0-1.6c0-0.1,0-0.2,0.2-0.2c2,0,4,0,6,0
		c0.1,0,0.1,0,0.1,0.2c0,0.5,0,1.1,0,1.6C6.8,6,6.7,6,6.6,6C5.6,6,4.6,6,3.6,6z"/>
	<path class="st74" d="M7.9,5.7c-0.1,0-0.4,0.1-0.5,0c-0.1-0.1,0-0.3,0-0.5C7.3,4.8,7.6,4.6,7.9,4.4c0,0,0.1,0,0.1,0
		c0.4,0.3,0.4,0.3,0.4,0.9c0,0.4,0,0.4-0.4,0.4C8,5.7,8,5.7,7.9,5.7z"/>
	<path class="st75" d="M4.3,5.4c0,0.1,0,0.1,0,0.2c0,0.1,0,0.1-0.1,0.1c-0.1,0-0.1,0-0.1-0.1c0-0.2,0-0.4,0-0.6c0,0,0-0.1,0-0.1
		c0.1-0.1,0.4,0,0.5,0.1c0.1,0.1,0.1,0.2,0,0.4C4.6,5.4,4.5,5.5,4.3,5.4z"/>
	<path class="st0" d="M1.4,5C1.4,5,1.4,5,1.4,5c0-0.4,0-0.4,0.4-0.4c0.1,0,0.1,0,0.1,0.1c0,0.1,0,0.1-0.1,0.1c0,0,0,0,0,0
		c-0.1,0-0.2-0.1-0.2,0.1c0,0.1,0.1,0.1,0.2,0.1c0.1,0,0.1,0,0.1,0.1c0,0.1,0,0.1-0.1,0.1c0,0,0,0-0.1,0c-0.1,0-0.1,0-0.1,0.1
		c0,0.1,0.1,0.1,0.1,0.1c0,0,0.1,0,0.1,0c0.1,0,0.1,0,0.1,0.1c0,0.1,0,0.1-0.1,0.1c-0.1,0-0.2,0-0.3,0c-0.1,0-0.1,0-0.1-0.1
		C1.4,5.2,1.4,5.1,1.4,5z"/>
	<path class="st74" d="M5.5,5.2C5.5,5.2,5.6,5.4,5.4,5.4c-0.1,0-0.3,0.1-0.4,0C5,5.3,4.9,5.2,4.9,5.1C4.9,5,5,4.8,5.2,4.8
		C5.5,4.8,5.5,4.8,5.5,5.2z"/>
	<path class="st76" d="M3.9,5.1c0,0.2-0.2,0.3-0.3,0.3c-0.2,0-0.3-0.1-0.3-0.3c0-0.2,0.1-0.3,0.3-0.3C3.8,4.8,3.9,5,3.9,5.1z"/>
	<path class="st77" d="M2.6,5.1c0,0,0,0.1,0,0.1c0,0.1,0,0.2-0.1,0.1c0,0-0.1,0-0.1,0c-0.2,0-0.3,0-0.3-0.2c0-0.1,0-0.2,0-0.2
		c0-0.1,0-0.1,0.1-0.1c0.1,0,0.1,0.1,0.1,0.1c0,0.1,0,0.1,0,0.2c0,0.1,0,0.1,0.1,0.1c0.1,0,0.1-0.1,0.1-0.1c0-0.1,0-0.1,0-0.2
		c0-0.1,0-0.1,0.1-0.1c0.1,0,0.1,0,0.1,0.1C2.6,5,2.6,5.1,2.6,5.1z"/>
	<path class="st78" d="M2.9,5.1c0,0,0-0.1,0-0.1c0-0.1,0-0.2,0.2-0.1c0,0,0,0,0.1,0c0,0,0.1-0.1,0.1,0c0,0,0,0.1,0,0.1
		C3,5.1,3,5.2,3,5.3C3,5.3,3,5.4,3,5.4c-0.1,0-0.1-0.1-0.1-0.1C2.9,5.2,2.9,5.2,2.9,5.1z"/>
	<path class="st79" d="M5.8,5.2c0.1,0,0.1,0,0.1,0.1c0,0.1,0,0.1-0.1,0.1c-0.1,0-0.1,0-0.1-0.1C5.7,5.3,5.8,5.2,5.8,5.2z"/>
	<path class="st80" d="M8.3,5.2c0,0.1,0,0.1,0,0.2c0,0.1,0,0.1-0.1,0.1C8.1,5.5,8,5.5,8,5.4c0-0.1,0-0.1-0.1-0.1
		c-0.1,0-0.1,0.1-0.1,0.1c0,0.1-0.1,0.1-0.1,0.1c-0.1,0-0.1,0-0.1-0.1c0-0.1,0-0.1,0-0.2C7.5,4.9,7.7,4.8,7.8,4.7c0,0,0,0,0.1,0
		c0.1,0,0.3,0.3,0.3,0.4C8.3,5.1,8.3,5.2,8.3,5.2z"/>
	<path class="st81" d="M4.5,5.3c-0.1,0-0.1-0.1-0.1-0.1C4.3,5.1,4.4,5,4.4,5c0.1,0,0.1,0.1,0.1,0.1C4.6,5.2,4.5,5.3,4.5,5.3z"/>
	<path class="st82" d="M5.2,5.3c-0.1,0-0.1-0.1-0.1-0.1c0-0.1,0-0.1,0.1-0.1c0.1,0,0.1,0.1,0.1,0.1C5.3,5.2,5.3,5.3,5.2,5.3z"/>
	<path class="st83" d="M3.8,5.1c0,0.1-0.1,0.1-0.1,0.1c-0.1,0-0.1-0.1-0.1-0.1c0-0.1,0-0.1,0.1-0.1C3.7,5,3.8,5.1,3.8,5.1z"/>
</g>
</svg>
