<?xml version="1.0" encoding="utf-8"?>
<!-- Generator: Adobe Illustrator 26.0.1, SVG Export Plug-In . SVG Version: 6.00 Build 0)  -->
<svg version="1.1" id="Layer_1" xmlns="http://www.w3.org/2000/svg" xmlns:xlink="http://www.w3.org/1999/xlink" x="0px" y="0px"
	 viewBox="0 0 10 10" style="enable-background:new 0 0 10 10;" xml:space="preserve">
<style type="text/css">
	.st0{fill:#FCCF0A;}
	.st1{fill:#FFFFFF;}
	.st2{fill:#0F0F0F;}
	.st3{fill:#202020;}
	.st4{fill:#1D1E1E;}
	.st5{fill:#272828;}
</style>
<g>
	<path class="st0" d="M6.5,8C6,8.2,5.7,8.4,5.6,8.8C5.5,9.1,5.4,9.4,5.2,9.7c-0.1,0.3-0.4,0.3-0.5,0c-0.3-1-1-1.5-1.9-2
		C1.3,6.8,0.7,5.3,1,3.5c0.2-1.6,1.5-2.9,3.2-3.3C4.4,0.2,4.7,0.2,5,0.1c2,0,3.6,1.4,4,3.4C9.4,5.4,8.3,7.3,6.5,8z"/>
	<path class="st1" d="M6.5,8C6,8.2,5.7,8.4,5.6,8.8C5.5,9.1,5.4,9.4,5.2,9.7c-0.1,0.3-0.4,0.3-0.5,0c-0.3-1-1-1.5-1.9-2
		C1.3,6.8,0.7,5.3,1,3.5c0.2-1.6,1.5-2.9,3.2-3.3C4.4,0.2,4.7,0.2,5,0.1c2,0,3.6,1.4,4,3.4C9.4,5.4,8.3,7.3,6.5,8z"/>
	<path class="st2" d="M5.9,7.1c0-0.2,0.2-0.2,0.3-0.2c0.8-0.4,1.4-1,1.6-1.9c0-0.2,0-0.4,0.3-0.5c0.1,0-0.2-0.4-0.4-0.5
		C7.4,3.8,7.3,4.2,7.2,4.3C7,4.5,7.2,4.5,7.3,4.5c0.2,0.1,0.1,0.3,0,0.5C7,5.9,6.1,6.6,5.1,6.6C3.9,6.7,3,6,2.7,5
		c0-0.1,0-0.3-0.2-0.3c-0.2,0-0.3,0.1-0.2,0.4c0.4,1.3,1.8,2.2,3.1,2c0.1,0,0.2-0.1,0.4,0.1c-0.5,0.2-1,0.2-1.5,0
		c-1.2-0.4-2-1.2-2.2-2.5C1.9,4.3,1.5,4.1,1.6,3.9C1.7,3.7,2,3.5,2.1,3.2C2.5,1.9,3.8,1,5.1,1.1C6.6,1.2,7.8,2.3,8,3.8
		C8,3.9,8,4,8.1,4.1C8.2,4.3,8.7,4.6,8,4.8C8,4.8,7.9,4.9,7.9,5.1C7.6,6,7,6.7,6.1,7.1C6,7.1,5.9,7.2,5.9,7.1z"/>
	<path class="st1" d="M5,1.9C5.2,1.9,5.4,2,5.6,2c0.7,0.2,1.2,0.7,1.5,1.4C7.2,3.8,7.3,4,7,4.3C6.8,4.4,6.7,4.6,7,4.7
		c0.2,0,0.1,0.2,0.1,0.2c-0.3,1-1.2,1.6-2.4,1.5c-0.9,0-1.9-0.9-2-1.7c0-0.2,0-0.4,0.2-0.6C3.1,4,3.2,3.8,3,3.8
		C2.6,3.7,2.8,3.5,2.9,3.4C3.2,2.7,3.6,2.2,4.4,2C4.5,2,4.6,2,4.8,1.9C4.7,1.7,4.6,1.8,4.5,1.8C3.6,2,3,2.5,2.7,3.4
		C2.6,3.6,2.3,3.8,2.8,3.9c0.1,0,0,0.1,0,0.2C2.6,4.3,2.5,4.4,2.3,4.6C2,4.3,1.9,4,2.1,3.6c0.4-0.9,0.8-1.6,1.7-2
		c1.7-0.8,3.6,0.2,4,2.1C7.3,3.9,7.3,3.5,7.2,3.2C6.8,2.3,5.9,1.7,5,1.9z"/>
	<path class="st3" d="M4.2,3.8c0-0.2,0.1-0.4,0.4-0.4c0.3,0,0.4,0.1,0.4,0.4c0,0.3-0.1,0.4-0.4,0.4C4.3,4.2,4.1,4,4.2,3.8z"/>
	<path class="st4" d="M5.8,4.8c0,0.3-0.1,0.4-0.4,0.4C5.2,5.2,5,5.1,5,4.8c0-0.3,0.1-0.4,0.4-0.4C5.7,4.4,5.8,4.5,5.8,4.8z"/>
	<path class="st5" d="M5.4,3.6C5.2,4.1,4.9,4.5,4.6,5c0,0.1-0.1,0-0.1,0c0,0-0.1-0.1,0-0.1C4.8,4.4,5,4,5.3,3.5
		C5.4,3.6,5.4,3.6,5.4,3.6z"/>
	<path class="st1" d="M4.5,4C4.4,4,4.4,3.9,4.4,3.8c0-0.1,0-0.2,0.2-0.2c0.1,0,0.2,0.1,0.2,0.2C4.7,3.9,4.7,4,4.5,4z"/>
	<path class="st1" d="M5.6,4.8c0,0.1,0,0.2-0.2,0.2C5.3,5,5.2,4.9,5.2,4.8c0-0.1,0.1-0.2,0.2-0.2C5.6,4.6,5.6,4.7,5.6,4.8z"/>
</g>
</svg>
