<?xml version="1.0" encoding="utf-8"?>
<!-- Generator: Adobe Illustrator 26.0.1, SVG Export Plug-In . SVG Version: 6.00 Build 0)  -->
<svg version="1.1" id="Layer_1" xmlns="http://www.w3.org/2000/svg" xmlns:xlink="http://www.w3.org/1999/xlink" x="0px" y="0px"
	 viewBox="0 0 10 10" style="enable-background:new 0 0 10 10;" xml:space="preserve">
<style type="text/css">
	.st0{fill:#010101;}
	.st1{fill:#FCCE0C;}
	.st2{fill:#FFFFFF;}
	.st3{fill:#FDDC00;}
	.st4{fill:none;stroke:#010101;stroke-width:1.4728;stroke-miterlimit:10;}
	.st5{fill:none;stroke:#010101;stroke-width:0.9819;stroke-miterlimit:10;}
</style>
<g>
	<path class="st0" d="M9.3,2.4v6.1c0,0,0,0,0,0c0,0,0,0,0,0H6.7c0,0,0,0,0,0c0,0,0,0,0,0c0,0,0,0,0,0c0,0,0,0,0,0V2.4l1.3-1
		c0,0,0,0,0,0c0,0,0,0,0,0L9.3,2.4L9.3,2.4L9.3,2.4z M9.2,8.5V2.4L8,1.4l-1.3,1v6.1H9.2z"/>
	<path class="st1" d="M9.2,2.4v6.1H6.7V2.4l1.3-1L9.2,2.4z M8.7,7.5V7.1c0,0,0,0,0,0c0,0,0,0,0,0H8.1c0,0,0,0,0,0c0,0,0,0,0,0v0.4
		c0,0,0,0,0,0c0,0,0,0,0,0L8.7,7.5C8.7,7.5,8.7,7.5,8.7,7.5C8.7,7.5,8.7,7.5,8.7,7.5z M8.7,6.8V6c0,0,0,0,0,0c0,0,0,0,0,0s0,0,0,0
		c0,0,0,0,0,0H8.1c0,0,0,0,0,0c0,0,0,0,0,0c0,0,0,0,0,0c0,0,0,0,0,0v0.8c0,0,0,0,0,0c0,0,0,0,0,0L8.7,6.8C8.7,6.9,8.7,6.9,8.7,6.8
		C8.7,6.8,8.7,6.8,8.7,6.8L8.7,6.8z M8.7,5.8V4.9c0,0,0,0,0,0c0,0,0,0,0,0H8.1c0,0,0,0,0,0c0,0,0,0,0,0v0.8c0,0,0,0,0,0c0,0,0,0,0,0
		L8.7,5.8C8.7,5.8,8.7,5.8,8.7,5.8C8.7,5.8,8.7,5.8,8.7,5.8z M8.7,4.7V3.9c0,0,0,0,0,0c0,0,0,0,0,0c0,0,0,0,0,0c0,0,0,0,0,0H8.1
		c0,0,0,0,0,0c0,0,0,0,0,0c0,0,0,0,0,0s0,0,0,0v0.8c0,0,0,0,0,0c0,0,0,0,0,0L8.7,4.7C8.7,4.7,8.7,4.7,8.7,4.7
		C8.7,4.7,8.7,4.7,8.7,4.7z M8.7,3.7V2.8c0,0,0,0,0,0c0,0,0,0,0,0H8.1c0,0,0,0,0,0c0,0,0,0,0,0v0.8c0,0,0,0,0,0c0,0,0,0,0,0L8.7,3.7
		C8.7,3.7,8.7,3.7,8.7,3.7C8.7,3.7,8.7,3.7,8.7,3.7z M8.2,2.2c0,0,0-0.1,0-0.1c0,0-0.1-0.1-0.1-0.1c0,0-0.1,0-0.1,0
		c0,0-0.1,0-0.1,0.1c0,0-0.1,0.1-0.1,0.1c0,0,0,0.1,0,0.1c0,0,0,0.1,0.1,0.1c0,0,0.1,0,0.1,0c0,0,0.1,0,0.1,0c0,0,0.1,0,0.1-0.1
		C8.2,2.3,8.2,2.3,8.2,2.2C8.2,2.2,8.2,2.2,8.2,2.2z M7.9,5.8V4.9c0,0,0,0,0,0c0,0,0,0,0,0H7.2c0,0,0,0,0,0c0,0,0,0,0,0v0.8
		c0,0,0,0,0,0c0,0,0,0,0,0c0,0,0,0,0,0c0,0,0,0,0,0L7.9,5.8C7.8,5.8,7.8,5.8,7.9,5.8C7.8,5.8,7.9,5.8,7.9,5.8z M7.9,4.7V3.9
		c0,0,0,0,0,0c0,0,0,0,0,0H7.2c0,0,0,0,0,0c0,0,0,0,0,0c0,0,0,0,0,0c0,0,0,0,0,0v0.8c0,0,0,0,0,0c0,0,0,0,0,0L7.9,4.7
		C7.8,4.7,7.8,4.7,7.9,4.7C7.8,4.7,7.9,4.7,7.9,4.7z M7.9,3.7V2.8c0,0,0,0,0,0c0,0,0,0,0,0H7.2c0,0,0,0,0,0c0,0,0,0,0,0c0,0,0,0,0,0
		c0,0,0,0,0,0v0.8c0,0,0,0,0,0c0,0,0,0,0,0L7.9,3.7C7.8,3.7,7.8,3.7,7.9,3.7C7.8,3.7,7.9,3.7,7.9,3.7z"/>
	<path class="st0" d="M8.7,7.1v0.4c0,0,0,0,0,0c0,0,0,0,0,0H8.1c0,0,0,0,0,0c0,0,0,0,0,0V7.1c0,0,0,0,0,0c0,0,0,0,0,0L8.7,7.1
		C8.7,7,8.7,7,8.7,7.1C8.7,7.1,8.7,7.1,8.7,7.1z M8.7,7.4V7.1H8.1v0.3H8.7z"/>
	<path class="st0" d="M8.7,6v0.8c0,0,0,0,0,0c0,0,0,0,0,0H8.1c0,0,0,0,0,0c0,0,0,0,0,0c0,0,0,0,0,0c0,0,0,0,0,0V6c0,0,0,0,0,0
		c0,0,0,0,0,0c0,0,0,0,0,0c0,0,0,0,0,0L8.7,6C8.7,6,8.7,6,8.7,6C8.7,6,8.7,6,8.7,6C8.7,6,8.7,6,8.7,6C8.7,6,8.7,6,8.7,6z M8.7,6.8V6
		H8.1v0.8H8.7z"/>
	<path class="st0" d="M8.7,4.9v0.8c0,0,0,0,0,0c0,0,0,0,0,0H8.1c0,0,0,0,0,0c0,0,0,0,0,0V4.9c0,0,0,0,0,0c0,0,0,0,0,0L8.7,4.9
		C8.7,4.9,8.7,4.9,8.7,4.9C8.7,4.9,8.7,4.9,8.7,4.9z M8.7,5.7V5H8.1v0.8H8.7z"/>
	<path class="st0" d="M8.7,3.9v0.8c0,0,0,0,0,0c0,0,0,0,0,0H8.1c0,0,0,0,0,0c0,0,0,0,0,0V3.9c0,0,0,0,0,0c0,0,0,0,0,0c0,0,0,0,0,0
		c0,0,0,0,0,0L8.7,3.9C8.7,3.8,8.7,3.8,8.7,3.9C8.7,3.8,8.7,3.8,8.7,3.9C8.7,3.9,8.7,3.9,8.7,3.9C8.7,3.9,8.7,3.9,8.7,3.9z M8.7,4.7
		V3.9H8.1v0.8H8.7z"/>
	<path class="st0" d="M8.7,2.8v0.8c0,0,0,0,0,0c0,0,0,0,0,0H8.1c0,0,0,0,0,0c0,0,0,0,0,0V2.8c0,0,0,0,0,0c0,0,0,0,0,0L8.7,2.8
		C8.7,2.8,8.7,2.8,8.7,2.8C8.7,2.8,8.7,2.8,8.7,2.8z M8.7,3.6V2.9H8.1v0.8L8.7,3.6z"/>
	<path class="st2" d="M8.7,7.1H8.1v0.3h0.5V7.1z"/>
	<path class="st2" d="M8.7,6H8.1v0.8h0.5V6z"/>
	<path class="st2" d="M8.7,5H8.1v0.8h0.5V5z"/>
	<path class="st2" d="M8.7,3.9H8.1v0.8h0.5V3.9z"/>
	<path class="st2" d="M8.7,2.9H8.1v0.8h0.5V2.9z"/>
	<path class="st1" d="M8,1.9c0,0,0.1,0,0.1,0c0,0,0.1,0.1,0.1,0.1c0,0,0,0.1,0,0.1c0,0,0,0.1-0.1,0.1c0,0-0.1,0.1-0.1,0.1
		c0,0-0.1,0-0.1,0c0,0-0.1,0-0.1-0.1c0,0,0-0.1,0-0.1c0,0,0-0.1,0-0.1c0,0,0-0.1,0.1-0.1C7.8,1.9,7.9,1.9,8,1.9z"/>
	<path class="st0" d="M7.9,4.9v0.8c0,0,0,0,0,0c0,0,0,0,0,0H7.2c0,0,0,0,0,0c0,0,0,0,0,0c0,0,0,0,0,0c0,0,0,0,0,0V4.9c0,0,0,0,0,0
		s0,0,0,0L7.9,4.9C7.8,4.9,7.8,4.9,7.9,4.9C7.8,4.9,7.9,4.9,7.9,4.9z M7.8,5.7V5H7.3v0.8H7.8z"/>
	<path class="st0" d="M7.9,3.9v0.8c0,0,0,0,0,0c0,0,0,0,0,0H7.2c0,0,0,0,0,0c0,0,0,0,0,0V3.9c0,0,0,0,0,0c0,0,0,0,0,0c0,0,0,0,0,0
		c0,0,0,0,0,0L7.9,3.9C7.8,3.8,7.8,3.8,7.9,3.9C7.8,3.9,7.9,3.9,7.9,3.9z M7.8,4.7V3.9H7.3v0.8H7.8z"/>
	<path class="st0" d="M7.9,2.8v0.8c0,0,0,0,0,0c0,0,0,0,0,0H7.2c0,0,0,0,0,0c0,0,0,0,0,0V2.8c0,0,0,0,0,0c0,0,0,0,0,0s0,0,0,0
		c0,0,0,0,0,0L7.9,2.8C7.8,2.8,7.8,2.8,7.9,2.8C7.8,2.8,7.9,2.8,7.9,2.8z M7.8,3.6V2.9H7.3v0.8L7.8,3.6z"/>
	<path class="st2" d="M7.8,5H7.3v0.8h0.5V5z"/>
	<path class="st2" d="M7.8,3.9H7.3v0.8h0.5V3.9z"/>
	<path class="st2" d="M7.8,2.9H7.3v0.8h0.5V2.9z"/>
	<path class="st0" d="M5,4.4v4.1c0,0,0,0,0,0c0,0,0,0,0,0H2.6c0,0,0,0,0,0c0,0,0,0,0,0V4.4c0,0,0,0,0,0l0.7-0.8c0,0,0,0,0,0h0.9
		c0,0,0,0,0,0c0,0,0,0,0,0L5,4.4C5,4.4,5,4.4,5,4.4C5,4.4,5,4.4,5,4.4z M5,8.5V4.4H4.1v4.1L5,8.5z M4.9,4.4L4.3,3.6H3.4l0.7,0.8H4.9
		z M4,8.5V4.4L3.4,3.6L2.7,4.4v4.1H4z"/>
	<path class="st3" d="M5,4.4v4.1H4.1V4.4H5z M4.8,7.5V7.1c0,0,0,0,0,0c0,0,0,0,0,0H4.4c0,0,0,0,0,0c0,0,0,0,0,0v0.3c0,0,0,0,0,0
		c0,0,0,0,0,0L4.8,7.5C4.7,7.5,4.8,7.5,4.8,7.5C4.8,7.5,4.8,7.5,4.8,7.5z M4.8,6.9V6.5c0,0,0,0,0,0c0,0,0,0,0,0H4.4c0,0,0,0,0,0
		c0,0,0,0,0,0v0.3c0,0,0,0,0,0c0,0,0,0,0,0L4.8,6.9C4.7,6.9,4.8,6.9,4.8,6.9C4.8,6.9,4.8,6.9,4.8,6.9z M4.8,6.3V5.9c0,0,0,0,0,0
		c0,0,0,0,0,0H4.4c0,0,0,0,0,0c0,0,0,0,0,0v0.3c0,0,0,0,0,0c0,0,0,0,0,0L4.8,6.3C4.7,6.3,4.7,6.3,4.8,6.3C4.8,6.3,4.8,6.3,4.8,6.3
		C4.8,6.3,4.8,6.3,4.8,6.3C4.8,6.3,4.8,6.3,4.8,6.3z M4.8,5.7V5.3c0,0,0,0,0,0c0,0,0,0,0,0H4.4c0,0,0,0,0,0c0,0,0,0,0,0v0.3
		c0,0,0,0,0,0c0,0,0,0,0,0L4.8,5.7C4.7,5.7,4.7,5.7,4.8,5.7C4.8,5.7,4.8,5.7,4.8,5.7C4.8,5.7,4.8,5.7,4.8,5.7
		C4.8,5.7,4.8,5.7,4.8,5.7z M4.8,5.1V4.7c0,0,0,0,0,0s0,0,0,0H4.4c0,0,0,0,0,0c0,0,0,0,0,0v0.3c0,0,0,0,0,0c0,0,0,0,0,0c0,0,0,0,0,0
		c0,0,0,0,0,0L4.8,5.1C4.7,5.1,4.7,5.1,4.8,5.1C4.8,5.1,4.8,5.1,4.8,5.1C4.8,5.1,4.8,5.1,4.8,5.1C4.8,5.1,4.8,5.1,4.8,5.1z"/>
	<path class="st3" d="M4.3,3.6l0.7,0.8H4.1L3.4,3.6H4.3z"/>
	<path class="st0" d="M4.8,7.1v0.3c0,0,0,0,0,0c0,0,0,0,0,0H4.4c0,0,0,0,0,0c0,0,0,0,0,0V7.1c0,0,0,0,0,0c0,0,0,0,0,0L4.8,7.1
		C4.7,7.1,4.8,7.1,4.8,7.1C4.8,7.1,4.8,7.1,4.8,7.1z M4.7,7.5V7.2H4.4v0.3H4.7z"/>
	<path class="st0" d="M4.8,6.5v0.3c0,0,0,0,0,0s0,0,0,0H4.4c0,0,0,0,0,0c0,0,0,0,0,0V6.5c0,0,0,0,0,0c0,0,0,0,0,0L4.8,6.5
		C4.7,6.5,4.8,6.5,4.8,6.5C4.8,6.5,4.8,6.5,4.8,6.5z M4.7,6.9V6.6H4.4v0.3L4.7,6.9z"/>
	<path class="st0" d="M4.8,5.9v0.3c0,0,0,0,0,0c0,0,0,0,0,0H4.4c0,0,0,0,0,0c0,0,0,0,0,0V5.9c0,0,0,0,0,0c0,0,0,0,0,0L4.8,5.9
		C4.7,5.9,4.8,5.9,4.8,5.9C4.8,5.9,4.8,5.9,4.8,5.9z M4.7,6.3V6H4.4v0.3H4.7z"/>
	<path class="st0" d="M4.8,5.3v0.3c0,0,0,0,0,0s0,0,0,0H4.4c0,0,0,0,0,0c0,0,0,0,0,0V5.3c0,0,0,0,0,0c0,0,0,0,0,0L4.8,5.3
		C4.7,5.3,4.8,5.3,4.8,5.3C4.8,5.3,4.8,5.3,4.8,5.3z M4.7,5.6V5.4H4.4v0.3H4.7z"/>
	<path class="st3" d="M4.8,4.7v0.3c0,0,0,0,0,0s0,0,0,0H4.4c0,0,0,0,0,0c0,0,0,0,0,0c0,0,0,0,0,0c0,0,0,0,0,0V4.7c0,0,0,0,0,0
		c0,0,0,0,0,0L4.8,4.7C4.7,4.7,4.8,4.7,4.8,4.7C4.8,4.7,4.8,4.7,4.8,4.7z"/>
	<path class="st2" d="M4.7,7.2H4.4v0.3h0.3V7.2z"/>
	<path class="st2" d="M4.7,6.6H4.4v0.3h0.3V6.6z"/>
	<path class="st2" d="M4.7,6H4.4v0.3h0.3V6z"/>
	<path class="st2" d="M4.7,5.4H4.4v0.3h0.3V5.4z"/>
	<path class="st1" d="M4,4.4v4.1H2.7V4.4l0.7-0.8L4,4.4z M3.8,4.7C3.8,4.7,3.8,4.7,3.8,4.7C3.8,4.7,3.8,4.7,3.8,4.7L3,4.7
		c0,0,0,0,0,0c0,0,0,0,0,0c0,0,0,0,0,0c0,0,0,0,0,0c0,0,0,0,0,0c0,0,0,0,0,0L3.8,4.7C3.8,4.8,3.8,4.8,3.8,4.7
		C3.8,4.7,3.8,4.7,3.8,4.7z M3.8,5C3.8,5,3.8,5,3.8,5C3.8,5,3.8,5,3.8,5L3,5c0,0,0,0,0,0c0,0,0,0,0,0c0,0,0,0,0,0c0,0,0,0,0,0L3.8,5
		C3.8,5.1,3.8,5.1,3.8,5C3.8,5,3.8,5,3.8,5L3.8,5z M3.8,5.3C3.8,5.3,3.8,5.3,3.8,5.3C3.8,5.3,3.8,5.3,3.8,5.3L3,5.3c0,0,0,0,0,0
		c0,0,0,0,0,0s0,0,0,0c0,0,0,0,0,0L3.8,5.3C3.8,5.4,3.8,5.4,3.8,5.3C3.8,5.4,3.8,5.3,3.8,5.3L3.8,5.3z M3.8,5.6
		C3.8,5.6,3.8,5.6,3.8,5.6C3.8,5.6,3.8,5.6,3.8,5.6L3,5.6c0,0,0,0,0,0c0,0,0,0,0,0c0,0,0,0,0,0c0,0,0,0,0,0L3.8,5.6
		C3.8,5.7,3.8,5.7,3.8,5.6C3.8,5.7,3.8,5.6,3.8,5.6L3.8,5.6z M3.8,5.9C3.8,5.9,3.8,5.9,3.8,5.9C3.8,5.9,3.8,5.9,3.8,5.9L3,5.9
		c0,0,0,0,0,0c0,0,0,0,0,0c0,0,0,0,0,0c0,0,0,0,0,0L3.8,5.9C3.8,6,3.8,6,3.8,5.9C3.8,6,3.8,5.9,3.8,5.9L3.8,5.9z M3.8,6.3
		C3.8,6.3,3.8,6.2,3.8,6.3C3.8,6.2,3.8,6.2,3.8,6.3L3,6.2c0,0,0,0,0,0c0,0,0,0,0,0c0,0,0,0,0,0c0,0,0,0,0,0c0,0,0,0,0,0c0,0,0,0,0,0
		L3.8,6.3C3.8,6.3,3.8,6.3,3.8,6.3C3.8,6.3,3.8,6.3,3.8,6.3L3.8,6.3z M3.8,6.6C3.8,6.6,3.8,6.5,3.8,6.6C3.8,6.5,3.8,6.5,3.8,6.6
		L3,6.5c0,0,0,0,0,0c0,0,0,0,0,0c0,0,0,0,0,0c0,0,0,0,0,0L3.8,6.6C3.8,6.6,3.8,6.6,3.8,6.6C3.8,6.6,3.8,6.6,3.8,6.6L3.8,6.6z
		 M3.8,6.9C3.8,6.9,3.8,6.9,3.8,6.9C3.8,6.9,3.8,6.8,3.8,6.9C3.8,6.8,3.8,6.8,3.8,6.9C3.8,6.8,3.8,6.8,3.8,6.9L3,6.8c0,0,0,0,0,0
		c0,0,0,0,0,0c0,0,0,0,0,0c0,0,0,0,0,0L3.8,6.9C3.8,6.9,3.8,6.9,3.8,6.9C3.8,6.9,3.8,6.9,3.8,6.9L3.8,6.9z M3.8,7.2
		C3.8,7.2,3.8,7.2,3.8,7.2C3.8,7.1,3.8,7.1,3.8,7.2L3,7.1c0,0,0,0,0,0c0,0,0,0,0,0c0,0,0,0,0,0c0,0,0,0,0,0L3.8,7.2
		C3.8,7.2,3.8,7.2,3.8,7.2C3.8,7.2,3.8,7.2,3.8,7.2L3.8,7.2z"/>
	<path class="st0" d="M3.8,4.7C3.8,4.7,3.8,4.7,3.8,4.7C3.8,4.7,3.8,4.7,3.8,4.7C3.8,4.7,3.8,4.8,3.8,4.7C3.8,4.8,3.8,4.8,3.8,4.7
		L3,4.8c0,0,0,0,0,0c0,0,0,0,0,0c0,0,0,0,0,0c0,0,0,0,0,0c0,0,0,0,0,0c0,0,0,0,0,0L3.8,4.7z"/>
	<path class="st0" d="M3.8,5C3.8,5,3.8,5,3.8,5C3.8,5,3.8,5,3.8,5C3.8,5,3.8,5.1,3.8,5C3.8,5.1,3.8,5.1,3.8,5L3,5.1c0,0,0,0,0,0
		c0,0,0,0,0,0c0,0,0,0,0,0c0,0,0,0,0,0H3.8z"/>
	<path class="st0" d="M3.8,5.3C3.8,5.3,3.8,5.3,3.8,5.3C3.8,5.3,3.8,5.3,3.8,5.3C3.8,5.3,3.8,5.4,3.8,5.3C3.8,5.4,3.8,5.4,3.8,5.3
		L3,5.4c0,0,0,0,0,0c0,0,0,0,0,0c0,0,0,0,0,0c0,0,0,0,0,0H3.8z"/>
	<path class="st0" d="M3.8,5.6C3.8,5.6,3.8,5.6,3.8,5.6C3.8,5.6,3.8,5.6,3.8,5.6C3.8,5.6,3.8,5.7,3.8,5.6C3.8,5.7,3.8,5.7,3.8,5.6
		L3,5.7c0,0,0,0,0,0c0,0,0,0,0,0c0,0,0,0,0,0c0,0,0,0,0,0H3.8z"/>
	<path class="st0" d="M3.8,6.2C3.8,6.2,3.8,6.2,3.8,6.2C3.8,6.3,3.8,6.3,3.8,6.2C3.8,6.3,3.8,6.3,3.8,6.2C3.8,6.3,3.8,6.3,3.8,6.2
		L3,6.3c0,0,0,0,0,0c0,0,0,0,0,0c0,0,0,0,0,0c0,0,0,0,0,0c0,0,0,0,0,0c0,0,0,0,0,0c0,0,0,0,0,0c0,0,0,0,0,0H3.8z"/>
	<path class="st0" d="M3.8,6.5C3.8,6.5,3.8,6.5,3.8,6.5C3.8,6.6,3.8,6.6,3.8,6.5C3.8,6.6,3.8,6.6,3.8,6.5C3.8,6.6,3.8,6.6,3.8,6.5
		L3,6.6c0,0,0,0,0,0c0,0,0,0,0,0c0,0,0,0,0,0c0,0,0,0,0,0H3.8z"/>
	<path class="st0" d="M7.1,5L7.1,5l0.7,0.9c0,0,0,0,0,0c0,0,0,0,0,0v2.6c0,0,0,0,0,0c0,0,0,0,0,0H5.6c0,0,0,0,0,0c0,0,0,0,0,0
		c0,0,0,0,0,0c0,0,0,0,0,0V5.1c0,0,0,0,0,0c0,0,0,0,0,0L7.1,5L7.1,5z M5.6,5.1v3.4h1.5V5.1H5.6z M7.8,8.5V5.9L7.1,5.2v3.3H7.8z"/>
	<path class="st1" d="M7.8,5.9v2.5H7.1V5.2L7.8,5.9z"/>
	<path class="st1" d="M7.1,5.1v3.4H5.6V5.1H7.1z M6.9,7.7V7.4c0,0,0,0,0,0c0,0,0,0,0,0h-1c0,0,0,0,0,0c0,0,0,0,0,0v0.3c0,0,0,0,0,0
		c0,0,0,0,0,0L6.9,7.7C6.8,7.7,6.8,7.7,6.9,7.7C6.8,7.7,6.8,7.7,6.9,7.7z M6.9,7.2V6.9c0,0,0,0,0,0c0,0,0,0,0,0h-1c0,0,0,0,0,0
		c0,0,0,0,0,0v0.3c0,0,0,0,0,0c0,0,0,0,0,0L6.9,7.2C6.8,7.2,6.8,7.2,6.9,7.2C6.8,7.2,6.9,7.2,6.9,7.2L6.9,7.2z M6.9,6.7V6.4
		c0,0,0,0,0,0c0,0,0,0,0,0h-1c0,0,0,0,0,0c0,0,0,0,0,0v0.3c0,0,0,0,0,0c0,0,0,0,0,0L6.9,6.7C6.8,6.7,6.8,6.7,6.9,6.7
		C6.8,6.7,6.8,6.7,6.9,6.7C6.8,6.7,6.8,6.7,6.9,6.7C6.9,6.7,6.9,6.7,6.9,6.7z M6.9,6.2V5.9c0,0,0,0,0,0c0,0,0,0,0,0h-1c0,0,0,0,0,0
		c0,0,0,0,0,0v0.3c0,0,0,0,0,0c0,0,0,0,0,0c0,0,0,0,0,0c0,0,0,0,0,0L6.9,6.2C6.8,6.2,6.8,6.2,6.9,6.2C6.8,6.2,6.9,6.2,6.9,6.2z
		 M6.9,5.7V5.4c0,0,0,0,0,0c0,0,0,0,0,0h-1c0,0,0,0,0,0c0,0,0,0,0,0v0.3c0,0,0,0,0,0c0,0,0,0,0,0L6.9,5.7C6.8,5.7,6.8,5.7,6.9,5.7
		C6.8,5.7,6.9,5.7,6.9,5.7z"/>
	<path class="st0" d="M6.9,7.4v0.3c0,0,0,0,0,0c0,0,0,0,0,0h-1c0,0,0,0,0,0c0,0,0,0,0,0V7.4c0,0,0,0,0,0c0,0,0,0,0,0L6.9,7.4
		C6.8,7.4,6.8,7.4,6.9,7.4C6.8,7.4,6.8,7.4,6.9,7.4C6.8,7.4,6.8,7.4,6.9,7.4C6.8,7.4,6.9,7.4,6.9,7.4z M6.8,7.6V7.4H5.9v0.2L6.8,7.6
		z"/>
	<path class="st0" d="M6.9,6.9v0.3c0,0,0,0,0,0c0,0,0,0,0,0h-1c0,0,0,0,0,0c0,0,0,0,0,0V6.9c0,0,0,0,0,0c0,0,0,0,0,0L6.9,6.9
		C6.8,6.9,6.8,6.9,6.9,6.9C6.8,6.9,6.9,6.9,6.9,6.9z M6.8,7.1V6.9H5.9v0.2L6.8,7.1z"/>
	<path class="st0" d="M6.9,6.4v0.3c0,0,0,0,0,0c0,0,0,0,0,0h-1c0,0,0,0,0,0c0,0,0,0,0,0V6.4c0,0,0,0,0,0c0,0,0,0,0,0c0,0,0,0,0,0
		c0,0,0,0,0,0L6.9,6.4C6.8,6.4,6.8,6.4,6.9,6.4C6.8,6.4,6.8,6.4,6.9,6.4C6.8,6.4,6.8,6.4,6.9,6.4C6.9,6.4,6.9,6.4,6.9,6.4z M6.8,6.7
		V6.4H5.9v0.2L6.8,6.7z"/>
	<path class="st1" d="M6.9,5.9v0.3c0,0,0,0,0,0c0,0,0,0,0,0h-1c0,0,0,0,0,0c0,0,0,0,0,0c0,0,0,0,0,0c0,0,0,0,0,0V5.9c0,0,0,0,0,0
		c0,0,0,0,0,0L6.9,5.9C6.8,5.9,6.8,5.9,6.9,5.9C6.8,5.9,6.9,5.9,6.9,5.9z M6.8,6.2V5.9H5.9v0.2L6.8,6.2z"/>
	<path class="st0" d="M6.9,5.4v0.3c0,0,0,0,0,0c0,0,0,0,0,0h-1c0,0,0,0,0,0c0,0,0,0,0,0V5.4c0,0,0,0,0,0c0,0,0,0,0,0L6.9,5.4
		C6.8,5.4,6.8,5.4,6.9,5.4C6.8,5.4,6.9,5.4,6.9,5.4z M6.8,5.7V5.4H5.9v0.2L6.8,5.7z"/>
	<path class="st2" d="M6.8,7.4H5.9v0.2h0.9V7.4z"/>
	<path class="st2" d="M6.8,6.9H5.9v0.2h0.9V6.9z"/>
	<path class="st2" d="M6.8,6.4H5.9v0.2h0.9V6.4z"/>
	<path class="st1" d="M6.8,5.9H5.9v0.2h0.9V5.9z"/>
	<path class="st2" d="M6.8,5.4H5.9v0.2h0.9V5.4z"/>
	<path class="st0" d="M9.8,8.5H1.3v0.1L9.8,8.5L9.8,8.5z"/>
	<path class="st1" d="M7.9,2.6L7.7,3H7.4L7,3.5l0.1,0.1l0.4-0.4h0.2L7.9,2.6z"/>
	<path class="st1" d="M7.9,3.8l0.3,0.4l0.2,0l0.5,0.4l0,0.1L8.4,4.3l-0.2,0L7.9,3.8z"/>
	<path class="st3" d="M1.8,7.6c0.3,0,0.6-0.3,0.6-0.6c0-0.3-0.3-0.6-0.6-0.6C1.4,6.4,1.2,6.7,1.2,7C1.2,7.4,1.4,7.6,1.8,7.6z"/>
	<path class="st4" d="M1.8,7.6v0.9"/>
	<path class="st4" d="M1.8,7.6c0.3,0,0.6-0.3,0.6-0.6c0-0.3-0.3-0.6-0.6-0.6C1.4,6.4,1.2,6.7,1.2,7C1.2,7.4,1.4,7.6,1.8,7.6z"/>
	<path class="st0" d="M1.7,7.7V7.4L1.6,7.3c0,0,0,0,0,0c0,0,0,0,0,0c0,0,0,0,0,0c0,0,0,0,0,0c0,0,0,0,0,0c0,0,0,0,0,0c0,0,0,0,0,0
		c0,0,0,0,0,0l0.1,0.1V7.2c0,0,0,0,0,0c0,0,0,0,0,0c0,0,0,0,0,0c0,0,0,0,0,0c0,0,0,0,0,0c0,0,0,0,0,0v0.3l0.1-0.2c0,0,0,0,0,0
		c0,0,0,0,0,0c0,0,0,0,0,0c0,0,0,0,0,0c0,0,0,0,0,0c0,0,0,0,0,0L1.8,7.6L1.7,7.7L1.7,7.7z"/>
	<path class="st5" d="M3.6,3.6l0.7,0.8"/>
	<path class="st5" d="M3.8,3.6l0.7,0.8"/>
	<path class="st5" d="M4,3.6l0.7,0.8"/>
</g>
</svg>
