<?xml version="1.0" encoding="utf-8"?>
<!-- Generator: Adobe Illustrator 26.0.1, SVG Export Plug-In . SVG Version: 6.00 Build 0)  -->
<svg version="1.1" id="Layer_1" xmlns="http://www.w3.org/2000/svg" xmlns:xlink="http://www.w3.org/1999/xlink" x="0px" y="0px"
	 viewBox="0 0 100 100" style="enable-background:new 0 0 100 100;" xml:space="preserve">
<style type="text/css">
	.st0{clip-path:url(#SVGID_00000180328238850759038800000017313794427113462693_);}
	.st1{fill:#4C4B4B;}
</style>
<g>
	<defs>
		<rect id="SVGID_1_" x="9.78" y="9.78" width="80.45" height="80.45"/>
	</defs>
	<clipPath id="SVGID_00000049943030352864779460000009170246137231586732_">
		<use xlink:href="#SVGID_1_"  style="overflow:visible;"/>
	</clipPath>
	<g style="clip-path:url(#SVGID_00000049943030352864779460000009170246137231586732_);">
		<path class="st1" d="M24.55,32.4h3.14v3.14c0,1.3,1.06,2.36,2.36,2.36s2.36-1.06,2.36-2.36V32.4h3.14c1.3,0,2.36-1.06,2.36-2.36
			s-1.06-2.36-2.36-2.36H32.4v-3.14c0-1.3-1.06-2.36-2.36-2.36s-2.36,1.06-2.36,2.36v3.14h-3.14c-1.3,0-2.36,1.06-2.36,2.36
			S23.24,32.4,24.55,32.4z"/>
		<path class="st1" d="M61.16,32.4h9.43c1.3,0,2.36-1.06,2.36-2.36s-1.06-2.36-2.36-2.36h-9.43c-1.3,0-2.36,1.06-2.36,2.36
			S59.85,32.4,61.16,32.4z"/>
		<path class="st1" d="M71.37,67.44h-11c-1.3,0-2.36,1.06-2.36,2.36c0,1.3,1.06,2.36,2.36,2.36h11c1.3,0,2.36-1.06,2.36-2.36
			C73.73,68.5,72.67,67.44,71.37,67.44z"/>
		<path class="st1" d="M71.37,59.58h-11c-1.3,0-2.36,1.06-2.36,2.36c0,1.3,1.06,2.36,2.36,2.36h11c1.3,0,2.36-1.06,2.36-2.36
			C73.73,60.64,72.67,59.58,71.37,59.58z"/>
		<path class="st1" d="M35.64,60.27c-0.92-0.92-2.41-0.92-3.33,0l-2.26,2.26l-2.26-2.26c-0.92-0.92-2.41-0.92-3.33,0
			c-0.92,0.92-0.92,2.41,0,3.33l2.26,2.26l-2.26,2.26c-0.92,0.92-0.92,2.41,0,3.33c0.46,0.46,1.06,0.69,1.67,0.69
			c0.6,0,1.21-0.23,1.67-0.69l2.26-2.26l2.26,2.26c0.46,0.46,1.06,0.69,1.67,0.69c0.6,0,1.21-0.23,1.67-0.69
			c0.92-0.92,0.92-2.41,0-3.33l-2.26-2.26l2.26-2.26C36.56,62.69,36.56,61.2,35.64,60.27z"/>
		<path class="st1" d="M86.14,52.38V16.85c0-3.9-3.17-7.07-7.07-7.07H16.85c-3.9,0-7.07,3.17-7.07,7.07v62.22
			c0,3.9,3.17,7.07,7.07,7.07h35.54c3.86,2.58,8.5,4.09,13.49,4.09c13.43,0,24.35-10.93,24.35-24.35
			C90.22,60.89,88.72,56.25,86.14,52.38z M81.42,16.85v30.3c-4.22-3.51-9.65-5.63-15.55-5.63c-5.91,0-11.33,2.12-15.55,5.63V14.49
			h28.75C80.37,14.49,81.42,15.55,81.42,16.85z M16.85,14.49H45.6V45.6H14.49V16.85C14.49,15.55,15.55,14.49,16.85,14.49z
			 M14.49,79.07V50.31H45.6v2.07c-2.58,3.86-4.09,8.5-4.09,13.49c0,5.91,2.12,11.33,5.63,15.55h-30.3
			C15.55,81.42,14.49,80.37,14.49,79.07z M65.87,85.51c-10.83,0-19.64-8.81-19.64-19.64c0-10.83,8.81-19.64,19.64-19.64
			c10.83,0,19.64,8.81,19.64,19.64C85.51,76.7,76.7,85.51,65.87,85.51z"/>
	</g>
</g>
</svg>
