<?xml version="1.0" encoding="utf-8"?>
<!-- Generator: Adobe Illustrator 26.0.1, SVG Export Plug-In . SVG Version: 6.00 Build 0)  -->
<svg version="1.1" id="Layer_1" xmlns="http://www.w3.org/2000/svg" xmlns:xlink="http://www.w3.org/1999/xlink" x="0px" y="0px"
	 viewBox="0 0 53.6 32.8" style="enable-background:new 0 0 53.6 32.8;" xml:space="preserve">
<style type="text/css">
	.st0{fill:#FFFFFF;}
	.st1{fill:#58C6D2;}
	.st2{fill:#68C5B1;}
	.st3{fill:#6DC499;}
	.st4{fill:#65C6BE;}
	.st5{fill:#3AA5DD;}
	.st6{fill:#6BC4A2;}
	.st7{fill:#25C2E8;}
	.st8{fill:#447ABD;}
	.st9{fill:#63C6C1;}
	.st10{fill:#69C5AF;}
	.st11{fill:#63C6BF;}
	.st12{fill:#4586C7;}
	.st13{fill:#2ABFE8;}
	.st14{fill:#29B8E9;}
	.st15{fill:#2ABCE8;}
	.st16{fill:#4590CD;}
	.st17{fill:#4595D1;}
	.st18{fill:#45C5DD;}
	.st19{fill:#38A9E0;}
	.st20{fill:#32AEE3;}
	.st21{fill:#3DA1DA;}
	.st22{fill:#48C5DC;}
	.st23{fill:#60C7CB;}
</style>
<g>
	<path class="st0" d="M51.7,19.1c-1.1,0.9-2.3,1.7-3.5,2.5c-1.8,1.3-3.5,2.6-5.3,3.9c-1.3,0.9-2.5,1.8-3.8,2.7c0,0,0,0,0,0
		c0,0,0,0,0,0c-1.4,1.2-3,2.3-4.5,3.3c-0.6,0.4-1.4,0.6-2.1,0.5c-1.6-0.1-2.7-1-3.2-2.5c-0.4-1.4-0.1-2.8,1-3.7
		c2.1-1.7,4.3-3.2,6.5-4.8c1.8-1.3,3.6-2.7,5.5-4c0.9-0.6,0.9-0.6,0-1.2c-1.1-0.8-2.1-1.6-3.2-2.4c-2.1-1.4-4.1-2.9-6.1-4.5
		c-0.2-0.1-0.3-0.2-0.5-0.3c-1.2-0.8-1.2-0.8-1.8,0.6c-2.4,5.5-4.7,11-7.1,16.5c-0.1,0.2-0.2,0.4-0.3,0.6c-0.3,0.7-0.7,0.8-1.3,0.3
		c-0.3-0.2-0.7-0.4-0.9-0.7c-1.3-0.9-2.6-1.8-3.8-2.8c-1.4-1-2.9-2-4.2-3.1c-1.2-0.9-2.5-1.7-3.7-2.6c-0.7-0.5-0.7-1.3,0-1.7
		c2.1-1.6,4.2-3.1,6.3-4.6c1.3-1.1,2.8-2.1,4.2-3.1c0.6-0.5,1.2-0.9,1.9-1.4c1.9-1.4,1.8-3.2-0.3-4.3c-1.1-0.2-2,0.3-2.8,1
		c-0.3,0.2-0.6,0.4-0.9,0.6c-1.4,1.1-2.9,2.1-4.3,3.2c-1.3,1-2.7,1.9-4,2.9C8,10.8,6.6,12,5.1,12.9c-0.6,0.5-1.2,1-1.8,1.5
		c-1.8,1.3-1.7,3.2,0.3,4.4c1.5,1,3,2.1,4.4,3.3c1.5,0.8,2.7,1.9,4,2.9c1.4,0.9,2.7,1.9,4,2.9c1.1,0.8,2.3,1.6,3.4,2.4
		c0.4,0.3,0.7,0.6,0.3,1.1c-0.3,0.5-0.7,0.3-1.1,0c-1-0.7-1.9-1.4-2.9-2.2c-1.4-1-2.8-2-4.2-3.1c-1.4-0.9-2.8-1.9-4-3
		c-1.5-1-2.9-2-4.3-3.1c-1.4-0.8-2.3-1.8-2.3-3.5c0-1.1,0.4-2,1.3-2.7c0.9-0.7,1.8-1.3,2.7-2c1.5-1.1,3-2.2,4.5-3.3
		c1.4-1.1,2.8-2.2,4.3-3.2c1.2-1,2.5-2,3.8-2.8c1-0.9,2-1.6,3.3-1.7c0.5,0,1,0.1,1.4,0.4c1.3,0.3,1.9,1.2,2.2,2.3
		c0.4,1.3,0.1,2.5-0.9,3.4c-0.9,0.9-2.1,1.6-3.2,2.4c-1.4,1.1-2.9,2.1-4.4,3.2c-1.6,1.2-3.2,2.4-4.8,3.5c-0.5,0.4-0.5,0.6,0,1
		c0.9,0.6,1.7,1.3,2.6,1.9c1.4,0.9,2.8,2,4.2,3c1.3,1,2.7,2,4,2.9c0.5,0.3,0.6-0.1,0.8-0.4c1.4-3.1,2.7-6.3,4.1-9.4
		c1.1-2.7,2.3-5.4,3.5-8c0.4-1,0.8-1.1,1.7-0.4c0.5,0.4,1.1,0.6,1.5,1.2c2.1,1.4,4.2,3,6.3,4.5c1.5,1.1,3,2.1,4.5,3.2
		c0.8,0.6,0.8,1.3,0.1,1.9c-2.6,1.9-5.2,3.8-7.8,5.7c-1.5,1.1-2.9,2.2-4.4,3.3c-0.9,0.7-1.5,1.4-1.3,2.6c0.2,1.1,1,1.6,2,1.9
		c1,0,1.7-0.6,2.5-1.1c1.8-1.3,3.7-2.6,5.5-4c2.3-1.7,4.7-3.4,7-5.1c1-0.8,2.1-1.6,3.1-2.3c1.4-1.1,1.4-2.7,0-3.7
		c-1-0.8-2.1-1.6-3.1-2.3c-2-1.3-3.9-2.7-5.8-4.2c-1.4-1-2.8-2-4.2-3.1c-1.1-0.8-2.2-1.6-3.3-2.4c-0.4-0.3-0.5-0.6-0.2-1.1
		c0.3-0.4,0.6-0.3,1,0c0.9,0.7,1.8,1.3,2.7,2c1.6,1.1,3.2,2.3,4.7,3.5c1.9,1.4,3.9,2.7,5.7,4.2c1.3,0.8,2.5,1.7,3.6,2.7
		C53.3,15.2,53.3,17.7,51.7,19.1z"/>
	<path class="st1" d="M32.9,8.9c-0.2-0.1-0.3-0.2-0.5-0.3c-1.2-0.8-1.2-0.8-1.8,0.6c-2.4,5.5-4.7,11-7.1,16.5
		c-0.1,0.2-0.2,0.4-0.3,0.6c-0.3,0.7-0.7,0.8-1.3,0.3c-0.3-0.2-0.7-0.4-0.9-0.7c0-0.5,0.4-0.7,0.7-1c0.5,0.3,0.6-0.1,0.8-0.4
		c1.4-3.1,2.7-6.3,4.1-9.4c1.1-2.7,2.3-5.4,3.5-8c0.4-1,0.8-1.1,1.7-0.4c0.5,0.4,1.1,0.6,1.5,1.2C33.6,8.2,33.4,8.6,32.9,8.9z"/>
	<path class="st2" d="M44.1,17.3c-2.6,1.9-5.2,3.8-7.8,5.7c-0.7,0.1-0.4-0.4-0.3-0.6c0.2-0.4,0.6-0.9,0.8-1.3c1.8-1.3,3.6-2.7,5.5-4
		c0.9-0.6,0.9-0.6,0-1.2c-1.1-0.8-2.1-1.6-3.2-2.4c-0.2-0.6,0.1-0.9,0.5-1.2c1.5,1.1,3,2.1,4.5,3.2C44.8,16,44.9,16.7,44.1,17.3z"/>
	<path class="st3" d="M51.7,19.1c-1.1,0.9-2.3,1.7-3.5,2.5c-0.8,0-0.9-0.2-0.7-1c1-0.8,2.1-1.6,3.1-2.3c1.4-1.1,1.4-2.7,0-3.7
		c-1-0.8-2.1-1.6-3.1-2.3c-0.3-0.7,0.1-0.9,0.7-1c1.3,0.8,2.5,1.7,3.6,2.7C53.3,15.2,53.3,17.7,51.7,19.1z"/>
	<path class="st4" d="M36.3,22.2c-0.1,0.1-0.6,0.5,0,0.7c-1.5,1.1-2.9,2.2-4.4,3.3c-0.9,0.7-1.5,1.4-1.3,2.6c0.2,1.1,1,1.6,2,1.9
		c-0.4,0.4-0.1,0.8,0,1.2c-1.6-0.1-2.7-1-3.2-2.5c-0.4-1.4-0.1-2.8,1-3.7c2.1-1.7,4.3-3.2,6.5-4.8C36.8,21.5,36.8,21.9,36.3,22.2z"
		/>
	<path class="st5" d="M11.1,16.9c0.9,0.6,1.7,1.3,2.6,1.9c0.2,0.6-0.1,0.9-0.6,1.1c-1.2-0.9-2.5-1.7-3.7-2.6c-0.7-0.5-0.7-1.3,0-1.7
		c2.1-1.6,4.2-3.1,6.3-4.6c0.6,0.4,0.5,0.9,0.2,1.4c-1.6,1.2-3.2,2.4-4.8,3.5C10.5,16.3,10.5,16.5,11.1,16.9z"/>
	<path class="st6" d="M48.2,21.6c-1.8,1.3-3.5,2.6-5.3,3.9c-1.3,0.9-2.5,1.8-3.8,2.7c0,0,0,0,0,0c-0.4-0.5-0.1-0.9,0.3-1.2
		c0.5-0.4,0.8-0.8,1-1.3c2.3-1.7,4.7-3.4,7-5.1C47.5,21.1,47.6,21.5,48.2,21.6z"/>
	<path class="st7" d="M23.4,6.8c-0.9,0.9-2.1,1.6-3.2,2.4c-0.3-0.4-0.3-0.9-0.3-1.4c0.6-0.5,1.2-0.9,1.9-1.4
		c1.9-1.4,1.8-3.2-0.3-4.3c0.1-0.4,0.2-0.9,0.7-1c1.3,0.3,1.9,1.2,2.2,2.3C24.7,4.6,24.4,5.9,23.4,6.8z"/>
	<path class="st2" d="M39.7,27c-0.5,0.2-0.8,0.6-0.7,1.2c0,0,0,0,0,0c-1.4,1.2-3,2.3-4.5,3.3c-0.6,0.4-1.4,0.6-2.1,0.5
		c-0.7-0.5-0.7-0.9,0-1.2c1,0,1.7-0.6,2.5-1.1c1.8-1.3,3.7-2.6,5.5-4C40.5,26.3,40.3,26.7,39.7,27z"/>
	<path class="st8" d="M3.5,18.7c0.2,0.6,0.2,1-0.5,1.2c-1.4-0.8-2.3-1.8-2.3-3.5c0-1.1,0.4-2,1.3-2.7c0.9-0.7,1.8-1.3,2.7-2
		c0.7,0.2,0.6,0.7,0.4,1.2c-0.6,0.5-1.2,1-1.8,1.5C1.4,15.6,1.5,17.5,3.5,18.7z"/>
	<path class="st9" d="M39.6,12.2c-0.2,0.4-0.3,0.8-0.5,1.2c-2.1-1.4-4.1-2.9-6.1-4.5c0.2-0.4,0.4-0.8,0.4-1.3
		C35.5,9.1,37.5,10.6,39.6,12.2z"/>
	<path class="st10" d="M48.1,11.1c-0.3,0.3-0.8,0.5-0.7,1c-2-1.3-3.9-2.7-5.8-4.2c-0.1-0.6,0.2-0.9,0.7-1
		C44.3,8.3,46.3,9.6,48.1,11.1z"/>
	<path class="st11" d="M42.4,6.9c-0.3,0.4-0.5,0.7-0.7,1c-1.4-1-2.8-2-4.2-3.1c-0.1-0.2-0.3-0.4-0.4-0.6c-0.2-0.5,0-0.8,0.6-0.8
		C39.3,4.6,40.9,5.7,42.4,6.9z"/>
	<path class="st12" d="M9.4,9.7L9.4,9.7C8,10.8,6.6,12,5.1,12.9c0-0.4,0-0.9-0.4-1.2c1.5-1.1,3-2.2,4.5-3.3
		C10.1,8.6,10.1,8.8,9.4,9.7z"/>
	<path class="st13" d="M16.3,28.7c-0.1,0.3-0.3,0.5-0.7,0.3c-1.4-1-2.8-2-4.2-3.1c-0.2-0.6,0.1-0.9,0.6-1.1c1.4,0.9,2.7,1.9,4,2.9
		C16.1,28,16.5,28.3,16.3,28.7z"/>
	<path class="st14" d="M20.2,9.2c-1.4,1.1-2.9,2.1-4.4,3.2c0.1-0.5,0.1-1-0.2-1.4c1.3-1.1,2.8-2.1,4.2-3.1
		C20.3,8.2,20.2,8.7,20.2,9.2z"/>
	<path class="st15" d="M17.2,23c-1.4-1-2.9-2-4.2-3.1c0.1-0.4,0.5-0.7,0.6-1.1c1.4,0.9,2.8,2,4.2,3C18,22.4,17.9,22.8,17.2,23z"/>
	<path class="st16" d="M7.3,23c-1.5-1-2.9-2-4.3-3.1c0.4-0.3,0.5-0.7,0.5-1.2c1.5,1,3,2.1,4.4,3.3C7.9,22.4,7.9,22.9,7.3,23z"/>
	<path class="st17" d="M13.5,6.8c-1.3,1-2.7,1.9-4,2.9v0c0-0.5,0.7-1-0.2-1.4c1.4-1.1,2.8-2.2,4.3-3.2C14.4,5.8,13.6,6.3,13.5,6.8z"
		/>
	<path class="st18" d="M21.8,24.7c0,0.5-0.5,0.7-0.7,1c-1.3-0.9-2.6-1.8-3.8-2.8c0.3-0.3,0.5-0.7,0.5-1.2
		C19.1,22.8,20.5,23.8,21.8,24.7z"/>
	<path class="st19" d="M11.9,24.8c-0.2,0.4-0.5,0.7-0.6,1.1c-1.4-0.9-2.8-1.9-4-3c0.4-0.2,0.3-0.7,0.6-1
		C9.3,22.7,10.6,23.8,11.9,24.8z"/>
	<path class="st20" d="M22.1,1.1c-0.3,0.3-0.3,0.8-0.7,1c-1.1-0.2-2,0.3-2.8,1c-0.3,0.2-0.6,0.4-0.9,0.6c-0.5-0.3-0.6-0.7-0.4-1.3
		c1-0.9,2-1.6,3.3-1.7C21.2,0.7,21.7,0.8,22.1,1.1z"/>
	<path class="st21" d="M17.8,3.6c-1.4,1.1-2.9,2.1-4.3,3.2c-0.2-0.6,0.6-1.1,0.1-1.7c1.2-1,2.5-2,3.8-2.8
		C17.4,2.8,17.6,3.2,17.8,3.6z"/>
	<path class="st22" d="M19.6,31.2c-0.3,0.5-0.7,0.3-1.1,0c-1-0.7-1.9-1.4-2.9-2.2c1.1-0.2,0.4-0.9,0.3-1.4c1.1,0.8,2.3,1.6,3.4,2.4
		C19.6,30.4,19.9,30.8,19.6,31.2z"/>
	<path class="st23" d="M37.3,4.3c0.1,0.2,0.2,0.4,0.2,0.6c-1.1-0.8-2.2-1.6-3.3-2.4c-0.4-0.3-0.5-0.6-0.2-1.1c0.3-0.4,0.6-0.3,1,0
		c0.9,0.7,1.8,1.3,2.7,2C37.1,3.6,37,3.9,37.3,4.3z"/>
</g>
</svg>
