<?xml version="1.0" encoding="utf-8"?>
<!-- Generator: Adobe Illustrator 26.0.1, SVG Export Plug-In . SVG Version: 6.00 Build 0)  -->
<svg version="1.1" id="Layer_1" xmlns="http://www.w3.org/2000/svg" xmlns:xlink="http://www.w3.org/1999/xlink" x="0px" y="0px"
	 viewBox="0 0 100 100" style="enable-background:new 0 0 100 100;" xml:space="preserve">
<style type="text/css">
	.st0{fill:#FFFDF6;}
	.st1{fill:#FFFAE6;}
	.st2{fill:#FFFDF3;}
	.st3{fill:#FCD110;}
	.st4{fill:#FEE05A;}
	.st5{fill:#FEE160;}
	.st6{fill:#FDDA39;}
	.st7{fill:#FEE05E;}
	.st8{fill:#FEE161;}
	.st9{fill:#FEE265;}
	.st10{fill:#FEE05D;}
	.st11{fill:#FEDF53;}
	.st12{fill:#FEE05C;}
	.st13{fill:#FEE263;}
	.st14{fill:#FDE05C;}
	.st15{fill:#FEE264;}
	.st16{fill:#FEE059;}
	.st17{fill:#FEE15D;}
	.st18{fill:#FEDE4F;}
	.st19{fill:#FDE056;}
	.st20{fill:#FDDF52;}
	.st21{fill:#FDE15D;}
	.st22{fill:#FDDD49;}
	.st23{fill:#FDDF40;}
	.st24{fill:#FDE058;}
	.st25{fill:#FDDF50;}
	.st26{fill:#FDE15C;}
	.st27{fill:#FDE157;}
	.st28{fill:#FDDD39;}
	.st29{fill:#FDDF4B;}
	.st30{fill:#FDE054;}
	.st31{fill:#FDE155;}
	.st32{fill:#FDDD33;}
	.st33{fill:#FCCF0B;}
	.st34{fill:#FCD11C;}
	.st35{fill:#FFFBEE;}
	.st36{fill:#FFFAE8;}
	.st37{fill:#FFF9E3;}
	.st38{fill:#FCD326;}
	.st39{fill:#FDDC58;}
	.st40{fill:#FCD637;}
</style>
<g>
	<path class="st0" d="M36.69,57.8c-1.2,1.05-1.2,2.12,0,3.17C39.03,59.92,39.01,58.85,36.69,57.8z M36.69,57.8
		c-1.2,1.05-1.2,2.12,0,3.17C39.03,59.92,39.01,58.85,36.69,57.8z M36.69,57.8c-1.2,1.05-1.2,2.12,0,3.17
		C39.03,59.92,39.01,58.85,36.69,57.8z M45.44,58.07c-0.78,0.11-1.3,0.78-1.07,1.58c0.15,0.45,0.75,1.05,1.16,1.07
		c0.75,0.03,1.31-0.49,1.29-1.38C46.75,58.5,46.26,57.94,45.44,58.07z M53.84,57.98c-0.94,0.11-1.62,0.71-1.34,1.72
		c0.18,0.69,0.76,1.31,1.57,1.11c0.69-0.18,1.24-0.67,1.22-1.53C55.04,58.58,54.67,57.89,53.84,57.98z M53.84,57.98
		c-0.94,0.11-1.62,0.71-1.34,1.72c0.18,0.69,0.76,1.31,1.57,1.11c0.69-0.18,1.24-0.67,1.22-1.53
		C55.04,58.58,54.67,57.89,53.84,57.98z M45.44,58.07c-0.78,0.11-1.3,0.78-1.07,1.58c0.15,0.45,0.75,1.05,1.16,1.07
		c0.75,0.03,1.31-0.49,1.29-1.38C46.75,58.5,46.26,57.94,45.44,58.07z M36.69,57.8c-1.2,1.05-1.2,2.12,0,3.17
		C39.03,59.92,39.01,58.85,36.69,57.8z M36.69,57.8c-1.2,1.05-1.2,2.12,0,3.17C39.03,59.92,39.01,58.85,36.69,57.8z M45.44,58.07
		c-0.78,0.11-1.3,0.78-1.07,1.58c0.15,0.45,0.75,1.05,1.16,1.07c0.75,0.03,1.31-0.49,1.29-1.38C46.75,58.5,46.26,57.94,45.44,58.07z
		 M46.88,46.39c2.91,0.45,5.81,0.31,8.72,0.02C52.7,44.76,49.8,43.31,46.88,46.39z M53.84,57.98c-0.94,0.11-1.62,0.71-1.34,1.72
		c0.18,0.69,0.76,1.31,1.57,1.11c0.69-0.18,1.24-0.67,1.22-1.53C55.04,58.58,54.67,57.89,53.84,57.98z M46.88,70.86v0.01
		c0.01,0,0.01,0,0.02,0.01c2.91,0.91,5.82,0.17,8.72,0.01C52.71,70.88,49.79,70.87,46.88,70.86z M53.84,57.98
		c-0.94,0.11-1.62,0.71-1.34,1.72c0.18,0.69,0.76,1.31,1.57,1.11c0.69-0.18,1.24-0.67,1.22-1.53
		C55.04,58.58,54.67,57.89,53.84,57.98z M45.44,58.07c-0.78,0.11-1.3,0.78-1.07,1.58c0.15,0.45,0.75,1.05,1.16,1.07
		c0.75,0.03,1.31-0.49,1.29-1.38C46.75,58.5,46.26,57.94,45.44,58.07z M36.69,57.8c-1.2,1.05-1.2,2.12,0,3.17
		C39.03,59.92,39.01,58.85,36.69,57.8z M70.28,64.78c-0.34-4.15-0.21-8.38-0.01-12.57c0.1-2.66-0.78-3.48-3.45-3.48
		c-19.98,0.09-39.98,0.11-59.96,0c-2.76-0.02-3.46,1-3.37,3.56c0.18,4.33,0.2,8.68,0,13.01c-0.15,2.85,0.8,3.72,3.66,3.67
		C17,68.8,26.86,68.91,36.7,68.91c9.7,0,19.4-0.11,29.11,0.06C69,69.02,70.59,68.48,70.28,64.78z M17.78,57.91
		c1.19,0.52-1.65,0.76-1.94,1.83c0.38,1.18,2.42,0.02,2.5,2.03c-1.54,0.56-3.7,1.16-4.35-0.44c-0.77-1.85-0.8-4.44-0.09-6.32
		c0.67-1.87,2.86-0.89,4.07-0.71C20.3,55.91,12.34,55.53,17.78,57.91z M25.75,61.86c-0.79,0.69-2.5,0.98-3.68,0.2
		c-2.12-1.42-1.32-3.41-0.99-5.5c2.53,0.58,0.61,3.03,2.48,4.03c2.21-0.09,0.43-2.99,2.47-4.08C26.68,58.58,27.31,60.48,25.75,61.86
		z M31.16,58.79c-0.37,1.02-0.73,2.02-1.2,3.4c-1.56-1.75-1.56-3.94-0.6-4.97C30.49,56.02,31.9,56.66,31.16,58.79z M39.71,60.93
		c-0.99,1.51-2.46,1.87-4.11,0.98c-2.23-1.7-2.49-3.41-0.02-5.11c1.67-1.21,3.01-0.51,4.06,0.87
		C40.39,58.65,40.35,59.96,39.71,60.93z M46.22,62.22c-2.19-0.22-1.7,1.83-3.17,2.5c-1.05-1.94-0.43-3.68-0.63-5.33
		c-0.2-1.83,0.21-2.9,2.48-2.92c1.79-0.01,3.25,0.15,3.68,2.03C49.02,60.43,48.29,62.44,46.22,62.22z M54.18,62.33
		c-2.17,0.16-3.39-0.8-3.46-2.83c-0.05-1.97,0.96-3.35,3.15-3.17c1.73,0.14,3.79,0.07,3.09,2.7C57.52,61.53,56.29,62.19,54.18,62.33
		z M60.44,62.31c-0.31,0-0.78-0.38-0.91-0.7c-0.27-0.62,0.16-1.04,0.69-1.27c0.67-0.02,1.16,0.23,1.23,0.88
		C61.53,61.91,61,62.28,60.44,62.31z M53.84,57.98c-0.94,0.11-1.62,0.71-1.34,1.72c0.18,0.69,0.76,1.31,1.57,1.11
		c0.69-0.18,1.24-0.67,1.22-1.53C55.04,58.58,54.67,57.89,53.84,57.98z M45.44,58.07c-0.78,0.11-1.3,0.78-1.07,1.58
		c0.15,0.45,0.75,1.05,1.16,1.07c0.75,0.03,1.31-0.49,1.29-1.38C46.75,58.5,46.26,57.94,45.44,58.07z M36.69,57.8
		c-1.2,1.05-1.2,2.12,0,3.17C39.03,59.92,39.01,58.85,36.69,57.8z M36.69,57.8c-1.2,1.05-1.2,2.12,0,3.17
		C39.03,59.92,39.01,58.85,36.69,57.8z M45.44,58.07c-0.78,0.11-1.3,0.78-1.07,1.58c0.15,0.45,0.75,1.05,1.16,1.07
		c0.75,0.03,1.31-0.49,1.29-1.38C46.75,58.5,46.26,57.94,45.44,58.07z M53.84,57.98c-0.94,0.11-1.62,0.71-1.34,1.72
		c0.18,0.69,0.76,1.31,1.57,1.11c0.69-0.18,1.24-0.67,1.22-1.53C55.04,58.58,54.67,57.89,53.84,57.98z M53.84,57.98
		c-0.94,0.11-1.62,0.71-1.34,1.72c0.18,0.69,0.76,1.31,1.57,1.11c0.69-0.18,1.24-0.67,1.22-1.53
		C55.04,58.58,54.67,57.89,53.84,57.98z M45.44,58.07c-0.78,0.11-1.3,0.78-1.07,1.58c0.15,0.45,0.75,1.05,1.16,1.07
		c0.75,0.03,1.31-0.49,1.29-1.38C46.75,58.5,46.26,57.94,45.44,58.07z M36.69,57.8c-1.2,1.05-1.2,2.12,0,3.17
		C39.03,59.92,39.01,58.85,36.69,57.8z M36.69,57.8c-1.2,1.05-1.2,2.12,0,3.17C39.03,59.92,39.01,58.85,36.69,57.8z M45.44,58.07
		c-0.78,0.11-1.3,0.78-1.07,1.58c0.15,0.45,0.75,1.05,1.16,1.07c0.75,0.03,1.31-0.49,1.29-1.38C46.75,58.5,46.26,57.94,45.44,58.07z
		 M45.44,58.07c-0.78,0.11-1.3,0.78-1.07,1.58c0.15,0.45,0.75,1.05,1.16,1.07c0.75,0.03,1.31-0.49,1.29-1.38
		C46.75,58.5,46.26,57.94,45.44,58.07z M36.69,57.8c-1.2,1.05-1.2,2.12,0,3.17C39.03,59.92,39.01,58.85,36.69,57.8z M36.69,57.8
		c-1.2,1.05-1.2,2.12,0,3.17C39.03,59.92,39.01,58.85,36.69,57.8z M36.69,57.8c-1.2,1.05-1.2,2.12,0,3.17
		C39.03,59.92,39.01,58.85,36.69,57.8z"/>
	<path class="st1" d="M89.41,46.56c-11.28,0.21-22.53-0.06-33.81-0.15c-2.91,0.29-5.81,0.43-8.72-0.02
		c-2.74,0.09-5.48,0.24-8.22,0.24c-11.11,0.03-22.23,0.09-33.34,0c-2.76-0.04-3.83,0.71-3.7,3.64c0.24,5.5,0.27,10.99-0.02,16.47
		c-0.16,3.28,0.89,4.09,4.1,4.06c13.73-0.13,27.45,0.02,41.18,0.07v-0.01c2.91,0.01,5.83,0.02,8.74,0.03
		c10.31-0.11,20.61-0.22,30.91-0.35c-0.02-0.41-0.04-0.85-0.04-1.27c-3.82-0.78-7.7-0.27-11.56-0.32c-1.94-0.02-2.89-0.42-2.83-2.63
		c0.12-5.06,0.09-10.12,0.01-15.18c-0.03-1.88,0.68-2.57,2.53-2.54c3.62,0.08,7.23,0.02,10.86,0.02c6.69,0,6.56,0,6.74,6.58
		c0.09,2.62-0.98,5.52,1.29,8.69c0.92-4.68,0.16-8.59,0.56-12.42C94.49,47.75,93.38,46.48,89.41,46.56z M65.81,68.97
		C56.1,68.8,46.4,68.91,36.7,68.91c-9.84,0-19.7-0.11-29.55,0.06c-2.86,0.05-3.81-0.82-3.66-3.67c0.2-4.33,0.18-8.68,0-13.01
		c-0.09-2.56,0.61-3.58,3.37-3.56c19.98,0.11,39.98,0.09,59.96,0c2.67,0,3.55,0.82,3.45,3.48c-0.2,4.19-0.33,8.42,0.01,12.57
		C70.59,68.48,69,69.02,65.81,68.97z"/>
	<path class="st2" d="M81.6,65.31c-3.75,1.05-4.96-0.98-4.63-5.07c0.28-3.46,2.98-8.28,5.21-8.47c2.35-0.2,5.63,5.02,5.62,8.93
		C87.79,65.32,87.79,65.32,81.6,65.31z"/>
	<path class="st3" d="M55.6,46.41c-2.91,0.29-5.81,0.43-8.72-0.02c-0.44-1.26,0.12-3.04-1.85-3.51c-0.89-0.21-2.5-0.03-1.72-1.6
		c0.61-1.23,2.51-1.85,3.39-1.1C49.49,42.54,54.45,41.81,55.6,46.41z"/>
	<path class="st1" d="M93.45,74.49c-1.18-2.36-1.79-4.37-4.59-4.77c2.77-0.32,3.55-2.04,3.91-4.88c1.68,2.13,1.78,4.86,5.63,4.13
		C95.99,71.09,93.02,71.03,93.45,74.49z"/>
	<path class="st4" d="M21.9,31.23c-0.23,0.93-0.83,1.62-1.75,1.66c-1.21,0.06-1.87-0.72-1.73-1.92c0.12-1,0.93-1.46,1.85-1.43
		C21.27,29.57,21.77,30.27,21.9,31.23z"/>
	<path class="st5" d="M25.14,28.51c-1.01-0.09-1.54-0.73-1.53-1.65c0-0.96,0.66-1.52,1.61-1.57c1.07-0.06,1.51,0.67,1.49,1.59
		C26.68,27.81,26.14,28.43,25.14,28.51z"/>
	<path class="st6" d="M55.62,70.89c-2.9,0.69-5.82,2.39-8.72-0.01c-0.01-0.01-0.01-0.01-0.02-0.01v-0.01
		C49.79,70.87,52.71,70.88,55.62,70.89z"/>
	<path class="st4" d="M30.92,24.83c-0.78-0.18-1.28-0.63-1.22-1.47c0.07-0.85,0.64-1.25,1.44-1.24c1.03,0.01,1.67,0.56,1.43,1.61
		C32.4,24.45,31.72,24.81,30.92,24.83z"/>
	<path class="st7" d="M37.37,22.45c-0.84-0.04-1.34-0.51-1.37-1.32c-0.03-0.83,0.47-1.35,1.29-1.38c0.84-0.04,1.34,0.48,1.39,1.29
		C38.72,21.89,38.16,22.3,37.37,22.45z"/>
	<path class="st8" d="M35.18,27.03c-0.77-0.17-1.26-0.62-1.13-1.44c0.12-0.75,0.56-1.31,1.41-1.12c0.72,0.17,1.28,0.67,1.2,1.46
		C36.57,26.73,35.97,27.07,35.18,27.03z"/>
	<path class="st9" d="M29.99,29.66c-0.85-0.17-1.31-0.63-1.18-1.45c0.11-0.76,0.55-1.32,1.41-1.13c0.72,0.16,1.3,0.65,1.2,1.46
		C31.32,29.33,30.72,29.67,29.99,29.66z"/>
	<path class="st10" d="M51.89,19.15c0.05,1.09-0.3,1.71-1.1,1.66c-0.39-0.02-0.95-0.59-1.06-1c-0.19-0.75,0.29-1.4,1.08-1.39
		C51.22,18.42,51.63,18.96,51.89,19.15z"/>
	<path class="st8" d="M43.96,20.93c-0.68-0.13-1.16-0.45-1.15-1.08c0.02-0.82,0.56-1.32,1.36-1.11c0.43,0.11,1.03,0.64,1.06,1.02
		C45.3,20.55,44.66,20.92,43.96,20.93z"/>
	<path class="st11" d="M51.14,27.33c-0.1,0.61-0.41,1.11-1.06,1.07c-0.62-0.04-1.02-0.51-1.04-1.13c-0.03-0.84,0.46-1.35,1.31-1.23
		C50.99,26.14,51.16,26.72,51.14,27.33z"/>
	<path class="st12" d="M39.65,26.97c0.26,0.3,0.76,0.64,0.88,1.08c0.2,0.75-0.18,1.4-1.02,1.49c-0.62,0.06-1.08-0.36-1.15-0.96
		C38.28,27.82,38.58,27.22,39.65,26.97z"/>
	<path class="st13" d="M42.3,24.17c-0.09,0.61-0.44,1.03-1.05,1.03c-0.61,0-1.04-0.42-1.04-1.03c0-0.61,0.43-1.03,1.04-1.03
		C41.86,23.13,42.22,23.56,42.3,24.17z"/>
	<path class="st5" d="M44.95,28.48c-0.93,0.02-1.4-0.36-1.34-0.94c0.05-0.46,0.4-1.11,0.78-1.26c0.82-0.32,1.36,0.22,1.26,1.05
		C45.6,27.78,45.15,28.19,44.95,28.48z"/>
	<path class="st12" d="M47.13,31.25c-0.66-0.19-0.99-0.65-0.71-1.27c0.14-0.32,0.6-0.68,0.93-0.7c0.65-0.04,1.03,0.45,0.98,1.1
		C48.29,31.08,47.77,31.28,47.13,31.25z"/>
	<path class="st14" d="M58.6,21.12c-0.25,0.17-0.56,0.56-0.89,0.58c-0.66,0.04-1.08-0.45-0.97-1.09c0.05-0.31,0.52-0.76,0.81-0.77
		C58.18,19.82,58.54,20.29,58.6,21.12z"/>
	<path class="st15" d="M47.34,22.44c0.66-0.03,1.06,0.33,1.04,0.96c-0.01,0.63-0.47,1.03-1.08,0.95c-0.31-0.04-0.75-0.42-0.82-0.71
		C46.36,23.05,46.74,22.62,47.34,22.44z"/>
	<path class="st8" d="M53.3,23.12c0.61-0.01,1.1,0.19,1.15,0.85c0.05,0.62-0.28,1.1-0.92,1.04c-0.32-0.03-0.73-0.4-0.89-0.71
		C52.34,23.7,52.64,23.28,53.3,23.12z"/>
	<path class="st16" d="M59.6,26.53c-0.63-0.01-1.03-0.34-1.1-0.94c-0.08-0.63,0.25-1.09,0.88-1.16c0.62-0.07,1.03,0.32,1.11,0.93
		C60.56,25.98,60.22,26.38,59.6,26.53z"/>
	<path class="st17" d="M53.48,30.9c-0.22,0.62-0.63,1.01-1.29,0.77c-0.62-0.22-0.87-0.8-0.58-1.38c0.16-0.31,0.65-0.64,0.98-0.62
		C53.25,29.71,53.55,30.22,53.48,30.9z"/>
	<path class="st18" d="M56.63,30.98c0.83-0.03,1.31,0.29,1.29,0.93c-0.01,0.31-0.4,0.8-0.69,0.86c-0.63,0.14-1.11-0.31-1.14-0.92
		C56.08,31.54,56.48,31.22,56.63,30.98z"/>
	<path class="st19" d="M62.88,34.02c-0.53,0.26-0.88,0.56-1.25,0.6c-0.66,0.06-1.08-0.37-0.93-1.01c0.07-0.29,0.57-0.67,0.88-0.67
		C61.86,32.95,62.15,33.39,62.88,34.02z"/>
	<path class="st20" d="M65.66,33.67c-0.38-0.36-0.83-0.59-0.91-0.9c-0.16-0.68,0.32-1.07,0.95-0.95c0.3,0.06,0.72,0.54,0.71,0.82
		C66.42,32.96,65.99,33.26,65.66,33.67z"/>
	<path class="st21" d="M64.98,22.86c-0.36,0.42-0.56,0.88-0.87,0.97c-0.65,0.19-1.14-0.21-1.09-0.87c0.02-0.28,0.53-0.69,0.84-0.73
		C64.17,22.2,64.51,22.59,64.98,22.86z"/>
	<path class="st22" d="M61.95,39.91c0.39,0.32,0.84,0.51,0.93,0.8c0.2,0.64-0.22,1.08-0.85,1.01c-0.29-0.03-0.72-0.48-0.75-0.77
		C61.25,40.66,61.65,40.34,61.95,39.91z"/>
	<path class="st23" d="M11.76,75.88c-0.38-0.36-0.83-0.58-0.89-0.88c-0.12-0.63,0.29-1.08,0.93-0.95c0.29,0.06,0.68,0.54,0.69,0.84
		C12.51,75.17,12.08,75.47,11.76,75.88z"/>
	<path class="st24" d="M59.03,35.17c-0.33,0.45-0.54,0.74-0.75,1.02c-0.25-0.25-0.58-0.45-0.73-0.75c-0.07-0.13,0.22-0.63,0.35-0.63
		C58.22,34.81,58.54,35,59.03,35.17z"/>
	<path class="st15" d="M55.16,33.86c-0.47,0.37-0.77,0.78-1.09,0.8c-0.25,0.01-0.77-0.54-0.73-0.72c0.08-0.33,0.48-0.74,0.8-0.8
		C54.39,33.09,54.73,33.54,55.16,33.86z"/>
	<path class="st19" d="M70,27.24c-0.35-0.44-0.56-0.71-0.78-0.99c0.3-0.18,0.59-0.43,0.91-0.51c0.14-0.03,0.56,0.36,0.52,0.45
		C70.55,26.51,70.3,26.78,70,27.24z"/>
	<path class="st25" d="M63.09,37.74c-0.56,0.24-0.92,0.54-1.17,0.47c-0.24-0.07-0.36-0.53-0.53-0.83c0.22-0.13,0.48-0.4,0.65-0.35
		C62.36,37.12,62.61,37.4,63.09,37.74z"/>
	<path class="st26" d="M58.73,39.83c-0.32-0.43-0.75-0.76-0.71-1.01c0.06-0.31,0.48-0.71,0.8-0.77c0.21-0.04,0.73,0.48,0.72,0.72
		C59.52,39.09,59.1,39.38,58.73,39.83z"/>
	<path class="st27" d="M73.39,40.88c-0.21-0.14-0.56-0.25-0.62-0.44c-0.15-0.51,0.2-0.8,0.67-0.8c0.23,0,0.59,0.22,0.65,0.41
		C74.24,40.57,73.89,40.81,73.39,40.88z"/>
	<path class="st20" d="M66.62,36.81c-0.54,0.27-0.89,0.6-1.13,0.53c-0.26-0.07-0.41-0.52-0.6-0.81c0.22-0.14,0.46-0.41,0.64-0.37
		C65.85,36.23,66.12,36.5,66.62,36.81z"/>
	<path class="st28" d="M15.2,79.78c0.36,0.46,0.77,0.75,0.79,1.07c0.02,0.24-0.53,0.76-0.71,0.71c-0.33-0.08-0.73-0.47-0.8-0.78
		C14.44,80.54,14.88,80.2,15.2,79.78z"/>
	<path class="st25" d="M70.22,30.76c0.18,0.32,0.39,0.61,0.5,0.94c0.02,0.05-0.53,0.41-0.6,0.35c-0.28-0.21-0.47-0.54-0.7-0.82
		C69.64,31.1,69.86,30.97,70.22,30.76z"/>
	<path class="st29" d="M76.02,30.31c-0.14,0.36-0.28,0.79-0.32,0.78c-0.35-0.08-0.69-0.21-1-0.39c-0.03-0.02,0.16-0.62,0.24-0.62
		C75.3,30.09,75.65,30.22,76.02,30.31z"/>
	<path class="st30" d="M66.12,40.07c-0.13,0.36-0.26,0.79-0.29,0.79c-0.35-0.07-0.69-0.21-1.03-0.33c0.09-0.23,0.17-0.66,0.26-0.66
		C65.4,39.85,65.75,39.98,66.12,40.07z"/>
	<path class="st31" d="M69.11,40.86c-0.18-0.32-0.36-0.63-0.53-0.94c0.22-0.12,0.56-0.39,0.64-0.32c0.27,0.2,0.45,0.53,0.66,0.8
		C69.67,40.53,69.45,40.66,69.11,40.86z"/>
	<path class="st30" d="M70.62,36.18c-0.37,0.19-0.7,0.46-0.8,0.4c-0.28-0.19-0.46-0.52-0.68-0.79c0.22-0.13,0.51-0.41,0.64-0.35
		C70.08,35.57,70.31,35.88,70.62,36.18z"/>
	<path class="st32" d="M20.25,86.1c-0.13,0.23-0.21,0.58-0.38,0.63c-0.21,0.06-0.6-0.06-0.72-0.23c-0.32-0.45-0.08-0.79,0.43-0.81
		C19.8,85.69,20.03,85.96,20.25,86.1z"/>
	<path class="st33" d="M36.69,57.8c-1.2,1.05-1.2,2.12,0,3.17C39.03,59.92,39.01,58.85,36.69,57.8z M36.69,57.8
		c-1.2,1.05-1.2,2.12,0,3.17C39.03,59.92,39.01,58.85,36.69,57.8z M36.69,57.8c-1.2,1.05-1.2,2.12,0,3.17
		C39.03,59.92,39.01,58.85,36.69,57.8z M45.44,58.07c-0.78,0.11-1.3,0.78-1.07,1.58c0.15,0.45,0.75,1.05,1.16,1.07
		c0.75,0.03,1.31-0.49,1.29-1.38C46.75,58.5,46.26,57.94,45.44,58.07z M53.84,57.98c-0.94,0.11-1.62,0.71-1.34,1.72
		c0.18,0.69,0.76,1.31,1.57,1.11c0.69-0.18,1.24-0.67,1.22-1.53C55.04,58.58,54.67,57.89,53.84,57.98z M53.84,57.98
		c-0.94,0.11-1.62,0.71-1.34,1.72c0.18,0.69,0.76,1.31,1.57,1.11c0.69-0.18,1.24-0.67,1.22-1.53
		C55.04,58.58,54.67,57.89,53.84,57.98z M45.44,58.07c-0.78,0.11-1.3,0.78-1.07,1.58c0.15,0.45,0.75,1.05,1.16,1.07
		c0.75,0.03,1.31-0.49,1.29-1.38C46.75,58.5,46.26,57.94,45.44,58.07z M36.69,57.8c-1.2,1.05-1.2,2.12,0,3.17
		C39.03,59.92,39.01,58.85,36.69,57.8z M36.69,57.8c-1.2,1.05-1.2,2.12,0,3.17C39.03,59.92,39.01,58.85,36.69,57.8z M45.44,58.07
		c-0.78,0.11-1.3,0.78-1.07,1.58c0.15,0.45,0.75,1.05,1.16,1.07c0.75,0.03,1.31-0.49,1.29-1.38C46.75,58.5,46.26,57.94,45.44,58.07z
		 M53.84,57.98c-0.94,0.11-1.62,0.71-1.34,1.72c0.18,0.69,0.76,1.31,1.57,1.11c0.69-0.18,1.24-0.67,1.22-1.53
		C55.04,58.58,54.67,57.89,53.84,57.98z M53.84,57.98c-0.94,0.11-1.62,0.71-1.34,1.72c0.18,0.69,0.76,1.31,1.57,1.11
		c0.69-0.18,1.24-0.67,1.22-1.53C55.04,58.58,54.67,57.89,53.84,57.98z M45.44,58.07c-0.78,0.11-1.3,0.78-1.07,1.58
		c0.15,0.45,0.75,1.05,1.16,1.07c0.75,0.03,1.31-0.49,1.29-1.38C46.75,58.5,46.26,57.94,45.44,58.07z M36.69,57.8
		c-1.2,1.05-1.2,2.12,0,3.17C39.03,59.92,39.01,58.85,36.69,57.8z M70.28,64.78c-0.34-4.15-0.21-8.38-0.01-12.57
		c0.1-2.66-0.78-3.48-3.45-3.48c-19.98,0.09-39.98,0.11-59.96,0c-2.76-0.02-3.46,1-3.37,3.56c0.18,4.33,0.2,8.68,0,13.01
		c-0.15,2.85,0.8,3.72,3.66,3.67C17,68.8,26.86,68.91,36.7,68.91c9.7,0,19.4-0.11,29.11,0.06C69,69.02,70.59,68.48,70.28,64.78z
		 M17.78,57.91c1.19,0.52-1.65,0.76-1.94,1.83c0.38,1.18,2.42,0.02,2.5,2.03c-1.54,0.56-3.7,1.16-4.35-0.44
		c-0.77-1.85-0.8-4.44-0.09-6.32c0.67-1.87,2.86-0.89,4.07-0.71C20.3,55.91,12.34,55.53,17.78,57.91z M25.75,61.86
		c-0.79,0.69-2.5,0.98-3.68,0.2c-2.12-1.42-1.32-3.41-0.99-5.5c2.53,0.58,0.61,3.03,2.48,4.03c2.21-0.09,0.43-2.99,2.47-4.08
		C26.68,58.58,27.31,60.48,25.75,61.86z M31.16,58.79c-0.37,1.02-0.73,2.02-1.2,3.4c-1.56-1.75-1.56-3.94-0.6-4.97
		C30.49,56.02,31.9,56.66,31.16,58.79z M39.71,60.93c-0.99,1.51-2.46,1.87-4.11,0.98c-2.23-1.7-2.49-3.41-0.02-5.11
		c1.67-1.21,3.01-0.51,4.06,0.87C40.39,58.65,40.35,59.96,39.71,60.93z M46.22,62.22c-2.19-0.22-1.7,1.83-3.17,2.5
		c-1.05-1.94-0.43-3.68-0.63-5.33c-0.2-1.83,0.21-2.9,2.48-2.92c1.79-0.01,3.25,0.15,3.68,2.03C49.02,60.43,48.29,62.44,46.22,62.22
		z M54.18,62.33c-2.17,0.16-3.39-0.8-3.46-2.83c-0.05-1.97,0.96-3.35,3.15-3.17c1.73,0.14,3.79,0.07,3.09,2.7
		C57.52,61.53,56.29,62.19,54.18,62.33z M60.44,62.31c-0.31,0-0.78-0.38-0.91-0.7c-0.27-0.62,0.16-1.04,0.69-1.27
		c0.67-0.02,1.16,0.23,1.23,0.88C61.53,61.91,61,62.28,60.44,62.31z M53.84,57.98c-0.94,0.11-1.62,0.71-1.34,1.72
		c0.18,0.69,0.76,1.31,1.57,1.11c0.69-0.18,1.24-0.67,1.22-1.53C55.04,58.58,54.67,57.89,53.84,57.98z M45.44,58.07
		c-0.78,0.11-1.3,0.78-1.07,1.58c0.15,0.45,0.75,1.05,1.16,1.07c0.75,0.03,1.31-0.49,1.29-1.38C46.75,58.5,46.26,57.94,45.44,58.07z
		 M36.69,57.8c-1.2,1.05-1.2,2.12,0,3.17C39.03,59.92,39.01,58.85,36.69,57.8z M36.69,57.8c-1.2,1.05-1.2,2.12,0,3.17
		C39.03,59.92,39.01,58.85,36.69,57.8z M45.44,58.07c-0.78,0.11-1.3,0.78-1.07,1.58c0.15,0.45,0.75,1.05,1.16,1.07
		c0.75,0.03,1.31-0.49,1.29-1.38C46.75,58.5,46.26,57.94,45.44,58.07z M53.84,57.98c-0.94,0.11-1.62,0.71-1.34,1.72
		c0.18,0.69,0.76,1.31,1.57,1.11c0.69-0.18,1.24-0.67,1.22-1.53C55.04,58.58,54.67,57.89,53.84,57.98z M53.84,57.98
		c-0.94,0.11-1.62,0.71-1.34,1.72c0.18,0.69,0.76,1.31,1.57,1.11c0.69-0.18,1.24-0.67,1.22-1.53
		C55.04,58.58,54.67,57.89,53.84,57.98z M45.44,58.07c-0.78,0.11-1.3,0.78-1.07,1.58c0.15,0.45,0.75,1.05,1.16,1.07
		c0.75,0.03,1.31-0.49,1.29-1.38C46.75,58.5,46.26,57.94,45.44,58.07z M36.69,57.8c-1.2,1.05-1.2,2.12,0,3.17
		C39.03,59.92,39.01,58.85,36.69,57.8z M36.69,57.8c-1.2,1.05-1.2,2.12,0,3.17C39.03,59.92,39.01,58.85,36.69,57.8z M45.44,58.07
		c-0.78,0.11-1.3,0.78-1.07,1.58c0.15,0.45,0.75,1.05,1.16,1.07c0.75,0.03,1.31-0.49,1.29-1.38C46.75,58.5,46.26,57.94,45.44,58.07z
		 M45.44,58.07c-0.78,0.11-1.3,0.78-1.07,1.58c0.15,0.45,0.75,1.05,1.16,1.07c0.75,0.03,1.31-0.49,1.29-1.38
		C46.75,58.5,46.26,57.94,45.44,58.07z M36.69,57.8c-1.2,1.05-1.2,2.12,0,3.17C39.03,59.92,39.01,58.85,36.69,57.8z M36.69,57.8
		c-1.2,1.05-1.2,2.12,0,3.17C39.03,59.92,39.01,58.85,36.69,57.8z M36.69,57.8c-1.2,1.05-1.2,2.12,0,3.17
		C39.03,59.92,39.01,58.85,36.69,57.8z"/>
	<path class="st34" d="M86.19,60.14c-0.2,1.1-0.03,2.78-0.67,3.19c-1.61,1.02-1.96-0.6-2.52-1.76c-0.31-0.64-1.12-0.31-1.25,0.27
		c-0.29,1.37-0.94,2.19-2.34,1.59c-1.34-0.58-0.77-1.98-0.91-3.06c-0.44-3.17,0.97-5.98,3.92-5.96
		C84.88,54.42,86.91,56.86,86.19,60.14z"/>
	<path class="st35" d="M46.82,59.34c0.02,0.89-0.54,1.41-1.29,1.38c-0.42-0.02-1.02-0.62-1.16-1.07c-0.24-0.8,0.29-1.47,1.07-1.58
		C46.26,57.94,46.75,58.5,46.82,59.34z"/>
	<path class="st36" d="M55.29,59.28c0.02,0.85-0.53,1.34-1.21,1.52c-0.82,0.2-1.4-0.42-1.58-1.11c-0.27-1.02,0.4-1.61,1.34-1.72
		C54.67,57.89,55.04,58.58,55.29,59.28z"/>
	<path class="st37" d="M36.69,60.97c-1.2-1.05-1.2-2.12,0-3.17C39.01,58.85,39.03,59.92,36.69,60.97z"/>
	<path class="st37" d="M36.69,60.97c-1.2-1.05-1.2-2.12,0-3.17C36.9,58.85,36.9,59.92,36.69,60.97z"/>
	<path class="st38" d="M46.82,59.34c0.02,0.89-0.54,1.41-1.29,1.38c-0.42-0.02-1.02-0.62-1.16-1.07c-0.24-0.8,0.29-1.47,1.07-1.58
		C46.26,57.94,46.75,58.5,46.82,59.34z"/>
	<path class="st39" d="M55.29,59.28c0.02,0.85-0.53,1.34-1.21,1.52c-0.82,0.2-1.4-0.42-1.58-1.11c-0.27-1.02,0.4-1.61,1.34-1.72
		C54.67,57.89,55.04,58.58,55.29,59.28z"/>
	<path class="st40" d="M36.69,60.97c-1.2-1.05-1.2-2.12,0-3.17C39.01,58.85,39.03,59.92,36.69,60.97z"/>
</g>
</svg>
