<?xml version="1.0" encoding="utf-8"?>
<!-- Generator: Adobe Illustrator 26.0.1, SVG Export Plug-In . SVG Version: 6.00 Build 0)  -->
<svg version="1.1" id="Layer_1" xmlns="http://www.w3.org/2000/svg" xmlns:xlink="http://www.w3.org/1999/xlink" x="0px" y="0px"
	 viewBox="0 0 475.9 90.5" style="enable-background:new 0 0 475.9 90.5;" xml:space="preserve">
<style type="text/css">
	.st0{fill:#23767F;}
	.st1{fill:#36AF4B;}
</style>
<g>
	<path class="st0" d="M427.8,35c0-4.4,0-8.7,0-13.1c0-0.7,0.2-0.9,0.9-0.9c1.9,0.1,3.8,0,5.7,0c0.6,0,0.9,0.2,1,0.7
		c0.2,0.8,0.5,1.5,0.8,2.3c0.2,0.6,0.5,0.7,0.9,0.2c2.4-3.3,5.7-3.9,9.5-3.6c2.7,0.2,5.1,1.1,6.8,3.3c0.3,0.4,0.8,0.4,1.2,0
		c2.8-3.7,8.7-4.1,12.6-2.6c3.4,1.4,4.6,4.2,4.8,7.5c0.4,4.7,0.1,9.5,0.1,14.2c0,1.7,0,3.3,0,5c0,0.8-0.2,1.1-1,1.1
		c-2.5-0.1-5.1-0.1-7.6,0c-0.8,0-1.1-0.2-1.1-1c0-4.8,0-9.5,0-14.3c0-1-0.1-2.1-0.4-3.1c-0.3-1.2-0.9-2.3-2.4-2.5
		c-1.6-0.2-3,0.4-3.7,1.8c-0.8,1.5-1,3.1-1.1,4.8c0,4.5,0,8.9,0,13.4c0,0.7-0.2,1-1,1c-2.6,0-5.3,0-7.9,0c-0.8,0-0.9-0.2-0.9-0.9
		c0-4.8,0-9.6,0-14.4c0-1.1-0.1-2.1-0.4-3.2c-0.3-1.2-0.9-2.2-2.2-2.4c-1.5-0.2-2.7,0.2-3.6,1.5c-0.8,1.2-1,2.5-1.2,3.9
		c-0.3,2.2-0.2,4.4-0.2,6.6c0,2.7,0,5.4,0,8.1c0,0.6-0.1,0.8-0.8,0.8c-2.7,0-5.4,0-8.1,0c-0.7,0-0.8-0.3-0.8-0.9
		C427.8,43.9,427.8,39.4,427.8,35z"/>
	<path class="st0" d="M357.7,31.1c0-5.7,0-11.5,0-17.2c0-0.7,0.1-0.9,0.9-0.9c4.2,0,8.4,0,12.6,0c2.7,0,5.3,0.4,7.8,1.4
		c4.5,1.8,7.5,5,8.7,9.6c1.3,4.8,1.2,9.7-0.5,14.4c-2.3,6.1-7,9.3-13.3,10.3c-2.8,0.5-5.6,0.3-8.4,0.3c-2.2,0-4.3,0-6.5,0
		c-1.2,0-1.2,0-1.2-1.2C357.7,42.3,357.7,36.7,357.7,31.1z M367.5,31c0,3.1,0,6.2,0,9.3c0,0.7,0.2,0.9,0.9,0.9
		c0.8-0.1,1.7,0,2.5-0.1c3.6-0.2,5.9-2.1,6.8-5.5c0.8-3,0.9-6.1,0.1-9.2c-0.8-3.5-3.2-5.4-6.8-5.5c-0.9,0-1.7,0-2.6,0
		c-0.7,0-0.9,0.1-0.9,0.9C367.6,24.8,367.5,27.9,367.5,31z"/>
	<path class="st0" d="M300.3,37.8c0,3,0,5.9,0,8.9c0,0.5,0,0.8-0.6,1c-5.8,1.8-11.6,2.5-17.6,1.6c-6.7-1.1-10.9-5.1-12.6-11.7
		c-1-3.9-1.1-7.9-0.2-11.9c1.6-7.2,6.2-11.4,13.3-12.7c5.5-1.1,10.9-0.5,16.2,1.5c0.7,0.2,0.7,0.5,0.5,1.1c-0.9,2-1.7,4-2.4,6
		c-0.3,0.7-0.5,0.8-1.2,0.5c-2.8-1.2-5.8-1.8-8.9-1.5c-3.9,0.4-6.3,2.4-7.3,6.2c-0.9,3.1-0.8,6.2,0,9.2c1.1,3.7,3.6,5.6,7.4,5.7
		c1.2,0,2.4-0.1,3.6-0.3c0.5-0.1,0.7-0.3,0.7-0.8c0-1.4,0-2.9,0-4.3c0-0.6-0.2-0.7-0.7-0.7c-1.7,0-3.3,0-5,0c-0.6,0-0.8-0.1-0.8-0.8
		c0-2,0-4.1,0-6.1c0-0.5,0.1-0.7,0.7-0.7c4.8,0,9.6,0,14.3,0c0.7,0,0.7,0.3,0.7,0.8C300.3,31.7,300.3,34.8,300.3,37.8z"/>
	<path class="st0" d="M266.3,49.1c-2.9,0-5.6-0.2-8.2,0.1c-2.2,0.2-3.4-0.6-4.4-2.5c-1.8-3.4-3.9-6.7-5.8-10.1
		c-0.3-0.5-2.2-1-2.7-0.6c-0.3,0.2-0.1,0.5-0.1,0.8c0,3.8,0,7.6,0,11.4c0,0.8-0.2,1-1,1c-2.7-0.1-5.3,0-8,0c-0.6,0-0.8-0.1-0.8-0.8
		c0-11.5,0-23.1,0-34.6c0-0.6,0.2-0.8,0.8-0.8c4.3,0,8.6,0,12.9,0c2,0,4,0.3,5.9,0.9c5.8,1.8,7.7,6.1,7,11.5
		c-0.4,3.4-2.4,5.7-5.3,7.5c-0.7,0.4-0.6,0.7-0.2,1.2C259.6,39,262.9,44,266.3,49.1z M245.1,24.4c0,1.2,0,2.3,0,3.5
		c0,0.3-0.1,0.7,0.4,0.7c1.5,0,3,0.1,4.4-0.6c1.6-0.7,2.3-2.4,2.1-4.5c-0.2-1.5-1.2-2.5-2.9-2.9c-1.2-0.3-2.4-0.2-3.6-0.2
		c-0.5,0-0.5,0.3-0.5,0.6C245.1,22.1,245.1,23.3,245.1,24.4z"/>
	<path class="st0" d="M178.6,31c0-5.7,0-11.4,0-17.2c0-0.7,0.1-0.9,0.8-0.9c6.6,0,13.2,0,19.9,0c0.7,0,0.9,0.2,0.9,0.9
		c0,2,0,4.1,0,6.1c0,0.6-0.2,0.8-0.8,0.8c-3.3,0-6.7,0-10,0c-0.7,0-1,0.1-0.9,0.9c0.1,1.3,0,2.7,0,4c0,0.6,0.2,0.8,0.8,0.8
		c3.1,0,6.1,0,9.2,0c0.7,0,0.9,0.2,0.9,0.9c0,2,0,4.1,0,6.1c0,0.7-0.2,0.8-0.8,0.8c-3.1,0-6.1,0-9.2,0c-0.7,0-0.9,0.2-0.9,0.9
		c0.1,1.7,0.1,3.4,0,5.1c0,0.7,0.2,0.8,0.9,0.8c3.3,0,6.7,0,10,0c0.7,0,0.9,0.2,0.9,0.9c0,2.1,0,4.3,0,6.4c0,0.6-0.2,0.8-0.8,0.8
		c-6.6,0-13.3,0-19.9,0c-0.8,0-0.8-0.3-0.8-0.9C178.6,42.5,178.6,36.7,178.6,31z"/>
	<path class="st0" d="M206.9,31.1c0-5.7,0-11.5,0-17.2c0-0.7,0.1-0.9,0.8-0.9c6.6,0,13.2,0,19.8,0c0.6,0,0.9,0.1,0.8,0.8
		c0,2.1,0,4.2,0,6.2c0,0.7-0.3,0.8-0.9,0.8c-3.3,0-6.6,0-9.9,0c-0.7,0-1,0.2-1,1c0.1,1.3,0.1,2.6,0,3.9c0,0.7,0.2,0.8,0.8,0.8
		c3.1,0,6.1,0,9.2,0c0.7,0,0.9,0.2,0.9,0.9c0,2.1,0,4.2,0,6.2c0,0.6-0.2,0.8-0.8,0.8c-3.1,0-6.2,0-9.3,0c-0.6,0-0.8,0.2-0.8,0.8
		c0,1.7,0,3.5,0,5.2c0,0.7,0.2,0.8,0.8,0.8c3.3,0,6.7,0,10,0c0.6,0,0.9,0.1,0.9,0.8c-0.1,2.1,0,4.3,0,6.4c0,0.6-0.1,0.8-0.8,0.8
		c-6.7,0-13.4,0-20,0c-0.8,0-0.7-0.4-0.7-0.9C206.9,42.5,206.9,36.8,206.9,31.1z"/>
	<path class="st0" d="M143.4,35.1c0-4.3,0-8.7,0-13c0-0.7,0.1-1,0.9-1c1.8,0.1,3.7,0,5.5,0c0.6,0,1,0.1,1.2,0.8
		c0.2,0.7,0.5,1.4,0.7,2.1c0.3,0.8,0.6,0.8,1,0.2c2.9-4.2,10.8-4.5,14.4-1.8c2.4,1.9,3.5,4.4,3.6,7.3c0.1,6.3,0,12.5,0.1,18.8
		c0,0.7-0.3,0.6-0.8,0.6c-2.7,0-5.3,0-8,0c-0.7,0-0.9-0.2-0.9-0.9c0-4.7,0-9.5,0-14.2c0-1,0-2.1-0.3-3.1c-0.4-1.6-1.3-2.5-2.5-2.7
		c-1.8-0.2-3.3,0.4-4.1,1.9c-0.9,1.6-1.1,3.3-1.1,5.1c-0.1,4.3-0.1,8.7,0,13c0,0.8-0.2,1-1,1c-2.6,0-5.2,0-7.8,0c-0.7,0-1-0.2-1-0.9
		C143.5,43.8,143.4,39.4,143.4,35.1z"/>
	<path class="st0" d="M407.7,49.5c-6.4,0.1-11-2.9-13-8.4c-0.9-2.5-1.1-5.1-0.9-7.7c0.1-1.6,0.4-3.2,1-4.7c1.8-4.8,5.5-7.3,10.5-8
		c2.2-0.3,4.3-0.2,6.5,0.3c5.6,1.4,9.4,5.8,10,11.7c0.2,2.5,0.2,4.9-0.5,7.4c-1.4,5.5-5.7,9.1-11.5,9.5
		C409.1,49.6,408.4,49.5,407.7,49.5z M403.6,35c0,1.7,0.1,3.4,0.7,5c0.7,1.7,1.8,2.4,3.5,2.4c1.7,0,2.8-0.8,3.4-2.5
		c1-3.2,1-6.4,0.1-9.6c-0.5-1.8-1.7-2.6-3.5-2.6c-1.8,0-2.9,0.9-3.6,2.6C403.7,31.9,403.6,33.4,403.6,35z"/>
	<path class="st0" d="M320.4,49.5c-6.7,0.1-11.6-3.3-13.3-9.3c-1-3.7-1-7.4,0.2-11.1c1.2-3.7,3.7-6.3,7.4-7.6
		c3.6-1.2,7.3-1.3,10.9-0.1c3.2,1,5.6,3,7.1,6c2.5,5.2,2.5,10.5,0,15.6c-2,4.2-5.8,6.1-10.3,6.5C321.8,49.6,321.1,49.5,320.4,49.5z
		 M324.6,35c0-1.6-0.1-3.1-0.6-4.6c-0.6-1.8-1.7-2.6-3.5-2.7c-1.8,0-3,0.8-3.5,2.6c-1,3.1-0.9,6.3,0,9.5c0.6,1.8,1.8,2.6,3.6,2.6
		c1.7,0,2.8-0.8,3.4-2.6C324.5,38.3,324.6,36.7,324.6,35z"/>
	<path class="st0" d="M99.1,31.1c0-5.7,0-11.5,0-17.2c0-0.7,0.1-0.9,0.8-0.9c6.6,0,13.2,0,19.8,0c0.6,0,0.8,0.2,0.8,0.8
		c0,2.1,0,4.2,0,6.2c0,0.6-0.2,0.8-0.8,0.8c-3.4,0-6.7,0-10.1,0c-0.7,0-0.9,0.2-0.9,0.9c0,1.7,0.1,3.4,0,5.1c0,0.8,0.3,0.9,0.9,0.9
		c3,0,6.1,0,9.1,0c0.6,0,0.9,0.1,0.9,0.8c0,2.1,0,4.2,0,6.3c0,0.6-0.2,0.8-0.8,0.8c-3.1,0-6.1,0-9.2,0c-0.7,0-0.9,0.2-0.9,0.9
		c0,3.9,0,7.8,0,11.7c0,0.7-0.2,0.9-0.9,0.9c-2.6,0-5.2-0.1-7.8,0c-0.8,0-0.9-0.3-0.9-1C99.1,42.5,99.1,36.8,99.1,31.1z"/>
	<path class="st0" d="M126.5,35.1c0-4.4,0-8.8,0-13.2c0-0.7,0.2-0.9,0.9-0.9c2.7,0,5.3,0,8,0c0.6,0,0.8,0.1,0.8,0.8
		c0,8.8,0,17.7,0,26.5c0,0.6-0.2,0.8-0.8,0.8c-2.7,0-5.4,0-8.1,0c-0.7,0-0.8-0.3-0.8-0.9C126.5,43.9,126.5,39.5,126.5,35.1z"/>
	<path class="st1" d="M305.6,74.4c0.2-0.4,0-0.7,0-1.1c0-4.4,0-8.7-0.1-13.1c0-0.6,0.1-0.8,0.8-0.8c2.2,0,2.2,0,2.2,2.2
		c0,5.8,0,11.7,0,17.5c0,0.8-0.2,1-1,0.9c-0.8-0.1-1.7-0.1-2.5,0c-0.6,0-0.9-0.2-1.1-0.7c-2-4.6-4-9.2-5.9-13.8
		c-0.1-0.3-0.3-0.5-0.4-0.7c0,1.4,0,2.9,0,4.4c0,3.4,0,6.7,0,10.1c0,0.6-0.1,0.8-0.8,0.8c-2.2,0-2.2,0-2.2-2.2c0-5.8,0-11.7,0-17.5
		c0-0.7,0.2-1,0.9-0.9c1.1,0.1,2.4-0.3,3.1,0.2c0.8,0.5,1,1.9,1.4,2.9c1.6,3.8,3.3,7.5,4.9,11.3C305.3,74,305.3,74.3,305.6,74.4z"/>
	<path class="st0" d="M111.3,74c0,1.5,0,3.1,0,4.6c0,0.3,0,0.7-0.4,0.8c-2.1,0.8-4.3,1.2-6.6,0.9c-2.3-0.4-3.8-1.8-4.6-3.8
		c-1.6-4.2-1.8-8.4-0.1-12.6c2.2-5.3,7.7-5.3,11.1-3.6c0.4,0.2,0.5,0.4,0.3,0.8c-0.3,0.8-0.5,1.6-0.7,2.4c-0.1,0.6-0.4,0.6-0.8,0.3
		c-0.5-0.3-1.1-0.5-1.6-0.6c-2.2-0.5-4,0.2-4.9,2.2c-1.5,3.1-1.5,6.4-0.1,9.5c0.9,2.1,2.8,2.2,4.8,1.8c0.3-0.1,0.4-0.3,0.4-0.5
		c0-1.1,0-2.1,0-3.2c0-0.4-0.1-0.6-0.5-0.5c0,0-0.1,0-0.1,0c-0.7-0.1-1.9,0.4-2.2-0.2c-0.5-0.9-0.1-2.1-0.1-3.2
		c0-0.3,0.2-0.3,0.4-0.3c1.7,0,3.5,0,5.2,0c0.5,0,0.5,0.3,0.5,0.7C111.3,70.8,111.3,72.4,111.3,74z"/>
	<path class="st1" d="M251.7,73.9c0,1.6,0,3.1,0,4.7c0,0.4-0.1,0.7-0.5,0.9c-2,0.8-4.1,1.2-6.2,0.9c-2.2-0.3-3.9-1.6-4.7-3.6
		c-1.8-4.3-1.9-8.7-0.1-13c2.2-5.2,7.7-5.1,11-3.4c0.4,0.2,0.5,0.5,0.4,0.9c-0.3,0.8-0.5,1.6-0.7,2.4c-0.1,0.4-0.3,0.5-0.7,0.3
		c-3.8-1.8-6.5-0.5-7.4,3.6c-0.5,2.2-0.4,4.4,0.3,6.5c0.8,2.4,2.6,3.3,5,2.7c0.3-0.1,0.5-0.2,0.5-0.5c0-1.1,0-2.2,0-3.3
		c0-0.3-0.1-0.5-0.5-0.5c-0.1,0-0.2,0-0.4,0c-2.1,0-2.1,0-2.1-2.1c0-1.6,0-1.6,1.5-1.6c1.3,0,2.6,0,4,0c0.5,0,0.7,0.2,0.7,0.7
		C251.7,70.8,251.7,72.3,251.7,73.9z"/>
	<path class="st1" d="M376.6,69.8c0-3.1,0-6.3,0-9.4c0-0.7,0.1-0.9,0.8-0.9c1.7,0.1,3.4-0.1,5.1,0.1c3,0.5,4.5,2.2,4.7,5.2
		c0.2,2.4-0.4,4.6-2.5,6.1c-0.5,0.3-0.2,0.6,0,0.9c1.2,2.5,2.5,5,3.8,7.4c0.3,0.7,0.3,0.8-0.5,0.9c-2.1,0.3-3.2-0.4-3.9-2.4
		c-0.5-1.7-1.5-3.3-2.2-4.9c-0.4-0.9-1.1-0.6-1.6-0.5c-0.6,0-0.3,0.6-0.3,0.9c0,2.1,0,4.2,0,6.2c0,0.5-0.1,0.7-0.7,0.7
		c-0.8,0-1.9,0.4-2.5-0.1c-0.5-0.5-0.2-1.6-0.2-2.4C376.6,75,376.6,72.4,376.6,69.8z M381,63.1c-1.1,0-1.1,0-1.1,0.6
		c0,1.5,0,2.9,0,4.4c0,0.2,0,0.4,0.2,0.5c1.2,0.5,3.3-0.4,3.7-1.7C384.5,64.6,383.4,63.1,381,63.1z"/>
	<path class="st1" d="M255.6,69.8c0-3.1,0-6.2,0-9.3c0-0.9,0.3-1,1-1c1.7,0.1,3.5-0.1,5.2,0.2c2.4,0.4,3.8,1.7,4.3,4.1
		c0.5,2.7,0.1,5.3-2.3,7.1c-0.5,0.3-0.2,0.6-0.1,0.9c1.2,2.5,2.5,5,3.8,7.4c0.4,0.7,0.2,0.8-0.5,0.9c-2,0.3-3.2-0.4-3.8-2.4
		c-0.6-1.7-1.5-3.3-2.2-4.9c-0.4-0.9-1-0.6-1.6-0.6c-0.7,0-0.4,0.6-0.4,1c0,2,0,4.1,0,6.1c0,0.6-0.2,0.8-0.8,0.8
		c-0.6,0-1.2-0.1-1.7,0c-0.7,0.1-0.8-0.2-0.8-0.8C255.6,76.1,255.6,72.9,255.6,69.8z M258.9,65.9c0,0.5,0,0.9,0,1.4
		c0,1.5,0,1.5,1.5,1.4c0,0,0.1,0,0.1,0c1.8-0.2,2.5-1.1,2.4-3c0-1.6-0.9-2.4-2.6-2.5c-1.5-0.1-1.5-0.1-1.5,1.4
		C258.9,64.9,258.9,65.4,258.9,65.9z"/>
	<path class="st0" d="M127.4,80c-1.1,0-2.1,0-3.1,0c-0.5,0-0.6-0.4-0.8-0.7c-1-2.2-2-4.3-3-6.5c-0.3-0.6-1.2-1-1.8-0.7
		c-0.4,0.2-0.2,0.5-0.2,0.7c0,2.1,0,4.3,0,6.4c0,0.6-0.2,0.8-0.8,0.8c-0.8-0.1-1.9,0.3-2.4-0.2c-0.5-0.5-0.1-1.5-0.1-2.3
		c0-5.7,0-11.5,0-17.2c0-0.7,0.1-1,0.9-0.9c1.8,0.1,3.6-0.1,5.4,0.2c2.4,0.4,3.8,1.7,4.2,4.1c0.5,2.8,0.2,5.3-2.3,7.1
		c-0.4,0.3-0.2,0.6,0,0.9c1.3,2.6,2.6,5.2,4,7.9C127.3,79.7,127.3,79.8,127.4,80z M118.4,65.8c0,0.7,0,1.5,0,2.2
		c0,0.4,0.1,0.6,0.6,0.6c0.3,0,0.5,0,0.8,0c1.9-0.1,2.7-1,2.7-2.9c0-1.7-0.9-2.5-2.7-2.6c-0.3,0-0.6,0-0.8,0c-0.4,0-0.5,0.2-0.5,0.5
		C118.5,64.4,118.4,65.1,118.4,65.8z"/>
	<path class="st1" d="M330.5,67.2c0-2.3,0-4.6,0-6.9c0-0.6,0.1-0.8,0.8-0.8c2.5,0,2.4,0,2.5,2.5c0.1,3.9-0.2,7.8,0.1,11.7
		c0.2,2.2,1.4,3.3,3.4,3c1-0.1,1.8-0.6,2.2-1.6c0.4-1,0.5-2,0.5-3.1c0-3.9,0-7.8,0-11.6c0-0.7,0.2-0.9,0.9-0.9c2.4,0,2.4,0,2.4,2.4
		c0,3.6,0,7.2,0,10.7c0,1.1-0.1,2.3-0.4,3.3c-1,3.1-3.1,4.6-6.5,4.5c-2.7-0.1-4.8-2-5.5-5c-0.3-1.5-0.3-3-0.3-4.6
		C330.5,69.6,330.5,68.4,330.5,67.2z"/>
	<path class="st1" d="M372.6,67c0,2.2,0,4.4,0,6.6c0,1.3-0.3,2.5-0.9,3.6c-1.3,2.4-3.4,3.3-6,3.2c-2.4-0.2-4.1-1.4-5-3.6
		c-0.5-1.2-0.7-2.4-0.7-3.7c0-4.2,0-8.5,0-12.7c0-0.6,0.1-0.9,0.8-0.8c0.8,0.1,1.9-0.4,2.4,0.2c0.4,0.5,0.1,1.5,0.1,2.3
		c0,3.5,0,7,0,10.5c0,0.9,0.1,1.8,0.4,2.6c0.5,1.2,1.4,1.7,2.8,1.7c1.3,0,2.1-0.6,2.5-1.8c0.4-1,0.4-2,0.4-3c0-3.9,0-7.7,0-11.6
		c0-0.7,0.2-1.1,1-1c0.7,0.1,1.7-0.3,2.2,0.2c0.5,0.5,0.1,1.5,0.1,2.2C372.6,63.5,372.6,65.2,372.6,67C372.6,67,372.6,67,372.6,67z"
		/>
	<path class="st0" d="M180.9,59.4c2,0,2,0,2.5,1.9c1.6,6,3.2,11.9,4.8,17.9c0.2,0.7,0.1,1-0.7,0.9c-0.8-0.1-1.9,0.3-2.5-0.1
		c-0.6-0.5-0.5-1.6-0.7-2.4c-0.2-0.8-0.1-1.8-0.6-2.2c-0.6-0.4-1.5-0.1-2.3-0.1c-0.8,0-1.5,0-2.3,0c-0.7,0-1,0.1-1.1,0.8
		c-0.2,1.2-0.5,2.3-0.8,3.5c-0.1,0.4-0.3,0.6-0.7,0.6c-0.7,0-1.4-0.1-2.1,0c-0.8,0.1-0.8-0.3-0.6-0.9c1.3-4.9,2.6-9.7,3.9-14.6
		c0.4-1.4,0.8-2.9,1.1-4.3c0.2-0.7,0.5-1,1.2-0.9C180.2,59.5,180.6,59.4,180.9,59.4z M182.9,71.5c-0.7-2.8-1.3-5.6-2-8.4
		c0,0-0.1,0-0.1,0c-0.6,2.8-1.2,5.5-1.9,8.3C180.3,71.5,181.6,71.5,182.9,71.5z"/>
	<path class="st1" d="M270.2,69.8c0-3.1,0-6.3,0-9.4c0-0.6,0.1-0.9,0.8-0.9c2.4,0,4.9,0,7.3,0c0.6,0,0.8,0.1,0.8,0.8
		c0,0.7-0.1,1.4,0,2.1c0.1,0.7-0.2,0.8-0.8,0.8c-1.3,0-2.7,0-4,0c-0.6,0-0.8,0.1-0.8,0.8c0,1,0,2,0,3c0,0.6,0.2,0.7,0.7,0.7
		c1.3,0,2.6,0,3.9,0c0.5,0,0.7,0.2,0.7,0.7c-0.1,0.9,0.4,2.1-0.2,2.8c-0.5,0.6-1.7,0.1-2.6,0.2c-0.8,0.1-1.8-0.3-2.3,0.2
		c-0.5,0.5-0.1,1.5-0.2,2.3c0,0.7,0,1.5,0,2.2c0,0.5,0.2,0.7,0.7,0.7c1.4,0,2.8,0,4.1,0c0.6,0,0.9,0.1,0.8,0.8c-0.1,0.7,0,1.3,0,2
		c0,0.6-0.1,0.8-0.7,0.8c-2.5,0-5,0-7.4,0c-0.7,0-0.8-0.3-0.8-0.9C270.2,76.1,270.2,72.9,270.2,69.8z"/>
	<path class="st0" d="M161.6,69.8c0-3.2,0-6.4,0-9.5c0-0.6,0.2-0.9,0.8-0.8c1.8,0.1,3.6-0.1,5.3,0.1c2.4,0.3,3.8,1.7,4.3,4
		c0.4,1.7,0.4,3.5-0.1,5.2c-0.7,2.6-2.7,4-5.6,4c-1.5,0-1.5,0-1.5,1.5c0,1.7,0,3.3,0,5c0,0.6-0.1,0.8-0.7,0.8c-2.5,0-2.5,0-2.5-2.5
		C161.6,75,161.6,72.4,161.6,69.8z M164.9,66.1c0,0.8,0,1.7,0,2.5c0,0.2,0,0.5,0.3,0.6c1.4,0.4,3.2-0.5,3.6-1.8
		c0.8-2.6-0.4-4.3-3.1-4.2c-0.1,0-0.1,0-0.2,0c-0.5-0.1-0.7,0.1-0.6,0.6C164.9,64.5,164.9,65.3,164.9,66.1z"/>
	<path class="st1" d="M282.5,69.8c0-3.2,0-6.4,0-9.5c0-0.6,0.1-0.8,0.8-0.8c2.5,0,5,0,7.4,0c0.6,0,0.8,0.2,0.8,0.8
		c-0.1,0.9,0.4,2.1-0.2,2.7c-0.5,0.6-1.7,0.2-2.6,0.2c-0.7,0-1.5,0-2.2,0c-0.5,0-0.7,0.2-0.7,0.7c0,1,0,2.1,0,3.1
		c0,0.5,0.2,0.7,0.7,0.7c1.3,0,2.6,0,3.9,0c0.6,0,0.8,0.2,0.7,0.7c0,0.8,0,1.5,0,2.3c0,0.5-0.1,0.6-0.6,0.6c-1.3,0-2.6,0-4,0
		c-0.5,0-0.7,0.1-0.7,0.7c0,1.3,0,2.7,0,4c0,0.5,0.2,0.6,0.6,0.6c1.4,0,2.9,0,4.3,0c0.5,0,0.7,0.1,0.7,0.7c0,0.8,0,1.5,0,2.3
		c0,0.5-0.2,0.6-0.6,0.6c-2.5,0-5.1,0-7.6,0c-0.6,0-0.7-0.2-0.7-0.8C282.5,76.1,282.5,72.9,282.5,69.8z"/>
	<path class="st0" d="M129.6,69.7c0-3.1,0-6.3,0-9.4c0-0.7,0.2-0.9,0.9-0.9c2.4,0,4.9,0,7.4,0c0.6,0,0.8,0.2,0.7,0.7
		c0,0.7,0,1.5,0,2.2c0,0.6-0.2,0.8-0.8,0.7c-1.3,0-2.7,0-4,0c-0.7,0-0.8,0.2-0.8,0.8c0,1,0,2,0,3c0,0.5,0.1,0.6,0.6,0.6
		c1.3,0,2.5,0,3.8,0c0.6,0,0.9,0.1,0.8,0.8c-0.1,0.9,0.3,2.1-0.2,2.7c-0.5,0.6-1.7,0.1-2.6,0.2c-0.4,0-0.9,0.1-1.3,0
		c-1-0.2-1.2,0.3-1.2,1.2c0.1,1.1,0,2.3,0,3.4c0,0.6,0.2,0.7,0.7,0.7c1.4,0,2.8,0,4.2,0c0.5,0,0.7,0.2,0.7,0.7c0,0.8,0,1.5,0,2.3
		c0,0.5-0.2,0.6-0.6,0.6c-2.5,0-5.1,0-7.6,0c-0.6,0-0.7-0.3-0.7-0.8C129.7,76.1,129.6,72.9,129.6,69.7z"/>
	<path class="st1" d="M391.1,69.7c0-3.1,0-6.3,0-9.4c0-0.6,0.1-0.8,0.8-0.8c2.4,0,4.9,0,7.3,0c0.6,0,0.8,0.2,0.8,0.8
		c0,0.6-0.1,1.3,0,1.9c0.1,0.8-0.3,1-1,1c-1.3,0-2.6,0-3.9,0c-0.6,0-0.8,0.2-0.8,0.8c0,1,0.1,2,0,2.9c0,0.7,0.2,0.8,0.9,0.8
		c1.2,0,2.4,0,3.7,0c0.6,0,0.7,0.2,0.7,0.7c0,0.8,0,1.5,0,2.3c0,0.5-0.2,0.6-0.6,0.6c-1.3,0-2.6,0-3.9,0c-0.5,0-0.8,0.1-0.7,0.7
		c0,1.3,0,2.6,0,3.9c0,0.5,0.2,0.7,0.7,0.7c1.4,0,2.8,0,4.2,0c0.5,0,0.7,0.1,0.7,0.7c0,0.8,0,1.5,0,2.3c0,0.5-0.2,0.6-0.6,0.6
		c-2.5,0-5.1,0-7.6,0c-0.7,0-0.6-0.4-0.6-0.8C391.1,76.1,391.1,72.9,391.1,69.7z"/>
	<path class="st0" d="M189.6,75.1c0.6,0.3,1.1,0.6,1.6,0.8c0.9,0.4,1.7,0.8,2.7,0.8c1,0,1.9,0,2.3-1.1c0.5-1,0.2-2.1-0.6-2.9
		c-0.8-0.8-1.8-1.3-2.7-1.9c-1.7-1.1-2.8-2.6-3.1-4.7c-0.1-1.1-0.1-2.1,0.2-3.2c0.8-2.9,3.3-4.3,6.4-3.7c0.9,0.2,1.8,0.6,2.6,1
		c0.4,0.2,0.5,0.4,0.4,0.9c-0.3,0.8-0.5,1.5-0.7,2.3c-0.1,0.5-0.4,0.5-0.8,0.3c-0.8-0.5-1.7-0.8-2.7-0.9c-0.9-0.1-1.7,0.1-2.1,1
		c-0.4,0.9-0.4,1.8,0.3,2.6c0.3,0.4,0.8,0.7,1.2,1c0.7,0.5,1.5,1,2.3,1.5c3.1,2.2,3.1,5.8,2.2,8.1c-0.7,1.8-2.1,2.9-4.1,3.2
		c-1.7,0.2-3.4,0-4.9-0.8c-0.5-0.2-0.7-0.5-0.7-1C189.6,77.4,189.6,76.3,189.6,75.1z"/>
	<path class="st1" d="M224.4,76.4c1.9,0,3.7,0,5.5,0c0.8,0,1.3,0.2,1.2,1.2c-0.1,0.8,0.4,1.9-0.2,2.4c-0.5,0.4-1.5,0.1-2.3,0.1
		c-2.5,0-5,0-7.5,0c-0.6,0-0.7-0.2-0.7-0.7c-0.1-1.6,0.3-2.9,1.3-4.1c1.6-2,3.2-4.1,4.6-6.3c0.8-1.2,1.3-2.5,1.2-4.1
		c-0.1-1.7-1.3-2.4-2.9-1.8c-0.7,0.3-1.4,0.7-1.9,1.3c-0.5,0.6-0.8,0.4-1.1-0.2c-0.1-0.3-0.3-0.5-0.5-0.8c-0.9-1.4-0.9-1.4,0.3-2.5
		c1.5-1.4,3.2-1.9,5.2-1.7c2.2,0.3,3.8,2.3,4,4.8c0.2,2.3-0.5,4.3-1.7,6.2c-1.2,1.8-2.6,3.4-3.9,5.1
		C224.8,75.7,224.5,75.9,224.4,76.4z"/>
	<path class="st0" d="M345.3,31.7c2.1,0,4.1,0,6.2,0c0.6,0,0.8,0.2,0.8,0.8c0,2.1,0,4.2,0,6.2c0,0.6-0.2,0.7-0.8,0.7
		c-4.2,0-8.3,0-12.5,0c-0.6,0-0.8-0.2-0.8-0.8c0-2.1,0-4.2,0-6.2c0-0.6,0.2-0.8,0.8-0.7C341.1,31.7,343.2,31.7,345.3,31.7z"/>
	<path class="st1" d="M318.5,69.7c0-3.1,0-6.2,0-9.3c0-0.7,0.1-1,0.9-0.9c2.4,0.1,4.8,0,7.3,0c0.6,0,0.8,0.2,0.8,0.8
		c-0.1,0.9,0.4,2.2-0.2,2.7c-0.5,0.5-1.7,0.1-2.6,0.2c-0.7,0-1.5,0-2.2,0c-0.5,0-0.7,0.2-0.7,0.7c0,1.3,0,2.6,0,3.9
		c0,0.5,0.2,0.7,0.7,0.7c1.3,0,2.5,0,3.8,0c0.6,0,0.8,0.1,0.8,0.7c-0.1,0.7,0,1.5,0,2.2c0,0.5-0.2,0.6-0.6,0.6c-1.3,0-2.5,0-3.8,0
		c-0.6,0-0.8,0.1-0.8,0.8c0,2.2,0,4.4,0,6.6c0,0.6-0.2,0.8-0.8,0.8c-2.5,0-2.5,0.1-2.5-2.4C318.5,75,318.5,72.4,318.5,69.7z"/>
	<path class="st0" d="M146.9,67.7c0.9-2.5,1.9-5,2.8-7.5c0.2-0.6,0.5-0.9,1.2-0.8c0.8,0.1,1.7,0,2.7,0c-0.3,0.8-0.6,1.5-0.9,2.2
		c-1.3,3.3-2.6,6.5-4,9.8c-0.2,0.5-0.3,0.9-0.3,1.4c0,2.1,0,4.3,0,6.4c0,0.6-0.1,0.9-0.8,0.8c-0.8-0.1-1.8,0.3-2.3-0.2
		c-0.5-0.5-0.2-1.5-0.2-2.3c0.3-3.7-0.4-7.2-2-10.5c-1.1-2.2-1.9-4.6-2.8-6.9c-0.3-0.6-0.2-0.9,0.5-0.8c0.9,0.1,2-0.4,2.7,0.2
		c0.6,0.5,0.7,1.6,1,2.4c0.6,1.7,1.2,3.3,1.9,5C146.6,67.2,146.6,67.5,146.9,67.7z"/>
	<path class="st0" d="M208.7,71.7c0,2.5,0,5.1,0,7.6c0,0.6-0.2,0.8-0.8,0.8c-0.6,0-1.2-0.1-1.7,0c-0.7,0.1-0.8-0.2-0.8-0.8
		c0-5,0-10.1,0-15.1c0-0.9-0.3-1.1-1.1-1c-0.9,0.1-1.7,0-2.6,0c-0.4,0-0.6-0.1-0.6-0.6c0-0.8,0-1.7,0-2.5c0-0.5,0.1-0.6,0.6-0.6
		c3.5,0,7,0,10.5,0c0.6,0,0.7,0.2,0.6,0.7c0,0.8,0,1.5,0,2.3c0,0.6-0.2,0.7-0.8,0.7c-0.9,0-1.8,0-2.8,0c-0.6,0-0.7,0.2-0.7,0.7
		C208.7,66.5,208.7,69.1,208.7,71.7z"/>
	<path class="st1" d="M353.2,71.6c0,2.6,0,5.1,0,7.7c0,0.6-0.2,0.8-0.8,0.8c-0.6,0-1.2-0.1-1.7,0c-0.7,0.1-0.8-0.2-0.8-0.8
		c0-5,0-10.1,0-15.1c0-0.8-0.2-1.1-1-1.1c-0.8,0.1-1.7,0-2.6,0c-0.5,0-0.6-0.2-0.6-0.6c0-1-0.3-2.2,0.2-2.8c0.5-0.6,1.8-0.2,2.7-0.2
		c2.6,0,5.3,0,7.9,0c0.8,0,1,0.2,0.9,1c-0.1,0.6-0.1,1.2,0,1.8c0.1,0.8-0.3,0.9-0.9,0.9c-0.9,0-1.7,0-2.6,0c-0.6,0-0.7,0.2-0.7,0.7
		C353.2,66.4,353.2,69,353.2,71.6C353.2,71.6,353.2,71.6,353.2,71.6z"/>
	<path class="st0" d="M17.1,61.5c0-2.3,1.7-4.7,3.7-5.5c0.9-0.3,1.7-0.1,2.5,0.3c1.2,0.6,2.2,1.5,3.2,2.4c0.7,0.6,0.7,1.7,0.6,2.6
		c-0.2,1.5-1.2,2.6-2.2,3.7c-1.5,1.7-2,1.8-4.1,0.7c-1.3-0.7-2.4-1.6-3.2-2.8C17.3,62.5,17.1,62.1,17.1,61.5z"/>
	<path class="st1" d="M54.2,23.2c-0.2-3.4,3.7-6.6,7.3-4.9c2.1,1,3.1,3,2.3,5.2c-0.1,0.3-0.2,0.6-0.3,0.7c-1.4,1.3-2.8,2.8-4.8,3
		C55.9,27.6,54.2,26.1,54.2,23.2z"/>
	<path class="st0" d="M131.3,9.9c0.3,0,0.6,0,0.9,0c3.2,0.2,4.8,2.2,4.2,5.4c-0.3,1.5-1.3,2.5-2.8,2.8c-1.3,0.4-2.7,0.4-4.1,0.1
		c-2.3-0.5-3.5-2-3.4-4.4c0.1-2.4,1.4-3.7,3.8-3.9C130.4,9.8,130.9,9.8,131.3,9.9C131.3,9.8,131.3,9.8,131.3,9.9z"/>
	<path class="st1" d="M72.9,38.2c0.9-0.2,1.9,0,2.8,0.8c0.9,0.9,1.7,1.8,2,3.1c0.1,0.4,0.1,0.7-0.1,1.1c-1.4,2.8-4,4.1-7,3.4
		c-1.1-0.2-2-0.8-2.7-1.7c-1.2-1.4-1.2-2.5-0.3-4.1C68.7,38.9,70.4,37.9,72.9,38.2z"/>
	<path class="st0" d="M18.1,42c-1.3,0.3-2.2-0.4-2.8-1.7c-0.2-0.4-0.4-0.7-0.5-1.1c-1.5-3.2-0.3-4.6,3-5.7c1.6-0.6,3.2-0.1,4.7,0.8
		c2,1.3,2.2,3.9,0.5,5.5C21.7,41.1,20.2,42.2,18.1,42z"/>
	<path class="st0" d="M60.2,64.2c0-1.6,0.7-2.8,1.7-3.8c0.5-0.5,1.1-0.4,1.7-0.2c2.1,0.5,3.8,1.7,5.3,3.2c0.6,0.6,0.6,1.3,0.4,2
		c-0.4,1.5-1.2,2.8-1.7,4.3c-0.1,0.2-0.2,0.3-0.4,0.2c-2-0.3-4-0.6-5.5-2.2C60.7,66.7,60.3,65.5,60.2,64.2z"/>
	<path class="st0" d="M54.5,75.1c0-1.9,0.7-3.4,1.6-4.9c0.2-0.4,0.6-0.4,0.9-0.5c1.6-0.1,3.2,0.3,4.5,1.2c1.8,1.2,2,4,0.5,5.5
		c-1.6,1.6-4.6,1.9-6.5,0.6C54.7,76.5,54.2,75.9,54.5,75.1z"/>
	<path class="st1" d="M69.7,30.6c-1.7,0-2.9-0.6-4.1-1.4c-0.8-0.6-0.8-1.4-0.5-2.3c0.4-1.3,1.2-2.4,2-3.5c0.5-0.7,1.3-0.7,2-0.5
		c1.2,0.3,2.3,1,3.2,1.7c0.6,0.5,0.7,1.3,0.7,2c-0.1,1.1-0.5,2.2-1,3.2c-0.1,0.3-0.2,0.5-0.6,0.5C70.9,30.5,70.2,30.6,69.7,30.6z"/>
	<path class="st0" d="M14.4,56.5c-1.5,0-2.3-0.6-2.6-2c0-0.1,0-0.3-0.1-0.3c-0.7-0.6-0.7-1.4-0.5-2.2c0.4-1.2,1-2.2,1.9-3.1
		c0.2-0.2,0.4-0.2,0.6-0.2c2.1,0,3.7,0.9,4.8,2.7c0.1,0.2,0.2,0.4,0.2,0.6C18.5,54.7,17.3,56.4,14.4,56.5z"/>
	<path class="st1" d="M75.1,49.2c1.8,0,3.4,1.7,3.4,3.8c0,1.5-0.6,2.7-1.7,3.7c-0.6,0.6-1.3,0.8-2.2,0.4c-1.7-0.8-2.9-2-3.5-3.8
		C71,53.1,71,52.8,71,52.5C71.2,51.2,73.7,49.2,75.1,49.2z"/>
	<path class="st0" d="M21,23.5c1,0.1,1.9,0.7,2.6,1.7c0.7,1.1,1,2.4,1.3,3.7c0.1,0.4,0,0.6-0.4,0.8c-0.6,0.3-1.3,0.6-1.9,0.9
		c-1.2,0.6-2.5,0.4-3.6-0.2c-1.5-0.8-2.2-2.1-1.8-3.4C17.5,25.1,19.2,23.5,21,23.5z"/>
	<path class="st0" d="M25.2,47.6c-0.2,1.1-0.8,2.3-2,3.1c-0.8,0.6-1.8,0.6-2.5,0c-1-0.9-3-0.8-2.9-2.8c0.1-1.6,2.4-4,4-4.2
		C23.5,43.5,25.2,45.4,25.2,47.6z"/>
	<path class="st1" d="M49.5,26.3c-0.6-0.1-1.2-0.1-1.7-0.2c-1.8-0.4-2.7-1.6-2.5-3.5c0.1-1.5,1.3-2.5,3.1-2.7
		c1.5-0.1,2.7,0.6,3.7,1.5c0.9,0.8,1.1,3.3,0.4,4.1c-0.1,0.2-0.3,0.2-0.5,0.3C51.2,26.2,50.4,26.3,49.5,26.3z"/>
	<path class="st1" d="M65.7,38.2c-1.7-0.2-3.1-1.4-4.2-3.1c-0.2-0.3-0.1-0.5,0.1-0.7c0.4-0.5,0.8-1,1.2-1.5c1.2-1.5,2.4-1.8,4.2-1.1
		c1.5,0.6,2.4,2.2,2.2,3.8C69.1,36.9,67.6,38.2,65.7,38.2z"/>
	<path class="st0" d="M34.6,65.2c0,1.7-0.5,2.6-1.7,3c-1.9,0.7-3.1,0.4-4.2-0.9c-0.2-0.2-0.3-0.4-0.5-0.6c-1.4-1.8-0.8-3.8,1.3-4.6
		c0.3-0.1,0.6-0.2,1-0.2C33.4,61.4,34.6,62.4,34.6,65.2z"/>
	<path class="st0" d="M21.7,18c0-2.3,0.7-2.9,3-2.7c1.7,0.1,2.9,1.2,3.2,2.8c0.1,0.6,0.1,1.1-0.3,1.6c-0.4,0.6-0.9,1.2-1.5,1.6
		c-2.2,1.1-4.2,1-4.4-2.2C21.7,18.7,21.7,18.3,21.7,18z"/>
	<path class="st0" d="M66.5,52.1c1.2,0,2.2,0.5,3.1,1.2c0.2,0.1,0.3,0.3,0.3,0.5c0.6,2.4-1.8,4.8-4.2,4.4c-1.8-0.4-2.6-1.4-2.4-3.3
		C63.5,53.3,64.8,52.1,66.5,52.1z"/>
	<path class="st1" d="M78.6,62.1c0,1.4-0.1,2.8-1.6,3.6c-0.6,0.3-1.3,0.4-1.9,0.1c-1.5-0.7-2.3-1.9-2.9-3.4c-0.1-0.3-0.1-0.6,0-0.9
		c0.2-1.1,2.2-2.5,3.4-2.4C77.3,59.3,78.6,60.6,78.6,62.1z"/>
	<path class="st0" d="M7.3,44.5c0-2,1.2-2.9,3.5-3c1.8,0,2.9,1.2,2.9,2.9c0,1.6-1.7,3.8-2.9,3.8C9.1,48.2,7.3,46.3,7.3,44.5z"/>
	<path class="st0" d="M54.5,80.1c0,2.8-2.5,4.3-4.9,2.9c-1.1-0.6-2-2.2-1-3.7c0.7-1,1.5-1.8,2.8-2C53.3,76.9,54.5,78.1,54.5,80.1z"
		/>
	<path class="st1" d="M79.8,32.7c-0.2,0.9-0.3,2.3-1.6,2.9c-1.3,0.6-2.6,0.3-3.7-0.6c-0.4-0.3-0.6-0.7-0.7-1.1
		c-0.2-1.2,0.7-3.5,1.8-4.2c0.5-0.4,1.1-0.3,1.7-0.1c0.9,0.4,1.4,1.2,2.2,1.8C79.9,31.6,79.9,32,79.8,32.7z"/>
	<path class="st1" d="M81.4,37.2c1.4,0,2.5,1,2.5,2.4c0,1.5-1.3,3-2.5,3c-1.3,0-2.7-1.2-2.7-2.3C78.6,38.5,79.8,37.2,81.4,37.2z"/>
	<path class="st0" d="M67.5,47.4c-0.1,1.7-1.1,2.8-2.5,2.7c-1.4-0.1-2.8-1.5-2.7-2.8c0.1-1.2,1.2-2.2,2.3-2.2
		C65.8,45.1,67.8,46.2,67.5,47.4z"/>
	<path class="st1" d="M69.6,70.2c0-1.1,1.3-2.1,2.8-2.1c1.2,0,2.8,1.5,2.7,2.7c0,1-2.1,2.3-3.5,2.3C70.5,73,69.6,71.8,69.6,70.2z"/>
	<path class="st0" d="M39.2,67.7c-1.3,0-2.5-1.3-2.5-2.7c0-1.3,1.2-2.4,2.6-2.4c1.1,0,2.4,1,2.4,1.7C41.7,66.6,40.9,67.7,39.2,67.7z
		"/>
	<path class="st0" d="M12.3,35.8c0,1-1.3,2.5-2.5,2.7C8.9,38.7,8,38,7.6,36.9c-0.5-1.4-0.2-2.5,1-3.5c0.1-0.1,0.3-0.2,0.4-0.2
		C10.1,33,12.2,34.7,12.3,35.8z"/>
	<path class="st0" d="M28.3,12c0-0.9,0.8-1.6,1.8-1.7c1.1-0.1,2,0.3,2.8,1c0.1,0.1,0.2,0.2,0.2,0.3c0.2,0.5,0.2,1-0.2,1.5
		c-0.6,0.7-0.6,1.9-1.9,1.8C29.7,14.8,28.3,13.4,28.3,12z"/>
	<path class="st1" d="M42.5,24.2c0.4,0.1,1.1-0.2,1.4,0.5c0.3,0.9,0.7,1.9,0,2.9c-0.1,0.2-0.3,0.3-0.5,0.4c-1.1,1.4-2.4,1.4-3.2-0.2
		C38.8,25.2,39.4,24.4,42.5,24.2z"/>
	<path class="st0" d="M26.1,51.4c1.6,0,2.5,0.8,2.7,2c0.1,0.9-0.7,2.4-1.6,2.5c-1.1,0.2-2-0.4-2.8-1.1c-0.6-0.5-0.8-1.3-0.4-2
		C24.6,51.9,25.4,51.4,26.1,51.4z"/>
	<path class="st1" d="M60.7,31.7c-0.1,1.2-1.3,2.4-2.5,2.4c-1.1,0-2-1.3-2-2.8c0.1-1.2,1.1-2.1,2.2-2C60.3,29.4,60.8,30,60.7,31.7z"
		/>
	<path class="st0" d="M42.6,84.9c-1.2,0-2-0.9-2-2.1c0-1.3,0.9-2.3,2.2-2.3c1.2,0,2.4,1.4,2.4,2.8C45.2,84,43.8,84.9,42.6,84.9z"/>
	<path class="st1" d="M38.8,31.3c0,1.1-0.6,1.9-1.4,1.9c-1.1,0-2-0.9-2-2c0-0.8,0.9-1.5,2-1.5C38.5,29.7,38.8,30.1,38.8,31.3z"/>
	<path class="st0" d="M34,57.3c0,1-0.6,1.7-1.6,1.7c-0.9,0-1.8-0.7-1.8-1.5c0-0.8,0.9-2,1.6-2C33.1,55.5,34,56.4,34,57.3z"/>
	<path class="st1" d="M67.3,77.8c-1.2,0-2.2-0.8-2.3-1.7c0-0.7,1.1-1.5,2.2-1.5c1,0,1.7,0.8,1.6,1.9C68.8,77.5,68.3,77.8,67.3,77.8z
		"/>
	<path class="st0" d="M38,8c1.1,0,2.1,0.9,2,2.1c0,0.6-1.1,1.2-2.1,1.2c-0.7,0-1.5-0.8-1.4-1.5C36.5,8.8,37.2,8,38,8z"/>
	<path class="st1" d="M50,30.9c0-1.1,0.6-1.8,1.3-1.8c1.1,0,2,1.2,2,2.4c0,0.7-0.9,1.3-1.8,1.3C50.7,32.7,50,31.8,50,30.9z"/>
	<path class="st0" d="M13.9,28.6c0,0.8-0.9,1.7-1.7,1.7c-1,0-1.9-0.6-1.9-1.3c0-1.2,1.1-2.1,2.2-2.1C13.4,27,13.9,27.6,13.9,28.6z"
		/>
	<path class="st1" d="M84.1,47.5c0,0.9-0.9,1.8-1.8,1.8c-0.8,0-1.5-1-1.5-2c0-0.9,0.7-1.6,1.6-1.5C83.3,45.9,84.1,46.7,84.1,47.5z"
		/>
	<path class="st0" d="M61.4,43.5c-0.8,0-1.7-1.1-1.7-2c0-0.7,0.8-1.3,1.8-1.3c0.7,0,1.5,0.9,1.5,1.7C62.9,42.8,62.3,43.5,61.4,43.5z
		"/>
	<path class="st0" d="M37,81.7c0,0.9-1,2.1-1.8,2.1c-0.8,0-1.6-0.7-1.6-1.6c0-1.1,0.6-1.6,1.8-1.5C36.4,80.7,37,81.1,37,81.7z"/>
	<path class="st0" d="M45.6,61.2c1.1,0,1.7,0.6,1.7,1.7c0,1-0.7,1.6-1.8,1.6c-0.8,0-1.4-0.7-1.4-1.8C44,61.8,44.6,61.2,45.6,61.2z"
		/>
	<path class="st1" d="M81.2,53.1c0.7,0,1.2,0.5,1.2,1.3c0,0.7-0.7,1.3-1.4,1.4c-0.7,0-1.1-0.5-1.1-1.3
		C79.9,53.6,80.5,53.1,81.2,53.1z"/>
	<path class="st0" d="M44.9,10.6c-0.8,0-1-0.5-1.1-1.1C43.8,8.8,44.4,8,44.9,8c0.8,0,1.4,0.6,1.3,1.4C46.2,10.2,45.7,10.6,44.9,10.6
		z"/>
	<path class="st0" d="M17.2,23c0,0.7-0.6,1.3-1.3,1.2c-0.5-0.1-1.2-0.1-1.2-0.9c0-0.8,0.5-1.4,1.2-1.4C16.6,21.9,17.2,22.5,17.2,23z
		"/>
	<path class="st1" d="M62.2,79.7c0,0.7-0.5,1-1.4,1c-0.6,0-0.9-0.4-0.9-1c0-0.7,0.3-1.3,1.1-1.4C61.6,78.2,62.2,78.8,62.2,79.7z"/>
	<path class="st0" d="M28.9,80.7c-0.7,0-1-0.5-1.1-1.1c0-0.7,0.6-1.3,1.2-1.3c0.7,0.1,1,0.5,1,1.2C30,80.4,29.7,80.7,28.9,80.7z"/>
	<path class="st0" d="M50.3,60.4c-0.2,0.5-0.2,1.1-0.9,1.1c-0.8,0-1-0.5-1-1.1c0-0.5,0.3-0.9,0.8-0.9C49.7,59.5,50.2,59.8,50.3,60.4
		z"/>
	<path class="st1" d="M35,34.1c0.7,0,0.8,0.4,0.8,0.9c0,0.6-0.4,1-1,0.9c-0.6,0-0.8-0.5-0.9-1C34,34.3,34.5,34.2,35,34.1z"/>
	<path class="st0" d="M37.3,58.6c0,0.6-0.3,1-0.9,1c-0.6,0-1-0.4-0.9-0.9c0.1-0.5,0.3-1,0.9-1C37,57.7,37.3,58,37.3,58.6z"/>
	<path class="st1" d="M47,30.6c0.8,0,1.2,0.4,1.1,0.9c0,0.6-0.4,1-1,1c-0.5,0-0.8-0.5-0.8-0.9C46.4,31,46.6,30.6,47,30.6z"/>
	<path class="st0" d="M59,38.8c0,0.6-0.5,0.9-0.9,0.9c-0.5,0.1-0.8-0.4-0.8-0.8c0-0.5,0.3-0.9,0.8-0.9C58.6,37.9,58.9,38.2,59,38.8z
		"/>
</g>
</svg>
