<?xml version="1.0" encoding="utf-8"?>
<!-- Generator: Adobe Illustrator 26.0.1, SVG Export Plug-In . SVG Version: 6.00 Build 0)  -->
<svg version="1.1" id="Layer_1" xmlns="http://www.w3.org/2000/svg" xmlns:xlink="http://www.w3.org/1999/xlink" x="0px" y="0px"
	 viewBox="0 0 100 100" style="enable-background:new 0 0 100 100;" xml:space="preserve">
<style type="text/css">
	.st0{fill:#FFFFFF;}
	.st1{fill:#FDD656;}
	.st2{fill:#D4DF8E;}
	.st3{fill:#F7DD8B;}
	.st4{fill:#FBC22F;}
	.st5{fill:#9B9B9D;}
	.st6{fill:#9B9C9E;}
	.st7{fill:#9C9D9F;}
	.st8{fill:#A0B457;}
	.st9{fill:#9D9D9F;}
	.st10{fill:#D6D6D7;}
	.st11{fill:#9C9C9E;}
	.st12{fill:#D8D8D9;}
	.st13{fill:#D9D9DA;}
	.st14{fill:#CBCBCC;}
	.st15{fill:#D1D1D2;}
	.st16{fill:#D6D6D6;}
	.st17{fill:#CDCCCE;}
	.st18{fill:#DCDCDC;}
	.st19{fill:#CECFCF;}
	.st20{fill:#E0E7BF;}
	.st21{fill:#E2E3E3;}
	.st22{fill:#A8A9AB;}
	.st23{fill:#C6C7C7;}
	.st24{fill:#C6C6C7;}
	.st25{fill:#DBDBDC;}
	.st26{fill:#C9C9CA;}
	.st27{fill:#CDCDCE;}
	.st28{fill:#DADADB;}
	.st29{fill:#BFBFC0;}
	.st30{fill:#CBCBCD;}
	.st31{fill:#EAEAEA;}
	.st32{fill:#CECECF;}
	.st33{fill:#D7D7D7;}
	.st34{fill:#D9D8D9;}
	.st35{fill:#CACACB;}
	.st36{fill:#C8C8C9;}
	.st37{fill:#C5C6C7;}
	.st38{fill:#CBCCCD;}
	.st39{fill:#C5C6C6;}
	.st40{fill:#A6A6A8;}
	.st41{fill:#E3E9C4;}
	.st42{fill:#A6A7A9;}
	.st43{fill:#E3E3E3;}
	.st44{fill:#EBEBEB;}
	.st45{fill:#EFEFEF;}
	.st46{fill:#AAAAAC;}
	.st47{fill:#EDEDEE;}
	.st48{fill:#C3C3C4;}
	.st49{fill:#CECFD0;}
	.st50{fill:#C4C5C5;}
	.st51{fill:#C8C8C8;}
	.st52{fill:#ABACAD;}
	.st53{fill:#C7C7C9;}
	.st54{fill:#C3C4C5;}
	.st55{fill:#C2C3C3;}
	.st56{fill:#C7C7C8;}
	.st57{fill:#E4E4E4;}
	.st58{fill:#C6C5C7;}
	.st59{fill:#E2E8C1;}
	.st60{fill:#F8F8F8;}
	.st61{fill:#E3E2E3;}
	.st62{fill:#EDEDEC;}
	.st63{fill:#F1F0F0;}
	.st64{fill:#EEEEEE;}
	.st65{fill:#ECEBEB;}
	.st66{fill:#C8C9C9;}
</style>
<g>
	<path class="st0" d="M10.61,31.75c25.79,0.03,51.57,0.03,77.36,0.01c0.85,0,1.17,0.14,1.16,1.1c-0.04,11.34-0.02,22.67-0.03,34.01
		c0,0.38-0.07,0.76-0.11,1.14c-0.77,0.01-1.55,0.02-2.32,0.03c-0.41,0.21-0.84,0.35-1.31,0.31c-1.43,0.09-2.86,0.07-4.29,0.07
		c-21.29,0-42.58,0-63.86,0c-1.35,0-2.71,0.02-4.06-0.07c-0.47,0.05-0.9-0.09-1.31-0.31c-0.77-0.01-1.54-0.03-2.32-0.04
		c-0.02-0.38-0.07-0.77-0.07-1.15c0-11.3,0.01-22.6-0.02-33.89C9.43,32.01,9.62,31.74,10.61,31.75"/>
	<path class="st1" d="M18.78,54.81c-1.31-1.29-1.78-2.94-2.08-4.68c-0.33-0.93,0.03-1.54,0.88-1.96c3.54-1.73,7.1-3.42,10.65-5.12
		c0.59-0.28,1.18-0.57,1.76-0.89c0.52-0.29,1.05-0.5,1.65-0.21c0.87,0.48,1.44,1.22,1.86,2.1c-0.69,1.02-1.81,1.56-2.77,2.21
		c-3.7,2.51-7.28,5.21-11.01,7.68C19.35,54.19,19.15,54.58,18.78,54.81z"/>
	<path class="st2" d="M34.9,47.8c0.2,1.49,0.46,2.99-0.26,4.43c-0.22,0.52-0.73,0.86-0.88,1.43c-0.12,0.18-0.29,0.31-0.48,0.41
		c-0.49,0.16-0.76,0.52-0.92,0.99c-0.12,0.19-0.29,0.31-0.49,0.41c-0.57,0.22-0.94,0.63-1.13,1.21c-0.12,0.19-0.29,0.31-0.49,0.41
		c-0.46,0.16-0.76,0.57-1.22,0.72c-3.19,0.59-6.25,0.49-8.93-1.64c-0.36-0.28-0.68-0.61-1.01-0.92c0.85-0.56,1.85-0.75,2.77-1.14
		c3.59-1.53,7.21-2.98,10.81-4.48C33.61,49.23,34.45,48.77,34.9,47.8z"/>
	<path class="st3" d="M31.63,41.96c-1.51,0.17-2.69,1.13-4.02,1.72c-3.31,1.48-6.52,3.17-9.8,4.71c-0.82,0.38-1.22,0.86-1.12,1.75
		c-0.42-1.95,0.15-3.78,1.01-5.43C20.37,39.64,27.14,38.08,31.63,41.96z"/>
	<path class="st4" d="M34.9,47.8c0.09,0.93-0.3,1.35-1.22,1.72c-4.41,1.75-8.77,3.61-13.14,5.45c-0.47,0.2-0.94,0.34-1.46,0.28
		c-0.1-0.14-0.21-0.29-0.31-0.43c0-0.45,0.17-0.75,0.58-1.03c3.19-2.2,6.33-4.47,9.55-6.63c1.53-1.03,2.93-2.24,4.58-3.09
		C34.48,45.11,34.75,46.43,34.9,47.8z"/>
	<path class="st5" d="M79.54,47.52c1.47,0,2.79,1.1,2.64,2.4c-0.15,1.28-0.9,2.57-2.74,2.55c-1.43-0.02-2.43-0.98-2.44-2.37
		C77,48.4,77.86,47.52,79.54,47.52z"/>
	<path class="st6" d="M72.19,52.5c-1.1-0.08-2.04-0.33-2.5-1.43c-0.41-0.98-0.29-1.91,0.31-2.74c0.7-0.97,1.75-0.91,2.75-0.74
		c0.87,0.14,1.54,1.39,1.35,2.29c-0.08,0.41-0.34,0.47-0.67,0.47c-0.5,0-1.01-0.03-1.51,0.01c-0.34,0.03-0.9-0.25-0.95,0.31
		c-0.04,0.44,0.44,0.71,0.87,0.81c0.33,0.07,0.7,0.07,1.03,0.01c0.4-0.07,0.8-0.21,0.89,0.36c0.09,0.55-0.44,0.43-0.71,0.54
		C72.78,52.49,72.45,52.47,72.19,52.5z"/>
	<path class="st7" d="M55.72,49.95c0-0.27-0.01-0.54,0-0.81c0.02-0.88-0.3-2.09,1.35-1.35c0.06,0.03,0.15-0.03,0.22-0.05
		c2.61-0.49,2.87-0.27,2.87,2.39c0,0.46,0,0.93,0,1.39c0,0.47-0.07,0.86-0.66,0.87c-0.58,0.01-0.71-0.34-0.71-0.83
		c0.01-0.66,0-1.31,0-1.97c0-0.57-0.04-1.15-0.82-1.11c-0.69,0.04-1.03,0.45-1.02,1.15c0.01,0.66-0.01,1.31,0,1.97
		c0.01,0.44-0.12,0.78-0.63,0.77c-0.52-0.01-0.61-0.38-0.6-0.8C55.73,51.04,55.72,50.49,55.72,49.95z"/>
	<path class="st6" d="M53.43,49.18c-0.21-0.98-0.95-0.76-1.57-0.62c-0.46,0.1-0.8,0.1-0.87-0.4c-0.08-0.5,0.4-0.5,0.7-0.58
		c2.11-0.55,3.11,0.21,3.11,2.35c0,0.42-0.01,0.85,0,1.27c0.02,0.84-0.01,1.58-1.2,0.95c-0.35-0.19-0.71,0.21-1.09,0.27
		c-0.77,0.11-1.5,0.03-1.9-0.74c-0.36-0.7-0.24-1.35,0.48-1.8c0.5-0.2,1-0.4,1.56-0.34C52.98,49.58,53.28,49.53,53.43,49.18z"/>
	<path class="st7" d="M45.98,48.46c0.56-0.91,1.51-1.24,2.67-0.9c0.95,0.28,1.31,0.97,1.35,1.92c0.03,0.65-0.23,0.92-0.88,0.88
		c-0.54-0.03-1.08-0.01-1.62,0c-0.23,0-0.5,0-0.56,0.29c-0.05,0.25,0.12,0.43,0.32,0.57c0.51,0.37,1.08,0.39,1.66,0.23
		c0.34-0.09,0.62-0.09,0.74,0.29c0.13,0.43-0.22,0.52-0.51,0.62c-1.29,0.49-2.85-0.1-3.4-1.29C45.39,50.16,45.63,49.31,45.98,48.46z
		"/>
	<path class="st8" d="M31.93,55.24c0.11-0.08,0.23-0.15,0.34-0.23c0.22-0.5,0.59-0.87,1.03-1.17c0.12-0.08,0.24-0.16,0.36-0.23
		c0.1-0.25,0.24-0.47,0.45-0.65c0.2-0.18,0.42-0.4,0.7-0.25c0.23,0.12,0.16,0.41,0.14,0.62c-0.07,0.94,0.17,1.89-0.12,2.82
		c-1.28,2-3.22,2.1-5.28,1.84c-0.15-0.65,0.4-0.83,0.76-1.13c0.11-0.07,0.22-0.15,0.33-0.22C30.93,56.05,31.41,55.62,31.93,55.24z"
		/>
	<path class="st6" d="M39.72,49.43c0.39-0.31,0.16-0.61,0-0.92c-0.46-0.21-0.93-0.2-1.39-0.01c-0.49,0.33-0.74-0.02-0.85-0.39
		c-0.12-0.37,0.33-0.44,0.52-0.48c2-0.46,3.57-0.25,3.37,2.24c-0.03,0.35,0.01,0.7-0.01,1.04c-0.04,0.8,0.27,1.96-1.28,1.23
		c-0.18-0.08-0.49,0.17-0.75,0.23c-0.79,0.18-1.61,0.23-2.03-0.62c-0.44-0.89-0.17-1.65,0.76-2.11
		C38.59,49.39,39.19,49.72,39.72,49.43z"/>
	<path class="st6" d="M68.01,52.39c-0.96-0.11-1.59-0.4-1.61-1.49c-0.02-0.93,0.43-2-0.62-2.74c-0.15-0.11-0.05-0.46,0.2-0.58
		c0.44-0.2,0.46-0.58,0.45-0.97c-0.01-0.36,0.11-0.62,0.52-0.6c0.35,0.02,0.79,0.04,0.81,0.48c0.04,0.65,0.11,1.15,0.94,1.1
		c0.21-0.01,0.3,0.21,0.27,0.43c-0.04,0.27-0.22,0.39-0.47,0.44c-1.34,0.27-0.51,1.31-0.68,1.98c-0.16,0.6,0.19,0.93,0.85,0.9
		c0.37-0.01,0.64,0.26,0.49,0.6C68.94,52.45,68.35,52.23,68.01,52.39z"/>
	<path class="st7" d="M76.19,47.62c0,1.46,0,2.93,0.02,4.39c0.01,0.9-0.32,1.66-0.87,2.33c-0.28,0.34-0.68,0.79-1.14,0.45
		c-0.54-0.39-0.3-0.86,0.15-1.24c0.11-0.09,0.17-0.25,0.26-0.38c0.22-1.52,0.05-3.04,0.1-4.57C74.74,47.44,75.03,47.25,76.19,47.62z
		"/>
	<path class="st5" d="M63.65,49.4c0.19-1.12-0.58-0.95-1.23-0.88c-0.39,0.04-0.9,0.38-1.01-0.29c-0.11-0.7,0.52-0.64,0.94-0.68
		c0.49-0.05,1-0.03,1.49,0c0.49,0.04,0.95,0.25,1.08,0.73c0.34,1.24,0.3,2.55,0.07,3.76c-0.15,0.79-0.85,0.07-1.3-0.04
		c-0.49,0.2-0.62-0.01-0.53-0.47c0.05-0.15,0.14-0.29,0.22-0.42c0.28-0.37,0.13-0.75,0.06-1.14c-0.01-0.11,0-0.21,0.02-0.31
		C63.53,49.57,63.58,49.48,63.65,49.4z"/>
	<path class="st9" d="M42.25,49.9c0-0.35-0.01-0.7,0-1.04c0.02-0.79-0.24-1.87,1.23-1.01c0.28,0.17,0.9-0.28,1.37-0.37
		c0.27-0.05,0.7-0.07,0.74,0.33c0.04,0.34-0.1,0.7-0.58,0.68c-1.29-0.04-1.52,0.81-1.53,1.83c0,0.46-0.01,0.93,0,1.39
		c0,0.4-0.09,0.69-0.57,0.67c-0.41-0.02-0.65-0.21-0.66-0.64C42.25,51.14,42.25,50.52,42.25,49.9C42.25,49.9,42.25,49.9,42.25,49.9z
		"/>
	<path class="st10" d="M43.44,53.85c0.49,0.06,0.5,0.4,0.45,0.76c-0.06,0.43-0.4,0.4-0.7,0.4c-0.61,0-1.23,0-1.84-0.01
		c-0.15-0.18-0.31-0.18-0.47-0.01C40.57,55,40.26,55,39.96,55c-0.15-0.24-0.31-0.24-0.47,0l0,0c-0.7,0.23-1.37,0.43-1.4-0.69
		c0.96-0.89,2.11-0.49,3.18-0.42c0.42,0.03,0.82-0.09,1.23-0.04C42.82,54.41,43.13,53.95,43.44,53.85z"/>
	<path class="st11" d="M63.43,51.51c-0.15,0.3-0.1,0.49,0.28,0.49c-1.06,0.63-2.02,0.62-2.57-0.1c-0.48-0.62-0.39-1.28,0.08-1.89
		c0.06-0.08,0.2-0.1,0.3-0.15c0.68-0.4,1.4-0.42,2.14-0.21c0,0.08,0,0.16,0,0.24c-0.23,0.33-0.7,0.35-0.91,0.7
		C62.51,51.25,63.23,51.19,63.43,51.51z"/>
	<path class="st12" d="M49.02,57.09c-0.71,1.19-1.77,0.64-2.73,0.53c-0.23-0.03-0.59,0.3-0.68-0.1c-0.06-0.26,0.04-0.78,0.2-0.83
		c0.5-0.18,1.09-0.36,1.58-0.24c0.62,0.14,1.23,0.31,1.86,0.43C49.29,57.06,49.23,57.16,49.02,57.09z"/>
	<path class="st13" d="M69.94,54.07c0.7-0.48,1.4,0.08,2.1,0.01c0.28,0.3,0.23,0.61,0,0.91c-0.86,0.05-1.71-0.2-2.57,0.01
		c-0.15-0.11-0.3-0.24-0.46-0.01C68.7,55,68.39,55,68.08,55c-0.32-0.33-1.04-0.58-0.24-1.15c0.16,0.07,0.31,0.14,0.47,0.21
		c0.25-0.32,0.67,0.05,0.93-0.22c0.19,0,0.37,0.04,0.48,0.22C69.79,54.14,69.86,54.13,69.94,54.07z"/>
	<path class="st14" d="M53.9,57.56c-0.43,0.05-0.11-0.45-0.47-0.54c-0.18,1.12-1.32,0.53-1.89,1.04c-0.08-0.82-0.84-0.16-1.13-0.52
		c-0.13-0.23-0.15-0.47-0.03-0.71c1.17-0.12,2.34-0.38,3.51,0C54.1,57.09,54.09,57.32,53.9,57.56z"/>
	<path class="st10" d="M45.52,53.64c0.34,0.4,0.91,0.43,1.24,0.32c1.12-0.35,1.16,0.25,1.1,1.04c-0.17,0.42-0.63,0.27-0.91,0.45
		c-0.36-0.69-1.18-0.23-1.65-0.65C44.98,54.34,45.21,53.98,45.52,53.64z"/>
	<path class="st15" d="M65.08,54.29c0.78-0.53,1.67-0.47,2.55-0.46c-0.22,0.36-0.13,0.86-0.48,1.17c-0.45-0.23-0.8-0.74-1.42-0.09
		c-0.35,0.36-1.05-0.29-1.71,0.2c0.1-0.67,0.14-1.14,0.58-1.46C64.87,53.78,64.79,54.17,65.08,54.29z"/>
	<path class="st16" d="M37.91,57.75c-0.37,0.08-0.89,0.1-0.92-0.54c-0.02-0.51,0.58-0.94,0.88-0.85c0.49,0.14,1.22,0.5,1.24,1.01
		C39.14,58.06,38.4,57.6,37.91,57.75z"/>
	<path class="st17" d="M59.69,53.88c0.65-0.33,1.24,0.58,1.91,0.1c0.02-0.01,0.23,0.18,0.28,0.3c0.1,0.27-0.09,0.46-0.29,0.55
		c-0.37,0.17-0.78,0.28-1.17,0.41c-0.97,0.5-0.61-0.51-0.9-0.79c-0.09-0.07-0.13-0.16-0.14-0.26C59.4,54,59.55,53.95,59.69,53.88z"
		/>
	<path class="st18" d="M76.19,47.62c-1.02-0.23-1.35,0.16-1.36,1.21c-0.01,1.45,0.31,2.92-0.22,4.34c0-1.55,0.09-3.1-0.05-4.63
		c-0.06-0.7,0.66-1.01,0.49-1.64c0.36-0.36,0.74-0.35,1.14-0.06C75.9,47.1,75.95,47.36,76.19,47.62z"/>
	<path class="st19" d="M38.09,54.31c0.24,0.69,0.86,0.61,1.4,0.69c-0.38,0.63-0.84,0.8-1.35,0.15c-0.29-0.37-0.64-0.3-1.13-0.21
		c0.19-0.48,0.22-1.01,0.62-1.2C37.89,53.63,37.83,54.2,38.09,54.31z"/>
	<path class="st20" d="M34.83,56.16c0-1.08,0-2.16,0-3.36c-0.44,0.31-0.8,0.56-1.16,0.82c-0.2-0.83,0.5-1.03,0.97-1.38
		C35.41,53.51,35.15,54.83,34.83,56.16z"/>
	<path class="st15" d="M42.97,56.65c0.47-0.42,0.94,0.05,1.4,0c0.12,0.19,0.29,0.22,0.49,0.18c0.33,0.37-0.1,0.86-0.17,0.82
		c-0.43-0.21-1,0.4-1.33-0.25c-0.1-0.2-0.26-0.37-0.39-0.55c-0.05-0.04-0.07-0.09-0.06-0.14C42.94,56.68,42.95,56.65,42.97,56.65z"
		/>
	<path class="st21" d="M57.86,55c-0.7-0.19-1.4,0.42-2.11,0.02c0.02-0.16,0.09-0.3,0.19-0.42c0.24-0.27,0.41-0.6,0.75-0.76
		c0.39,0.08,0.77,0.15,1.16,0.23C58.03,54.38,58.01,54.69,57.86,55z"/>
	<path class="st22" d="M76.18,46.83c-0.38,0.02-0.76,0.04-1.14,0.06c-0.3-0.34-0.31-0.68,0.02-1.01c0.21-0.21,0.49-0.22,0.75-0.12
		C76.31,45.98,76.27,46.4,76.18,46.83z"/>
	<path class="st23" d="M42.04,57.55c-0.71,0.47-1.28-0.39-1.99-0.22c-0.13,0.03-0.08-0.45,0.13-0.53c0.52-0.2,1.07-0.32,1.63-0.15
		c0.07,0.06,0.11,0.14,0.13,0.23c0.02,0.18,0.06,0.36,0.1,0.53C42.04,57.46,42.04,57.51,42.04,57.55z"/>
	<path class="st24" d="M57.86,55c-0.23-0.31-0.21-0.62-0.01-0.93c0.61-0.06,1.23-0.13,1.84-0.19c-0.07,0.06-0.14,0.13-0.21,0.19
		C59.22,54.33,59.18,54.7,59,55C58.62,55,58.24,55,57.86,55z"/>
	<path class="st25" d="M50.4,56.84c0.14,0.23,0.18,0.46,0.03,0.71c-0.57,0.17-1.28,0.75-1.4-0.45c0.08-0.07,0.15-0.15,0.23-0.22
		C49.62,56.43,50.01,56.67,50.4,56.84z"/>
	<path class="st26" d="M50.54,54.97c0.32-0.7,0.69-1.2,1.42-1.11c0.21,0.03,0.14,0.5,0.06,0.71C51.73,55.34,51.13,54.93,50.54,54.97
		z"/>
	<path class="st27" d="M53.9,57.56c0-0.24,0-0.48,0-0.72c0.35-0.11,0.72-0.42,1.06-0.02c0.18,0.21,0.18,0.54,0.01,0.76
		C54.63,58.01,54.26,57.51,53.9,57.56z"/>
	<path class="st28" d="M54.14,55c-0.16,0-0.31,0-0.47,0c-0.4-0.46-0.29-0.92,0-1.38c0.2,0.07,0.27,0.39,0.57,0.29
		c0.3-0.1,0.54-0.02,0.58,0.34c0.04,0.35,0.05,0.72-0.45,0.76C54.29,54.91,54.22,54.8,54.14,55z"/>
	<path class="st29" d="M53.66,53.62c0,0.46,0,0.92,0,1.38c-0.32-0.03-0.78,0.15-0.85-0.32C52.74,54.11,53.19,53.83,53.66,53.62z"/>
	<path class="st30" d="M58.32,56.63c0.33-0.04,0.64,0.06,0.92,0.22c0.13,0.16,0.13,0.33,0,0.49c-0.38,0.09-0.66,0.72-1.14,0.21
		C57.8,57.16,57.87,56.85,58.32,56.63z"/>
	<path class="st26" d="M45.52,53.64c-0.08,0.39-0.15,0.77-0.23,1.16c-0.35,0.03-0.72,0.19-0.71-0.46
		C44.6,53.62,44.97,53.55,45.52,53.64z"/>
	<path class="st31" d="M43.44,53.85c-0.01,0.69-0.84,0.42-1.04,0.89c-0.09-0.05-0.24-0.08-0.28-0.15c-0.18-0.39,0.25-0.49,0.38-0.73
		C42.82,53.03,43.13,53.99,43.44,53.85z"/>
	<path class="st32" d="M56.16,57.72c-0.29-0.13-0.55-0.31-0.53-0.66c0.02-0.26,0.23-0.39,0.48-0.4c0.31-0.01,0.54,0.15,0.5,0.48
		C56.58,57.38,56.5,57.67,56.16,57.72z"/>
	<path class="st33" d="M49.47,54.09c0.31-0.14,0.61-0.36,1.06-0.1c-0.28,0.43-0.25,1.11-1.07,0.99
		C49.24,54.68,49.21,54.39,49.47,54.09z"/>
	<path class="st34" d="M59.95,56.63c0.27,0.26,0.93,0.07,0.87,0.67c-0.05,0.48-0.48,0.5-0.87,0.48
		C59.63,57.4,59.63,57.02,59.95,56.63z"/>
	<path class="st16" d="M62.72,54.79c-0.33-0.32-0.23-0.61,0.1-0.84c0.26-0.17,0.53-0.09,0.69,0.15c0.28,0.42,0.07,0.7-0.32,0.9
		C63.04,54.94,63.03,54.53,62.72,54.79z"/>
	<path class="st35" d="M48.79,54.98c-0.47,0.06-0.85-0.12-0.68-0.62c0.18-0.54,0.67-0.55,1.14-0.29c-0.01,0.05-0.01,0.1-0.02,0.15
		c-0.05,0.19-0.13,0.37-0.23,0.54C48.93,54.84,48.86,54.91,48.79,54.98z"/>
	<path class="st9" d="M45.98,48.46c-0.13,0.87-0.29,1.73-0.22,2.61C45.09,50.14,45.37,49.28,45.98,48.46z"/>
	<path class="st36" d="M56.01,54.76c-0.09,0.09-0.17,0.17-0.26,0.26c-0.37-0.39-0.34-0.87-0.09-1.25c0.18-0.28,0.53-0.21,0.77,0.07
		C56.19,54.1,56.28,54.51,56.01,54.76z"/>
	<path class="st37" d="M41.81,56.86c0-0.07,0-0.14,0-0.2c0.38,0,0.77,0,1.15,0c0,0.07,0.01,0.14,0.01,0.21
		c-0.17,0.42-0.38,0.79-0.93,0.69c0,0,0.01,0.01,0.01,0.01C41.88,57.36,41.82,57.12,41.81,56.86z"/>
	<path class="st38" d="M67.15,55c-0.01-0.46,0.1-0.87,0.48-1.17c0.07,0.01,0.14,0.01,0.21,0.02c-0.43,0.49,0.25,0.75,0.24,1.15
		C67.77,55,67.46,55,67.15,55z"/>
	<path class="st39" d="M72.04,54.99c0-0.3,0-0.61,0-0.91c0.34-0.19,0.61-0.15,0.67,0.27C72.79,54.85,72.53,55.05,72.04,54.99z"/>
	<path class="st40" d="M53.43,49.18c-0.58,0.88-1.58,0.37-2.33,0.7C51.71,49.12,52.72,49.65,53.43,49.18z"/>
	<path class="st41" d="M30.31,56.87c-0.08,0.49-0.53,0.73-0.76,1.13c-0.17-0.06-0.34-0.13-0.51-0.19
		C29.33,57.31,29.65,56.86,30.31,56.87z"/>
	<path class="st13" d="M57.62,57.55c-0.12-0.55-1.09-1.39,0.46-1.39c0.15,0.18,0.13,0.35-0.03,0.51
		C57.72,56.87,57.94,57.35,57.62,57.55z"/>
	<path class="st35" d="M59.49,54.31c0.57,0.05,0.12,1.13,0.94,0.93c-0.95,0.63-0.93-0.06-0.96-0.69c-0.05-0.06-0.07-0.11-0.05-0.17
		C59.45,54.33,59.47,54.31,59.49,54.31z"/>
	<path class="st42" d="M63.66,49.66c-0.72-0.05-1.43,0.05-2.14,0.21c0.58-0.72,1.4-0.38,2.12-0.47
		C63.65,49.49,63.66,49.57,63.66,49.66z"/>
	<path class="st43" d="M59.95,56.63c0,0.38,0,0.77,0,1.15c-0.15,0.01-0.3,0.01-0.45,0.02c-0.24-0.38-0.16-0.76-0.04-1.15
		C59.62,56.65,59.78,56.64,59.95,56.63z"/>
	<path class="st44" d="M56.01,54.76c0.04-0.36-0.18-0.83,0.42-0.93c0.09,0,0.17,0,0.26,0.01C56.43,54.13,56.59,54.72,56.01,54.76z"
		/>
	<path class="st45" d="M69.24,53.84c-0.25,0.33-0.61,0.21-0.93,0.22C68.33,52.78,68.89,53.76,69.24,53.84z"/>
	<path class="st46" d="M39.72,49.43c-0.51,0.43-1.11,0.17-1.67,0.2C38.57,49.28,39.15,49.41,39.72,49.43z"/>
	<path class="st36" d="M39.49,55c0.04-0.28-0.09-0.73,0.33-0.71c0.24,0.01,0.1,0.46,0.14,0.71C39.8,55,39.65,55,39.49,55z"/>
	<path class="st47" d="M57.87,56.64c0.07-0.16,0.14-0.31,0.22-0.47c0.19,0.1,0.23,0.28,0.23,0.47c-0.16,0.28-0.27,0.58-0.22,0.92
		c-0.08,0-0.16,0.01-0.24,0.01C57.69,57.25,57.67,56.94,57.87,56.64z"/>
	<path class="st48" d="M48.79,54.98c0-0.07,0-0.14,0-0.22c0.24-0.18,0.29-0.48,0.47-0.7c0,0-0.01,0.01-0.01,0.01
		c0.08-0.01,0.15,0,0.22,0.01c0,0.29,0,0.59,0,0.88C49.24,54.98,49.02,54.98,48.79,54.98z"/>
	<path class="st49" d="M69.94,54.07c0.13,0.1,0.22,0.22,0.09,0.36c-0.12,0.12-0.29,0.12-0.4-0.01c-0.13-0.14-0.03-0.27,0.1-0.36
		C69.79,54.07,69.86,54.07,69.94,54.07z"/>
	<path class="st50" d="M57.87,56.64c0,0.31-0.01,0.61-0.01,0.92c-0.08,0.12-0.16,0.13-0.23,0C57.77,57.27,57.31,56.82,57.87,56.64z"
		/>
	<path class="st51" d="M69.01,54.99c-0.04-0.19-0.35-0.47-0.01-0.55c0.3-0.07,0.32,0.35,0.47,0.56C69.32,55,69.17,55,69.01,54.99z"
		/>
	<path class="st52" d="M38.33,48.5c0.47-0.35,0.93-0.38,1.39,0.01C39.26,48.51,38.79,48.51,38.33,48.5z"/>
	<path class="st53" d="M44.86,56.84c-0.16,0.19-0.32,0.4-0.6,0.28c-0.02-0.01,0.07-0.3,0.11-0.46
		C44.57,56.63,44.74,56.66,44.86,56.84z"/>
	<path class="st54" d="M65.08,54.29c-0.55,0.07-0.35-0.4-0.47-0.64C65.08,53.63,65.05,53.98,65.08,54.29z"/>
	<path class="st55" d="M59.46,56.65c0.01,0.38,0.03,0.77,0.04,1.15c-0.51,0.08-0.15-0.32-0.26-0.47c0-0.16,0-0.33,0-0.49
		C59.31,56.78,59.39,56.72,59.46,56.65z"/>
	<path class="st56" d="M46.94,55.45c0.3-0.15,0.61-0.3,0.91-0.45C47.8,55.65,47.32,55.45,46.94,55.45z"/>
	<path class="st44" d="M59.49,54.31c-0.01,0.08-0.01,0.16-0.02,0.24C59.31,54.7,59.16,54.85,59,55c0-0.39,0.06-0.76,0.48-0.93
		C59.49,54.15,59.49,54.23,59.49,54.31z"/>
	<path class="st57" d="M40.88,54.99c0.05-0.17,0.1-0.5,0.14-0.5c0.3,0.01,0.29,0.28,0.33,0.5C41.19,55,41.04,55,40.88,54.99z"/>
	<path class="st58" d="M54.14,55c-0.05-0.17-0.1-0.34-0.13-0.51c0-0.01,0.13-0.08,0.17-0.06c0.26,0.12,0.16,0.37,0.19,0.58
		C54.29,55.01,54.21,55,54.14,55z"/>
	<path class="st30" d="M62.72,54.79c0.02-0.13,0.02-0.34,0.2-0.31c0.26,0.05,0.26,0.31,0.28,0.52
		C63.01,55.01,62.83,54.97,62.72,54.79z"/>
	<path class="st20" d="M31.93,55.24c-0.22,0.66-0.68,1.1-1.29,1.4C30.52,55.68,31.2,55.43,31.93,55.24z"/>
	<path class="st59" d="M33.3,53.85c-0.14,0.57-0.51,0.93-1.03,1.17C32.11,54.18,32.66,53.97,33.3,53.85z"/>
	<path class="st60" d="M78.37,50.05c0.14-0.72,0.09-1.63,1.08-1.65c0.91-0.02,1.17,0.73,1.2,1.52c0.03,0.82-0.24,1.53-1.13,1.57
		C78.61,51.53,78.52,50.71,78.37,50.05z"/>
	<path class="st61" d="M71.81,49.44c-0.28-0.13-0.87,0.25-0.81-0.42c0.04-0.46,0.44-0.7,0.9-0.71c0.43,0,0.76,0.28,0.77,0.68
		C72.69,49.61,72.14,49.35,71.81,49.44z"/>
	<path class="st62" d="M53.43,50.38c0.02,0.79-0.34,1.28-1.15,1.1c-0.6-0.14-0.54-0.62-0.22-1.06
		C52.51,50.12,52.96,50.02,53.43,50.38z"/>
	<path class="st40" d="M53.43,50.38c-0.46,0.01-0.91,0.02-1.37,0.04C52.5,49.98,52.95,49.46,53.43,50.38z"/>
	<path class="st63" d="M47.76,49.42c-0.3-0.08-0.8,0.16-0.78-0.4c0.01-0.42,0.36-0.69,0.78-0.69c0.41,0,0.82,0.2,0.84,0.63
		C48.64,49.57,48.09,49.33,47.76,49.42z"/>
	<path class="st64" d="M39.9,51.27c-0.14,0.09-0.28,0.17-0.41,0.26c-0.41,0.21-0.76,0.12-0.98-0.28c-0.19-0.36-0.07-0.67,0.28-0.89
		l0,0C40.05,50.05,40.16,50.14,39.9,51.27z"/>
	<path class="st46" d="M39.9,51.27c0.29-1.11-0.47-0.93-1.11-0.91c0.34-0.34,0.74-0.67,1.17-0.26C40.31,50.43,40.37,50.9,39.9,51.27
		z"/>
	<path class="st46" d="M38.79,50.36c-0.52,0.84-0.17,1.16,0.7,1.17c-0.51,0.43-0.91,0.25-1.17-0.28
		C38.09,50.78,38.25,50.45,38.79,50.36z"/>
	<path class="st65" d="M63.43,51.51c-1.26,0.02-1.36-0.1-0.93-1.16c1.26-0.3,1.34-0.24,1.15,0.93
		C63.58,51.36,63.5,51.44,63.43,51.51z"/>
	<path class="st42" d="M63.65,51.28c0.26-1.1-0.5-0.95-1.15-0.93c0.3-0.36,0.71-0.47,1.16-0.46C63.87,50.36,64.13,50.83,63.65,51.28
		z"/>
	<path class="st66" d="M47.64,57.24c-0.11,0.08-0.19,0.14-0.27,0.2c-0.06-0.09-0.16-0.17-0.16-0.26c0.01-0.08,0.13-0.14,0.2-0.21
		C47.48,57.05,47.55,57.13,47.64,57.24z"/>
	<path class="st0" d="M41.81,56.86c0.27,0.17,0.21,0.46,0.24,0.71C41.79,57.39,41.4,57.26,41.81,56.86z"/>
	<path class="st0" d="M49.26,54.07c-0.02,0.32,0.01,0.68-0.47,0.7C48.79,54.43,48.96,54.21,49.26,54.07z"/>
</g>
</svg>
