<?xml version="1.0" encoding="utf-8"?>
<!-- Generator: Adobe Illustrator 26.0.1, SVG Export Plug-In . SVG Version: 6.00 Build 0)  -->
<svg version="1.1" id="Layer_1" xmlns="http://www.w3.org/2000/svg" xmlns:xlink="http://www.w3.org/1999/xlink" x="0px" y="0px"
	 viewBox="0 0 100 100" style="enable-background:new 0 0 100 100;" xml:space="preserve">
<style type="text/css">
	.st0{fill:#FFFFFF;}
	.st1{fill:#FDC911;}
	.st2{fill:#FDFCFA;}
	.st3{fill:#FAC817;}
	.st4{fill:#F8C81E;}
	.st5{fill:#DCDCDB;}
	.st6{fill:#B8A045;}
	.st7{fill:#A9A8A8;}
	.st8{fill:#A1A0A0;}
	.st9{fill:#DBDADA;}
	.st10{fill:#9C9B9B;}
	.st11{fill:#B89936;}
	.st12{fill:#A5A3A4;}
	.st13{fill:#E2E2E2;}
	.st14{fill:#8F8E8E;}
	.st15{fill:#A7A5A6;}
	.st16{fill:#E6E5E5;}
	.st17{fill:#9A9898;}
	.st18{fill:#AFADAD;}
	.st19{fill:#8D8B8B;}
	.st20{fill:#8B8989;}
	.st21{fill:#8B8A8A;}
	.st22{fill:#C6AD58;}
	.st23{fill:#ABAAAA;}
	.st24{fill:#929091;}
	.st25{fill:#BDBCBC;}
	.st26{fill:#959494;}
	.st27{fill:#969595;}
	.st28{fill:#918F8F;}
	.st29{fill:#C1BFBF;}
	.st30{fill:#878485;}
	.st31{fill:#8D7D51;}
	.st32{fill:#756A46;}
	.st33{fill:#C4C2C2;}
	.st34{fill:#6D6448;}
	.st35{fill:#937F41;}
	.st36{fill:#BEBDBD;}
	.st37{fill:#A99652;}
	.st38{fill:#90792E;}
	.st39{fill:#727171;}
	.st40{fill:#A3A2A2;}
	.st41{fill:#B3B1B2;}
	.st42{fill:#949292;}
	.st43{fill:#DCDCDC;}
	.st44{fill:#DDDCDC;}
	.st45{fill:#CBCACA;}
	.st46{fill:#A8A7A7;}
	.st47{fill:#C3C1C2;}
	.st48{fill:#776B4C;}
	.st49{fill:#7D7C7C;}
	.st50{fill:#BFA03A;}
	.st51{fill:#7E724F;}
	.st52{fill:#C0A54B;}
	.st53{fill:#BCBBBB;}
	.st54{fill:#8F8D8D;}
	.st55{fill:#6F6B66;}
	.st56{fill:#7A6C3C;}
	.st57{fill:#C4C3C3;}
	.st58{fill:#B9B7B8;}
	.st59{fill:#948250;}
	.st60{fill:#B0AFAF;}
	.st61{fill:#A6A4A4;}
	.st62{fill:#7F6B2B;}
	.st63{fill:#9A9899;}
	.st64{fill:#8C8A8A;}
	.st65{fill:#B8B7B7;}
	.st66{fill:#817F80;}
	.st67{fill:#ADACAC;}
	.st68{fill:#DDDDDD;}
	.st69{fill:#E0E0DF;}
	.st70{fill:#8A8889;}
	.st71{fill:#7B6C38;}
	.st72{fill:#B5B4B4;}
	.st73{fill:#D3D2D2;}
	.st74{fill:#807D7E;}
	.st75{fill:#76662D;}
	.st76{fill:#7A7879;}
	.st77{fill:#C3C2C2;}
	.st78{fill:#E6E5E4;}
	.st79{fill:#9F9E9E;}
	.st80{fill:#9F9D9E;}
	.st81{fill:#8B898A;}
	.st82{fill:#A88E36;}
	.st83{fill:#A6A299;}
	.st84{fill:#766428;}
	.st85{fill:#7E7B77;}
	.st86{fill:#908E8F;}
	.st87{fill:#767475;}
	.st88{fill:#757273;}
	.st89{fill:#ECECEC;}
	.st90{fill:#726539;}
	.st91{fill:#9C9A9B;}
	.st92{fill:#7D7357;}
	.st93{fill:#747274;}
	.st94{fill:#514B41;}
	.st95{fill:#655524;}
	.st96{fill:#7D704B;}
	.st97{fill:#828181;}
	.st98{fill:#949293;}
	.st99{fill:#665E46;}
	.st100{fill:#F9F8F6;}
	.st101{fill:#E9E5DB;}
	.st102{fill:#9F8D49;}
	.st103{fill:#87712C;}
	.st104{fill:#89753B;}
	.st105{fill:#867230;}
	.st106{fill:#917F49;}
	.st107{fill:#6F654B;}
	.st108{fill:#AF9641;}
	.st109{fill:#746644;}
	.st110{fill:#A68D39;}
	.st111{fill:#CCC7BC;}
	.st112{fill:#907D3C;}
	.st113{fill:#8F8154;}
	.st114{fill:#7E6B2C;}
	.st115{fill:#EDBE1E;}
	.st116{fill:#95885E;}
	.st117{fill:#786429;}
	.st118{fill:#D1AA2B;}
	.st119{fill:#6E6446;}
	.st120{fill:#847C61;}
	.st121{fill:#5D512E;}
	.st122{fill:#A48B31;}
	.st123{fill:#97803B;}
	.st124{fill:#655B3B;}
	.st125{fill:#8B732B;}
	.st126{fill:#8B8A8B;}
	.st127{fill:#ACABAB;}
	.st128{fill:#BFBEBE;}
	.st129{fill:#6D6B6C;}
	.st130{fill:#858384;}
	.st131{fill:#838181;}
	.st132{fill:#9D9B9C;}
	.st133{fill:#717070;}
	.st134{fill:#C7C6C6;}
	.st135{fill:#7D7B7B;}
	.st136{fill:#757474;}
	.st137{fill:#979595;}
	.st138{fill:#C1BFC0;}
	.st139{fill:#939292;}
	.st140{fill:#D5D5D5;}
	.st141{fill:#8C8A8B;}
</style>
<g>
	<path class="st0" d="M4.31,31.13C4.45,29,4.45,29,6.63,29c29.19,0,58.38,0,87.57,0c0.49,0,0.98,0.01,1.46,0.02
		c0.11,1.4,0.49,2.76,0.49,4.17c0,11.64,0,23.28,0,34.92c0,0.13,0,0.27,0,0.4c-0.03,2.23-0.36,2.53-2.58,2.43
		c-14.14,0.13-28.28,0.04-42.42,0.06c-13.96,0.02-27.93,0-41.89,0.01c-0.84,0-1.68-0.01-2.52-0.06C6.25,71,5.77,70.99,5.28,70.94
		C4.44,70.87,4,70.42,3.92,69.59C3.86,69.06,3.86,68.53,3.86,68c0-11.48,0-22.95,0.01-34.43C3.87,32.74,3.72,31.86,4.31,31.13z"/>
	<path class="st1" d="M38.26,52.17c-0.09-0.09-0.17-0.19-0.26-0.28c0.15-0.69,0.84-0.8,1.27-1.2c0.18-0.13,0.36-0.24,0.51-0.39
		c0.08-0.06,0.08-0.15,0.01-0.14c-0.06,0.01-0.11,0.1-0.17,0.16c-0.23,0.21-0.46,0.39-0.71,0.56c-1.17,0.79-2.44,1.24-3.86,1.29
		c-0.94,0.01-1.88-0.01-2.82-0.02c-2.05-0.81-3.19-2.65-3-4.86c0.04-0.48,0.09-0.96,0.14-1.44c1-3.31,3.61-5.04,6.67-4.46
		c0.68,0.13,1.26,0.39,1.57,1.05c0.1,0.4,0.1,0.82,0.2,1.22c0,0.75-0.16,1.46-0.52,2.13c-0.18,0.28-0.42,0.51-0.7,0.69
		c-0.77,0.3-1.42,0.83-2.19,1.12c-0.41,0.13-0.84,0.2-1.25,0.32c-0.43,0.11-0.91-0.01-1.32,0.21c-0.24,0.3,0,0.44,0.19,0.6
		c0.1,0.06,0.19,0.13,0.29,0.2c1.74,1.11,3.68,1.03,5.4-0.28c1.77-1.35,3.52-2.75,4.87-4.55c-0.06-0.56-0.42-0.26-0.66-0.22
		c-0.99,0.14-1.97,0.27-2.95-0.08c-0.6-0.44-0.87-1-0.6-1.73c0.25-0.69,0.87-0.6,1.44-0.7c1.81-0.31,3.6-0.41,5.41,0
		c0.44,0.1,0.87,0.2,1.18,0.54c0.39,0.91-0.13,1.71-0.31,2.56c-0.03,0.11-0.08,0.22-0.15,0.32c-0.24,0.24-0.51,0.45-0.68,0.75
		c-0.32,0.48-0.78,0.86-1.04,1.38c-0.21,0.36-0.48,0.65-0.85,0.86c-0.35,0.17-0.6,0.43-0.73,0.81c-0.12,0.24-0.31,0.41-0.5,0.58
		c-0.15,0.27,0.1,0.26,0.25,0.33c1.02,0.37,2,0.01,2.99-0.11c0.78-0.1,0.63-0.69,0.68-1.2c0.1-1.26,0.09-2.56,1.21-3.46
		c0.32-0.36,0.64-0.73,0.96-1.09c2.44-2.73,3.66-2.93,6.92-1.17c0.4,1.07-0.52,2.04-0.22,3.1c0.01,0.13,0.01,0.27-0.01,0.4
		c-0.13,0.69-0.38,1.35-0.64,2c0,0.12-0.01,0.24-0.01,0.35c-0.13,0.31-0.09,0.67-0.22,0.99c-0.01,0.03-0.03,0.07-0.05,0.1
		c0.04,0,0.08-0.01,0.13-0.01c0.12,0.02,0.17,0.08,0.15,0.2c0.6,0.74,1.33,0.68,2.16,0.43c0.5-0.15,0.87-0.65,1.45-0.54
		c0.32,0.56,0.02,0.96-0.36,1.34c-0.07,0.06-0.14,0.13-0.21,0.19c-0.23,0.42-0.7,0.56-1.01,0.89c-0.23,0.17-0.49,0.26-0.78,0.26
		c-0.66,0.03-1.31,0-1.94-0.22c-0.47-0.19-0.94-0.38-1.42-0.57c-0.71,0.52-1.51,0.82-2.36,1.04c-0.58,0.1-1.09-0.03-1.55-0.41
		c-0.99-0.4-2.02-0.12-3.01-0.05c-1.18,0.08-2.37,0.16-3.55,0.35C40.55,52.23,39.4,52.44,38.26,52.17z"/>
	<path class="st2" d="M43.07,44.14c-0.79,0.89-1.47,1.94-2.41,2.62c-1.5,1.08-2.69,2.65-4.58,3.11c-1.46,0.36-2.89,0.39-4.06-0.81
		c-0.36-0.56,0.04-0.78,0.46-0.94c0.44-0.16,0.91-0.24,1.36-0.4c0.34-0.19,0.73-0.25,1.06-0.46c0.59-0.3,1.22-0.55,1.65-1.09
		c0.14-0.13,0.28-0.26,0.43-0.39c0.7-0.52,0.6-1.34,0.77-2.07c-0.11-0.43-0.21-0.87-0.39-1.28c-1.6-1.63-4.86-1.18-6.46,0.95
		c-0.58,0.76-1.01,1.64-1.51,2.46c0.05-1.69,1.7-3.72,3.5-4.38c1.67-0.6,3.26-0.68,4.74,0.46c0.13,0.1,0.26,0.28,0.44,0.13
		c2.28-1.79,4.86-1.08,7.34-0.8c1.41,0.16,1.9,1.16,1.61,2.57c-0.06,0.3-0.51,0.78,0.24,0.9c-0.57,1.39-1.1,2.79-0.84,4.34
		c0.06,0.35-0.06,0.64-0.45,0.66c-1.35,0.09-2.7,0.59-4.04-0.01c-0.23-0.29-0.36-0.56,0.09-0.76c0.13-0.14,0.26-0.27,0.39-0.41
		c0.19-0.4,0.61-0.63,0.8-1.04c0.41-0.06,0.59-0.35,0.72-0.69c0.56-0.32,0.9-0.86,1.28-1.35c0.19-0.29,0.43-0.53,0.68-0.76
		l-0.01,0.01c0.34-0.8,0.71-1.59,0.46-2.5c-0.57-0.87-1.53-0.79-2.37-0.89c-1.49-0.18-2.99,0.02-4.47,0.21
		c-1.16,0.15-1.26,0.89-0.35,2.12c0.94,0.24,1.89,0.14,2.84,0.05C42.42,43.67,42.87,43.59,43.07,44.14z"/>
	<path class="st3" d="M70.51,38.87c-0.13,0.12-0.26,0.25-0.38,0.37c-0.19,0.62-0.67,1.04-1.07,1.51c-0.06,0.08-0.12,0.17-0.18,0.25
		c-0.68,0.33-0.79,1.2-1.47,1.53c-0.18,0.57-0.65,0.9-1.04,1.3c-0.3,0.25-0.46,0.58-0.58,0.94c-0.14,0.24-0.23,0.5-0.37,0.74
		c-0.08,0.15-0.15,0.3-0.25,0.44c-0.38,0.55-0.4,1.37-1.21,1.59c-0.4-0.14-0.49-0.48-0.49-0.85c-0.02-2.5,0.07-5,0.56-7.46
		c0.12-0.61,0.35-1.28,1.23-0.73c0.07,0.9,0.21,1.8-0.12,2.69c-0.11,0.31,0,0.59,0.19,0.84c1.43-0.76,2.21-2.16,3.26-3.3
		c0.36-0.39-0.25-0.55-0.54-0.69c-0.96-0.46-1.94-0.87-2.89-1.35c-0.56-0.28-1.2-0.68-0.78-1.42c0.38-0.67,0.99-0.39,1.5-0.05
		c1.51,1,3.5,1.07,4.8,2.48C70.8,38.13,70.81,38.52,70.51,38.87z"/>
	<path class="st4" d="M62.39,52.63c-1.28-0.53-1.24-1.59-1-2.66c0.15-0.67,0.72-0.85,1.36-0.69c0.99,0.25,2.37-0.03,2.3,1.68
		c0.02,0.26-0.04,0.5-0.16,0.73c-0.24,0.51-0.85,0.52-1.19,0.89C63.27,52.76,62.83,52.7,62.39,52.63z"/>
	<path class="st5" d="M59.98,63.88c-0.67-0.66-1.67,0.02-2.36-0.58c0.09-0.42,0.65-0.43,0.75-0.84c0.07-0.41-0.01-0.83,0.09-1.24
		c0.05-0.11,0.13-0.21,0.23-0.28c0.08,0,0.17,0,0.25,0.01c0.08,0.08,0.14,0.17,0.2,0.26c0.07,0.26,0.08,0.52,0.02,0.78
		c0.06-0.37,0.11-0.75-0.22-1.04c0.8-0.39,1.42,0.62,2.24,0.28c0.2-0.09,0.47,0.18,0.69-0.14c0.48-0.69,0.98-0.57,1.45,0.05
		c0.17,0.23,0.41,0.31,0.68,0.34c0.07,0.07,0.1,0.15,0.08,0.22c-0.02,0.08-0.04,0.12-0.06,0.12c-0.11,0.07-0.23,0.12-0.36,0.14
		c-0.2,0.01-0.38-0.04-0.55-0.13c-0.42-0.33-0.7-0.27-0.83,0.29c-0.1,0.42-0.02,0.9-0.4,1.22c-0.24,0.1-0.32,0.62-0.73,0.28
		c-0.32-0.48,0.19-1.07-0.2-1.54c-0.9-0.35-0.77,0.25-0.7,0.77c0.05,0.25,0.06,0.49-0.02,0.73C60.15,63.71,60.07,63.8,59.98,63.88z"
		/>
	<path class="st6" d="M41.87,52.15c1.89-0.51,3.86-0.38,5.78-0.73c0.34-0.06,0.54,0.24,0.6,0.57c-1.3,0.25-2.61,0.19-3.92,0.21
		C43.5,52.31,42.68,52.41,41.87,52.15z"/>
	<path class="st7" d="M39.49,63.35c-0.73,0.54-1.17-0.77-1.88-0.29c-0.24-0.32-0.49-0.63-0.25-1.06c0.65-0.43,1.33-0.74,2.14-0.54
		c0.12,0.13,0.18,0.28,0.18,0.46c-0.05,0.38-0.06,0.76-0.04,1.15C39.62,63.18,39.57,63.27,39.49,63.35z"/>
	<path class="st8" d="M45.85,62.59c-0.43,0.45-0.82,0.99-1.58,0.76c-0.58-0.52-0.59-1.11-0.23-1.75c0.41-0.31,0.84-0.39,1.3-0.09
		c0.12,0.22,0.32,0.26,0.55,0.26C46.11,62.05,46.11,62.33,45.85,62.59z"/>
	<path class="st9" d="M63.97,61.79c0.01-0.1,0.01-0.2,0.02-0.3c0.33,0.15,0.19,0.54,0.37,0.77c0.37-0.05-0.05-1.64,0.93-0.47
		c-0.36,0.41-0.26,0.83,0,1.24c0.02,0.47-0.28,0.59-0.66,0.58c-0.85-0.02-1.7-0.06-2.55-0.09c0.1-0.5,0.6-0.44,0.91-0.63
		c0.19-0.1,0.39-0.17,0.58-0.25C63.81,62.4,63.7,62.01,63.97,61.79z"/>
	<path class="st10" d="M33.86,62.05c-0.07-0.01-0.14,0.01-0.21,0.04c-0.26,0.19-0.12,0.47-0.18,0.71c-0.09,0.36-0.27,0.54-0.62,0.24
		c-0.13-0.89-0.21-1.63,1.12-1.69c1.41-0.07,1.71,0.55,1.52,1.74c-0.14,0.14-0.3,0.18-0.49,0.11c-0.32-0.19-0.3-0.64-0.63-0.81
		C34.21,62.26,34.1,62.06,33.86,62.05z"/>
	<path class="st11" d="M35.22,51.9c1.39-0.04,2.54-0.75,3.73-1.34c0.32-0.19,0.55-0.18,0.55,0.28c-0.5,0.35-0.99,0.7-1.49,1.05
		c-0.54,0.1-1.07,0.2-1.61,0.3c-0.35,0.16-0.72,0.11-1.08,0.08C35.16,52.17,35.13,52.05,35.22,51.9z"/>
	<path class="st12" d="M55.74,57.25c0.47-0.29,0.87-0.36,1.21,0.21c0.28,0.46,0.3,0.97,0.02,1.36c-0.33,0.47-0.83,0.36-1.27,0.04
		c-0.08-0.09-0.12-0.19-0.13-0.31c0.04-0.33,0.06-0.67,0.02-1C55.61,57.42,55.65,57.33,55.74,57.25z"/>
	<path class="st13" d="M43.98,61.74c0.1,0.54,0.19,1.08,0.29,1.61c-0.97,0.2-1.94,0.6-2.9-0.04c0.27-0.37-0.2-0.58-0.19-0.9
		c-0.01-0.19,0.04-0.36,0.18-0.49c0.19-0.08,0.36-0.07,0.52,0.08c0.03,0.25,0.1,0.47,0.35,0.59c0.29,0.19,0.6,0.45,0.79-0.1
		c0.12-0.33,0.28-0.62,0.62-0.77C43.76,61.66,43.87,61.66,43.98,61.74z"/>
	<path class="st14" d="M50.66,59.06c-0.29,0.02-0.56-0.03-0.78-0.25c-0.38-0.44-0.37-0.89-0.02-1.34c0.28-0.41,0.69-0.3,1.08-0.25
		C51.83,58.05,51.81,58.16,50.66,59.06z"/>
	<path class="st15" d="M63.27,63.08c-0.31,0.38-0.85,0.15-1.19,0.44c-0.07-0.06-0.14-0.12-0.22-0.18c0.02-0.48-0.02-0.98,0.08-1.45
		c0.07-0.31,0.07-0.79,0.48-0.88c0.54-0.13,0.56,0.46,0.81,0.72c-0.01,0.05-0.03,0.1-0.04,0.16c-0.15,0.29-0.21,0.59-0.05,0.9
		C63.19,62.88,63.23,62.98,63.27,63.08z"/>
	<path class="st16" d="M51.22,61.77c0.41-0.48,2.47-0.86,3.09-0.51c0.51,0.29,0.6,0.85,0.59,1.37c0,0.62-0.29,0.77-0.82,0.5
		c0-0.06,0-0.11-0.01-0.17c-0.05-0.32,0.04-0.67-0.15-0.97c-0.6-0.32-1.22-0.16-1.83-0.05c-0.12,0.03-0.24,0.04-0.37,0.04
		C51.54,61.98,51.37,61.89,51.22,61.77z"/>
	<path class="st17" d="M43.73,61.74c-0.16,0.3-0.5,0.64-0.44,0.88c0.14,0.54,0.02,0.71-0.51,0.72c-0.55,0-0.68-0.28-0.56-0.75
		c0.36-0.55,0.36-1.57,1.48-1.08C43.89,61.56,43.9,61.64,43.73,61.74z"/>
	<path class="st18" d="M54.94,58.81c-0.26,0.19-0.52,0.38-0.78,0.58c-0.12-0.08-0.21-0.19-0.27-0.33c-0.05-0.13-0.08-0.27-0.1-0.42
		c-0.02-0.5-0.05-1.01,0.33-1.41c0.21-0.05,0.41-0.07,0.56-0.27c0.56-0.76,0.49-0.14,0.52,0.25c0.08,0.1,0.13,0.22,0.14,0.35
		C55.29,58,55.29,58.46,54.94,58.81z"/>
	<path class="st19" d="M64.53,57.02c0.17-0.13,0.43-0.41,0.55-0.21c0.39,0.63,0.42,1.42,0,1.96c-0.4,0.52-1.03,0.39-1.44-0.2
		c0.03-0.05,0.06-0.1,0.09-0.14c0.08-0.07,0.17-0.14,0.27-0.19c0.26-0.12,0.42-0.3,0.42-0.6C64.43,57.43,64.44,57.22,64.53,57.02z"
		/>
	<path class="st20" d="M55.99,62.26c0.03-0.13,0.03-0.27,0.1-0.37c0.26-0.37,0.24-1.09,0.82-1.03c0.5,0.06,0.35,0.69,0.46,1.09
		c0.03,0.12,0.15,0.21,0.23,0.31c0.03,0.27-0.07,0.41-0.36,0.33c-0.13-0.01-0.27-0.02-0.4-0.02C56.48,62.69,56.07,62.92,55.99,62.26
		z"/>
	<path class="st21" d="M51.98,61.73c0.8-0.38,1.59-0.38,2.38,0.03c-0.08,0.14-0.14,0.31-0.29,0.4c-0.15,0.07-0.31,0.11-0.47,0.13
		c-0.15,0.02-0.31,0.04-0.46,0.08c-0.26,0.06-0.4,0.29-0.64,0.39c-0.08,0.1-0.16,0.19-0.24,0.29
		C51.36,62.78,51.74,62.24,51.98,61.73z"/>
	<path class="st22" d="M41.87,52.15c0.82,0.02,1.63,0.04,2.45,0.05c-2.02,0.27-4.05,0.45-6.06-0.04
		C39.47,52.16,40.67,52.16,41.87,52.15z"/>
	<path class="st23" d="M30.93,60.98c0.44,0.27,0.25,0.71,0.29,1.09c0.05,0.56,0.33,0.68,0.81,0.48c0.22,0.12,0.26,0.33,0.28,0.55
		c-0.72,0.81-1.2,0.5-1.59-0.32C31,62.2,30.66,61.56,30.93,60.98z"/>
	<path class="st24" d="M37.04,62.88c-0.36,0.07-0.69,0.83-1.08-0.06c-0.44-0.98,0.36-0.9,0.83-1.14
		C37.07,62.04,37.46,62.38,37.04,62.88z"/>
	<path class="st25" d="M60.81,57.51c0.22-0.53,0.69-0.19,1.04-0.3c0.18,0.18,0.35,0.36,0.32,0.65c0.04,0.59-0.08,1.05-0.82,0.99
		c-0.05-0.03-0.09-0.06-0.14-0.1C60.95,58.38,61.16,57.86,60.81,57.51z"/>
	<path class="st26" d="M62.17,57.86c-0.24-0.15-0.33-0.38-0.32-0.65c0.49-0.1,0.99-0.27,1.37,0.24c0.35,0.46,0.27,0.92-0.03,1.36
		c-0.44,0.06-0.5-0.25-0.52-0.57C62.65,57.93,62.53,57.74,62.17,57.86z"/>
	<path class="st27" d="M57.24,62.6c0.12-0.11,0.24-0.22,0.36-0.33c0.56,0.28,0.52-0.1,0.55-0.47c0.03-0.36-0.18-0.91,0.53-0.86
		c-0.02,0.1-0.04,0.2-0.05,0.3c-0.16,0.52-0.17,1.04,0.01,1.55c-0.2,0.45-0.74,0.22-1.02,0.51C57.49,63.07,57.36,62.83,57.24,62.6z"
		/>
	<path class="st28" d="M45.85,62.59c0.01-0.27,0.03-0.55,0.04-0.82c0.36-0.45,0.84-0.33,1.31-0.28c0.1,0.08,0.13,0.18,0.1,0.31
		c-0.07,0.17-0.18,0.31-0.3,0.44c-0.29,0.21-0.36,0.61-0.66,0.8C45.58,63.54,46.01,62.74,45.85,62.59z"/>
	<path class="st29" d="M49.34,61.75c0.18-0.74,0.32-0.74,1.33-0.01c-0.23,0.18-0.28,0.49-0.47,0.7c-0.19,0.22-0.39,0.43-0.6,0.63
		l-0.13,0.01l-0.13,0C48.99,62.63,49.02,62.19,49.34,61.75z"/>
	<path class="st30" d="M61.27,61.75c0.27,0.65,0.33,1.28-0.14,1.87c-0.04,0.07-0.09,0.14-0.14,0.21c-0.25,0.07-0.34-0.1-0.43-0.28
		c-0.13-0.44-0.24-0.89-0.2-1.35C60.54,61.8,60.75,61.47,61.27,61.75z"/>
	<path class="st31" d="M63.96,47.55c0.36-0.58,0.72-1.16,1.08-1.74c0.23,0.11,0.15,0.36,0.25,0.53
		C65.07,46.99,65.05,47.86,63.96,47.55z"/>
	<path class="st32" d="M65.32,42.05c-0.82-0.4-0.34-1.06-0.3-1.61c0.04-0.64-0.04-1.31,0.23-1.93c0.07,0.04,0.11,0.1,0.1,0.18
		c0.17,0.88,0.16,1.77,0,2.65C65.34,41.58,65.33,41.82,65.32,42.05z"/>
	<path class="st33" d="M39.51,61.98c0-0.18,0-0.35-0.01-0.53c0.41,0.08,0.52-0.36,0.81-0.49c0.45,0.58,0.37,1.21,0.21,1.86
		c-0.06,0.14-0.16,0.24-0.29,0.31c-0.25,0.07-0.49,0.14-0.74,0.21c0-0.09,0-0.18,0-0.26C39.62,62.72,39.65,62.35,39.51,61.98z"/>
	<path class="st34" d="M67.41,42.54c0.29-0.7,0.53-1.45,1.47-1.53C68.67,41.79,68.26,42.37,67.41,42.54z"/>
	<path class="st35" d="M49.8,52.4c0.77-0.39,1.44-0.99,2.36-1.04C51.71,52.5,50.73,52.39,49.8,52.4z"/>
	<path class="st36" d="M50.66,59.06c0.43-0.56,1.03-1.1,0.28-1.84c0.28,0.02,0.56,0.03,0.84,0.05c0.28,0.28,0.23,0.63,0.21,0.97
		c-0.04,0.2-0.11,0.39-0.23,0.56C51.38,58.89,51.02,58.97,50.66,59.06z"/>
	<path class="st7" d="M45.65,56.72c0.65-0.45,1.28-0.69,1.78,0.19c-0.34,0.34-0.79,0.47-1.23,0.64
		C45.5,57.61,45.94,56.93,45.65,56.72z"/>
	<path class="st37" d="M35.22,52.15c0.39,0.01,0.78,0.02,1.17,0.03c-1.29,0.43-2.58,0.46-3.87,0
		C33.42,51.92,34.32,51.97,35.22,52.15z"/>
	<path class="st38" d="M54.64,45.82c-0.01-1.14,0.1-2.27,0.49-3.35c0,0,0.07,0.04,0.07,0.04l-0.01,0.08
		c0.27,0.77,0.2,1.51-0.24,2.21c0.08,0.23,0.17,0.45,0.25,0.68C55.06,45.66,54.97,45.93,54.64,45.82z"/>
	<path class="st39" d="M45.65,56.72c0.63-0.1,0.09,0.67,0.54,0.71c0.04,0.05,0.08,0.1,0.12,0.15c0.09,0.18,0.12,0.36,0.12,0.56
		c0,0.2-0.05,0.39-0.14,0.56c-0.19,0.19-0.38,0.38-0.64,0.08C45.65,58.09,45.65,57.4,45.65,56.72z"/>
	<path class="st40" d="M47.72,61.46c0.11-0.06,0.21-0.13,0.32-0.19c0.15,0.17,0.19,0.44,0.47,0.47c0,0.53,0.01,1.05,0.01,1.58
		C47.59,62.98,47.36,62.35,47.72,61.46z"/>
	<path class="st41" d="M48.57,57.79c-0.02,0.33-0.03,0.67-0.05,1c-1.12,0.09-1.22-0.07-0.82-1.32c0.11-0.07,0.22-0.14,0.33-0.2
		C48.2,57.46,48.5,57.5,48.57,57.79z"/>
	<path class="st42" d="M52.27,57.19c0.53,0.32,1.07-0.2,1.6,0.04c0.07,0.06,0.1,0.12,0.09,0.19c-0.01,0.07-0.02,0.11-0.03,0.11
		c-0.13,0.19-0.31,0.32-0.47,0.48c-0.21,0.16-0.34,0.49-0.7,0.3c-0.21-0.16-0.16-0.55-0.51-0.59
		C52.12,57.53,52.11,57.36,52.27,57.19z"/>
	<path class="st43" d="M46.34,63.04c0.06-0.44-0.05-0.98,0.62-1.06c0.61,0.17,0.29,0.78,0.53,1.12c-0.02,0.34-0.2,0.51-0.42,0.18
		C46.85,62.95,46.62,62.97,46.34,63.04z"/>
	<path class="st44" d="M47.71,57.47c0.18,0.5-0.35,1.43,0.82,1.32c-0.27,0.46-0.71,0.26-1.09,0.26c-0.15-0.16-0.33-0.31-0.4-0.53
		c-0.08-0.22-0.1-0.45-0.06-0.68c0.03-0.11,0.08-0.22,0.15-0.31c0.05-0.02,0.11-0.05,0.16-0.07C47.42,57.46,47.56,57.46,47.71,57.47
		z"/>
	<path class="st45" d="M47.72,61.46c0.19,0.65,0.01,1.46,0.8,1.85c-0.67,0.54-0.66-0.32-1-0.48c-0.3-0.3-0.22-0.72-0.36-1.07
		c0.01-0.09,0.02-0.18,0.03-0.28C47.37,61.48,47.54,61.47,47.72,61.46z"/>
	<path class="st25" d="M61.35,58.85c-0.46,0.32-0.91,0.45-1.36-0.02c-0.18-0.35-0.16-0.58,0.32-0.55c0.14-0.01,0.29-0.01,0.43-0.02
		c0.28,0.03,0.38,0.26,0.5,0.47C61.28,58.76,61.32,58.81,61.35,58.85z"/>
	<path class="st46" d="M47.22,58.54c0.2,0.12,0.23,0.3,0.22,0.51c-0.6-0.04-1.26,0.34-1.78-0.27c0.21,0.01,0.4-0.04,0.51-0.24
		C46.52,58.25,46.87,58.27,47.22,58.54z"/>
	<path class="st47" d="M40.54,60.95c0.18,0.09,0.36,0.17,0.54,0.26c0.16,0.16,0.19,0.35,0.16,0.56c-0.26,0.4-0.02,0.95-0.42,1.31
		c-0.17,0.25-0.37,0.31-0.59,0.06c0.03-0.04,0.06-0.08,0.09-0.12C40.6,62.35,40.23,61.62,40.54,60.95z"/>
	<path class="st48" d="M69.06,40.76c-0.05-0.79,0.66-1.05,1.07-1.51C70.2,40.05,69.79,40.51,69.06,40.76z"/>
	<path class="st49" d="M37.04,62.88c-0.08-0.4-0.17-0.8-0.25-1.19c0.39-0.27,0.4,0.18,0.57,0.31c0.1,0.35,0.35,0.66,0.25,1.06
		C37.37,63.14,37.15,63.21,37.04,62.88z"/>
	<path class="st50" d="M35.22,52.15c-0.9,0.01-1.8,0.02-2.7,0.03c-0.09-0.01-0.18-0.03-0.28-0.04c0.96-0.5,1.99-0.12,2.98-0.23
		C35.22,51.99,35.22,52.07,35.22,52.15z"/>
	<path class="st51" d="M57.52,50.82c0.12-0.45,0.24-0.89,0.36-1.34C58.57,50.13,58.47,50.51,57.52,50.82z"/>
	<path class="st44" d="M34.99,63.05c0.17,0.01,0.33,0.02,0.5,0.03c-0.72,0.63-1.37,0.5-1.57-0.31c0.22-0.11,0.44-0.05,0.65,0.01
		C34.73,62.84,34.85,62.96,34.99,63.05z"/>
	<path class="st26" d="M49.32,58.78c-0.77-0.02-0.44-0.62-0.52-1c-0.1-0.13-0.09-0.25,0.05-0.36c0.17-0.06,0.36-0.22,0.5,0.05
		C49.65,57.92,49.69,58.35,49.32,58.78z"/>
	<path class="st52" d="M53.57,51.93c0.71-0.01,1.41-0.02,2.12-0.03c0.12,0.75-0.63,0.16-0.77,0.51
		C54.39,52.48,53.92,52.35,53.57,51.93z"/>
	<path class="st53" d="M50.69,62.5c0.15,0.01,0.3,0.02,0.45,0.03c0.05,0.02,0.1,0.04,0.15,0.06c0.17,0.14,0.35,0.26,0.5,0.42
		c0.05,0.11,0.04,0.21-0.06,0.28c-0.47,0.03-1.03,0.7-1.37-0.19C50.36,62.86,50.44,62.63,50.69,62.5z"/>
	<path class="st54" d="M49.34,61.75c0,0.44,0,0.88,0,1.32C48.66,62.66,48.66,62.34,49.34,61.75z"/>
	<path class="st55" d="M65.35,41.35c0-0.88,0-1.77,0-2.65C65.88,39.58,65.57,40.47,65.35,41.35z"/>
	<path class="st15" d="M41.09,61.74c0-0.18,0-0.35,0-0.53c0.96-0.44,0.71,0.34,0.79,0.79c-0.18,0.01-0.35,0.01-0.53,0.02
		C41.2,61.98,41.11,61.89,41.09,61.74z"/>
	<path class="st56" d="M54.95,44.8c0.08-0.74,0.16-1.47,0.24-2.21C55.54,43.37,55.76,44.14,54.95,44.8z"/>
	<path class="st57" d="M52.5,62.76c-0.01-0.4,0.01-0.77,0.56-0.75c0.28,0.24,0.45,0.55,0.58,0.89c0.01,0.06,0.02,0.12,0.02,0.18
		C53.09,63.65,52.9,62.82,52.5,62.76z"/>
	<path class="st58" d="M49.32,58.78c0.01-0.43,0.02-0.87,0.03-1.3c0.17,0,0.34,0,0.51-0.01c0.01,0.45,0.01,0.89,0.02,1.34
		C49.69,58.8,49.5,58.79,49.32,58.78z"/>
	<path class="st59" d="M54.92,52.41c0.26-0.17,0.52-0.34,0.77-0.51c0.18-0.09,0.36-0.17,0.54-0.26c0.22-0.01,0.4,0.05,0.51,0.25
		C56.26,52.53,55.59,52.49,54.92,52.41z"/>
	<path class="st60" d="M50.69,62.5c-0.03,0.25-0.1,0.48-0.34,0.62c-0.07-0.02-0.14-0.04-0.21-0.05c-0.22-0.23-0.24-0.48-0.06-0.74
		c0.05-0.34,0.19-0.59,0.58-0.59C50.68,62,50.69,62.25,50.69,62.5z"/>
	<path class="st61" d="M55.99,62.26c0.2,0.33,0.55,0.25,0.85,0.31c-0.33,0.22-0.51,0.86-0.99,0.58
		C55.53,62.97,55.71,62.53,55.99,62.26z"/>
	<path class="st62" d="M54.14,48.2c0.08-0.75,0.16-1.5,0.54-2.18c0.27-0.05,0.34,0.08,0.31,0.32c-0.25,0.39-0.06,0.9-0.37,1.27
		c-0.07,0.18-0.15,0.36-0.22,0.54C54.33,48.28,54.25,48.3,54.14,48.2z"/>
	<path class="st63" d="M60.31,58.27c-0.26,0.09-0.33,0.3-0.32,0.55c-0.44-0.45-0.28-0.95-0.21-1.48
		C60.51,57.44,60.19,57.96,60.31,58.27z"/>
	<path class="st64" d="M34.43,63.08c-0.17-0.1-0.34-0.2-0.51-0.3c-0.02-0.24-0.04-0.49-0.05-0.73c0.45-0.46,0.52-0.08,0.61,0.27
		C34.67,62.58,34.63,62.84,34.43,63.08z"/>
	<path class="st65" d="M63.19,58.81c0.01-0.45,0.02-0.91,0.03-1.36c0.16,0,0.31,0.01,0.47,0.01c0.38,0.34,0.33,0.71,0.09,1.1
		c-0.04,0.01-0.09,0.02-0.14,0.02C63.49,58.65,63.34,58.73,63.19,58.81z"/>
	<path class="st66" d="M63.78,58.56c-0.03-0.37-0.06-0.73-0.09-1.1c0.28-0.15,0.56-0.29,0.84-0.44c0.09,0.14,0.18,0.29,0.27,0.43
		c-0.36,0.29-0.46,0.78-0.8,1.1C63.92,58.55,63.85,58.55,63.78,58.56z"/>
	<path class="st67" d="M58.08,58.4c-0.26,0.01-0.42-0.12-0.42-0.37c0-0.21,0.19-0.28,0.36-0.28c0.21,0,0.48-0.02,0.49,0.27
		C58.53,58.28,58.3,58.35,58.08,58.4z"/>
	<path class="st17" d="M65.29,63.02c-0.59-0.41-0.99-0.83,0-1.24C65.29,62.2,65.29,62.61,65.29,63.02z"/>
	<path class="st68" d="M32.85,63.04c0.78,0.12,0.31-0.83,0.81-0.95c-0.04,0.37,0.02,0.8-0.15,1.11
		C33.26,63.66,32.93,63.7,32.85,63.04z"/>
	<path class="st69" d="M41.09,61.74c0.09,0.09,0.17,0.19,0.26,0.28c0,0.16,0,0.31,0,0.47c0.01,0.24-0.06,0.44-0.26,0.59
		c-0.09,0-0.18,0-0.26,0.01C40.87,62.62,40.66,62.12,41.09,61.74z"/>
	<path class="st70" d="M61.25,58.72c-0.27-0.04-0.41-0.23-0.5-0.47c0.02-0.25,0.05-0.5,0.07-0.75C61.4,57.75,61.3,58.25,61.25,58.72
		z"/>
	<path class="st71" d="M56.74,51.9c-0.17-0.09-0.34-0.17-0.51-0.25c0.25-0.39,0.7-0.45,1.07-0.63C57.5,51.55,56.97,51.63,56.74,51.9
		z"/>
	<path class="st72" d="M54.14,58.86c-0.01,0.07-0.01,0.15-0.01,0.22c-0.26,0.35-0.78,0.17-1.05,0.5c-0.46-0.24-0.23-0.68-0.29-1.03
		c0.37-0.16,0.73-0.1,1.08,0.05C53.98,58.68,54.07,58.76,54.14,58.86z"/>
	<path class="st10" d="M53.08,59.58c0.09-0.72,0.65-0.44,1.05-0.5c0.01,0.1,0.02,0.2,0.02,0.3C53.86,59.8,53.47,59.67,53.08,59.58z"
		/>
	<path class="st16" d="M53.58,62c0.17,0.02,0.35,0.03,0.52,0.05c0.26,0.33,0.2,0.67,0.04,1.01c0,0-0.06,0.07-0.06,0.07
		c-0.14-0.02-0.28-0.03-0.42-0.05c0,0-0.11-0.03-0.11-0.03C53.38,62.7,53.3,62.34,53.58,62z"/>
	<path class="st73" d="M46.19,57.43c0.24-0.6,0.8-0.42,1.24-0.52c-0.05,0.18-0.1,0.36-0.16,0.54c0,0-0.1,0.06-0.1,0.06
		c-0.35,0.27-0.68,0.26-1-0.06L46.19,57.43z"/>
	<path class="st74" d="M40.54,60.95c-0.08,0.69,0.26,1.42-0.22,2.07c0-0.68-0.01-1.37-0.01-2.05
		C40.38,60.92,40.46,60.91,40.54,60.95z"/>
	<path class="st65" d="M55.18,57.52c0.01-0.1,0.02-0.21,0.02-0.31c0.18,0.01,0.36,0.03,0.54,0.04c0,0.08,0,0.17-0.01,0.25
		c-0.01,0.37,0,0.73-0.02,1.1c0,0.08,0,0.17-0.01,0.25c-0.17-0.02-0.35-0.03-0.52-0.05C55,58.38,55.01,57.95,55.18,57.52z"/>
	<path class="st75" d="M63.63,52.42c0.38-0.27,0.77-0.54,1.15-0.8c0.16,0.19,0.16,0.37,0.01,0.56c-0.14,0.41-0.52,0.19-0.77,0.3
		C63.88,52.55,63.75,52.53,63.63,52.42z"/>
	<path class="st76" d="M30.93,60.98c-0.08,0.6,0.25,1.24-0.21,1.8C30.71,62.17,30.37,61.52,30.93,60.98z"/>
	<path class="st77" d="M51.73,63.31c-0.01-0.1-0.02-0.19-0.02-0.29c-0.13-0.15-0.21-0.32-0.22-0.53c-0.01-0.27,0.03-0.52,0.22-0.72
		c0.09-0.01,0.18-0.03,0.27-0.04c0.12,0.43-0.18,0.96,0.28,1.32C52.18,63.34,51.95,63.32,51.73,63.31z"/>
	<path class="st78" d="M43.73,61.74c-0.03-0.08-0.04-0.15-0.03-0.24c0.54-0.23,1.09-0.61,1.63,0c-0.48-0.09-0.94-0.04-1.36,0.23
		C43.9,61.74,43.82,61.74,43.73,61.74z"/>
	<path class="st79" d="M53.89,58.8c-0.4,0.07-0.76-0.05-1.1-0.25c-0.03-0.08-0.04-0.16-0.03-0.24c0.18-0.19,0.36-0.38,0.54-0.57
		c0.32,0.16,0.44,0.48,0.62,0.75C53.98,58.61,53.97,58.71,53.89,58.8z"/>
	<path class="st80" d="M41.09,63.07c0-0.23,0.04-0.45,0.26-0.59c0.38,0.27,0.83,0.53,0.02,0.82C41.27,63.23,41.18,63.15,41.09,63.07
		z"/>
	<path class="st74" d="M48.85,57.43c-0.02,0.12-0.03,0.24-0.05,0.36c0,0-0.12-0.02-0.12-0.02s-0.11,0.02-0.11,0.02
		c-0.31-0.04-0.56-0.14-0.53-0.53C48.32,57.24,48.67,56.92,48.85,57.43z"/>
	<path class="st81" d="M47.16,61.77c0.46,0.24,0.24,0.71,0.36,1.07c-0.02,0.09-0.04,0.17-0.04,0.26c-0.49-0.22-0.33-0.76-0.53-1.12
		C47.03,61.91,47.09,61.84,47.16,61.77z"/>
	<path class="st82" d="M63.63,52.42c0.13,0.02,0.26,0.04,0.39,0.06c0.01,0.06,0,0.11-0.03,0.17c-0.49,0.32-1.02,0.18-1.53,0.1
		c-0.05-0.03-0.07-0.07-0.07-0.12C62.77,52.36,63.21,52.41,63.63,52.42z"/>
	<path class="st83" d="M62.46,52.75c0.51-0.03,1.02-0.07,1.53-0.1C63.52,53.19,63,53.15,62.46,52.75z"/>
	<path class="st84" d="M65.62,44.72c0.09-0.43,0.33-0.73,0.75-0.88c-0.02,0.44-0.16,0.83-0.48,1.14
		C65.71,44.99,65.68,44.83,65.62,44.72z"/>
	<path class="st85" d="M54.88,46.3c-0.07-0.09-0.13-0.19-0.2-0.28c-0.04-0.06-0.05-0.13-0.03-0.2c0.19-0.11,0.37-0.23,0.56-0.34
		c0.02,0.48,0.05,0.97-0.26,1.39C54.78,46.7,54.79,46.5,54.88,46.3z"/>
	<path class="st63" d="M51.71,61.77c0,0.26,0.01,0.52,0.01,0.78c-0.15,0.15-0.29,0.13-0.43,0l-0.07-0.01c0,0-0.07,0-0.07,0
		c0.03-0.25,0.05-0.51,0.08-0.76C51.38,61.77,51.55,61.77,51.71,61.77z"/>
	<path class="st86" d="M52.27,57.19c-0.01,0.18-0.01,0.35-0.02,0.53c0,0-0.01,0.03-0.01,0.03c-0.22,0.12,0.04,0.68-0.49,0.52
		c0-0.33,0.01-0.66,0.01-1C51.94,57.24,52.1,57.21,52.27,57.19z"/>
	<path class="st87" d="M53.89,58.8c-0.02-0.09-0.04-0.19-0.06-0.28c-0.24-0.33-0.25-0.65,0-0.98c0.02-0.1,0.03-0.2,0.05-0.3
		c0.08-0.04,0.17-0.04,0.25,0c0.01,0.55,0.01,1.09,0.02,1.64C54.06,58.84,53.98,58.82,53.89,58.8z"/>
	<path class="st88" d="M32.26,62.22c-0.01-0.38-0.15-0.77,0.19-1.2c0.24,0.54,0.16,1.03,0.09,1.51
		C32.29,62.58,32.13,62.52,32.26,62.22z"/>
	<path class="st89" d="M50.09,62.33c0.02,0.25,0.04,0.49,0.06,0.74c-0.18,0-0.37,0-0.55,0C49.63,62.74,49.5,62.29,50.09,62.33z"/>
	<path class="st90" d="M64.79,52.18c0-0.19,0-0.38-0.01-0.56c0.01-0.25,0.06-0.49,0.27-0.66C65.76,51.53,65.12,51.82,64.79,52.18z"
		/>
	<path class="st91" d="M60.79,63.6c0.07,0.08,0.14,0.15,0.2,0.23c-0.31,0.52-0.67,0.16-1.01,0.05c0.01-0.09,0.02-0.18,0.02-0.27
		C60.26,63.39,60.52,63.39,60.79,63.6z"/>
	<path class="st92" d="M54.88,46.3c0.02,0.19,0.04,0.38,0.06,0.57c-0.02,0.28,0.03,0.6-0.32,0.74
		C54.68,47.17,54.53,46.69,54.88,46.3z"/>
	<path class="st91" d="M51.76,58.26c0.16-0.17,0.32-0.35,0.49-0.52c-0.08,0.39,0.08,0.9-0.5,1.05
		C51.75,58.62,51.76,58.44,51.76,58.26z"/>
	<path class="st93" d="M48.51,61.73c-0.68,0.37-0.46-0.17-0.47-0.47C48.42,61.19,48.53,61.4,48.51,61.73z"/>
	<path class="st94" d="M65.28,46.34c-0.08-0.18-0.16-0.35-0.25-0.53c0.08-0.1,0.16-0.2,0.24-0.3c0.12-0.11,0.23-0.11,0.35-0.01
		C65.51,45.78,65.4,46.06,65.28,46.34z"/>
	<path class="st95" d="M65.63,45.5c-0.12,0-0.23,0-0.35,0.01c0.11-0.26,0.22-0.52,0.34-0.78c0.09,0.09,0.18,0.17,0.27,0.26
		C65.9,45.2,65.83,45.38,65.63,45.5z"/>
	<path class="st96" d="M70.51,38.87c-0.14-0.41,0.1-0.77,0.17-1.15C71.1,38.17,71.27,38.59,70.51,38.87z"/>
	<path class="st97" d="M32.26,62.22c0.09,0.1,0.19,0.21,0.28,0.31c0.05,0.24-0.08,0.41-0.23,0.56c-0.25-0.1-0.27-0.32-0.28-0.55
		C32.11,62.44,32.18,62.33,32.26,62.22z"/>
	<path class="st98" d="M55.18,57.52c0,0.43,0.01,0.85,0.01,1.28c0,0-0.13,0.04-0.13,0.04s-0.13-0.03-0.13-0.03
		C55.01,58.38,54.74,57.88,55.18,57.52z"/>
	<path class="st99" d="M54.14,48.2c0.09-0.01,0.17-0.03,0.26-0.04c0.19,0.5,0,0.96-0.13,1.43c-0.05-0.04-0.1-0.07-0.17-0.08
		c-0.14-0.38-0.15-0.75,0.01-1.13C54.1,48.31,54.11,48.25,54.14,48.2z"/>
	<path class="st100" d="M50.55,44.44l0.1-0.02l0.02-0.1c0.54-0.56,1.17-0.65,1.87-0.36c-0.01,2.01,0.08,4.04-1.83,5.42
		c-0.6,0.43-1.17,0.57-1.8,0.13c-0.42-0.36-0.33-0.85-0.33-1.31c0.21-0.72-0.06-1.58,0.64-2.16l-0.02,0.02
		c0.34-0.21,0.36-0.6,0.54-0.9C49.97,44.88,50.21,44.6,50.55,44.44z"/>
	<path class="st101" d="M32.39,44.71c0.09-0.01,0.15-0.07,0.16-0.16c0.61-0.82,1.6-0.78,2.44-1.08c0.32-0.01,0.57,0.08,0.62,0.44
		c-0.64,1.69-2.05,2.08-3.64,2.15C31.7,45.48,31.98,45.08,32.39,44.71z"/>
	<path class="st102" d="M43.07,44.14c-0.79-0.4-1.63-0.06-2.44-0.15c-0.51-0.06-1.06,0.07-1.49-0.33c1.08-0.09,2.17-0.02,3.26-0.22
		C43.16,43.3,43.22,43.43,43.07,44.14z"/>
	<path class="st103" d="M46.34,42.22c0.71,0.99,0.36,1.79-0.46,2.5C45.63,43.81,46.31,43.07,46.34,42.22z"/>
	<path class="st104" d="M32.39,44.71c-0.14,0.45-0.28,0.9-0.42,1.35c-0.49,0.19-0.84,0.13-0.58-0.48
		C31.56,45.17,31.8,44.69,32.39,44.71z"/>
	<path class="st105" d="M36.55,46.16c-0.15,0.86-0.85,1.03-1.52,1.24c-0.21,0.1-0.42,0.12-0.61-0.04
		C35.08,46.88,35.76,46.42,36.55,46.16z"/>
	<path class="st106" d="M35.04,43.68c-0.83,0.29-1.66,0.58-2.49,0.87c-0.05-0.76,0.59-0.75,1.05-0.93
		C34.09,43.51,34.58,43.37,35.04,43.68z"/>
	<path class="st107" d="M45.37,45.57c-0.37,0.54-0.59,1.27-1.45,1.24c0.06-0.75,0.78-1.03,1.14-1.57
		C45.34,45.2,45.47,45.28,45.37,45.57z"/>
	<path class="st108" d="M35.04,43.68c-0.48-0.02-0.96-0.04-1.44-0.06c0.42-0.36,0.96-0.34,1.45-0.44c0.54-0.11,0.85,0.13,0.55,0.74
		C35.42,43.84,35.23,43.76,35.04,43.68z"/>
	<path class="st109" d="M37.89,43.64c0,0.84,0.22,1.78-0.91,2.13c0.31-0.69,0.5-1.41,0.59-2.16C37.68,43.54,37.79,43.55,37.89,43.64
		z"/>
	<path class="st110" d="M52.54,43.96c-0.62,0.12-1.25,0.24-1.87,0.36C51.14,43.47,51.76,43.36,52.54,43.96z"/>
	<path class="st111" d="M34.16,47.91c-0.54,0.7-1.84,0-2.13,1.15c-0.06-0.02-0.12-0.05-0.19-0.08c-0.7-1.14,0.31-0.96,0.87-1.13
		c0.14-0.05,0.28-0.07,0.43-0.08C33.5,47.7,33.86,47.59,34.16,47.91z"/>
	<path class="st112" d="M32.91,47.94c-0.4,0.3-1.34,0.05-1.07,1.04c-0.53-0.22-0.83-0.52-0.34-1.07
		C31.97,47.72,32.44,47.68,32.91,47.94z"/>
	<path class="st113" d="M34.16,47.91c-0.36,0.01-0.72,0.02-1.08,0.03c-0.13-0.12-0.13-0.23,0.03-0.33c0.41-0.22,0.86-0.25,1.31-0.25
		c0.2,0.01,0.41,0.03,0.61,0.04C34.87,47.8,34.34,47.55,34.16,47.91z"/>
	<path class="st114" d="M50.55,44.44c-0.07,0.35-0.19,0.67-0.56,0.81c-0.24,0.07-0.36,0.47-0.7,0.25
		C49.5,44.89,49.83,44.43,50.55,44.44z"/>
	<path class="st115" d="M39.48,50.03c0.18-0.34,0.5-0.69,0.81-0.43c0.41,0.35-0.02,0.68-0.28,0.96
		C39.8,50.42,39.62,50.25,39.48,50.03z"/>
	<path class="st116" d="M48.81,48.17c0.03,0.44,0.07,0.89,0.1,1.33c-0.66-0.39-0.72-0.94-0.45-1.59
		C48.68,47.87,48.7,48.08,48.81,48.17z"/>
	<path class="st117" d="M48.81,48.17c-0.12-0.09-0.23-0.18-0.35-0.26c0.11-0.68-0.09-1.49,0.75-1.88
		C49.08,46.74,48.95,47.46,48.81,48.17z"/>
	<path class="st118" d="M39.48,50.03c0.34,0.01,0.52,0.18,0.53,0.53c-0.17,0.09-0.34,0.19-0.52,0.28c-0.12-0.22-0.32-0.27-0.55-0.28
		C39.13,50.39,39.3,50.21,39.48,50.03z"/>
	<path class="st119" d="M43.21,47.51c0.18,0.68-0.4,0.79-0.8,1.04C42.35,47.96,42.62,47.62,43.21,47.51z"/>
	<path class="st120" d="M37.89,43.64c-0.11-0.01-0.22-0.02-0.33-0.03c-0.25-0.36-0.21-0.78-0.21-1.19
		C37.78,42.73,37.97,43.13,37.89,43.64z"/>
	<path class="st121" d="M45.37,45.57c-0.1-0.11-0.2-0.22-0.3-0.33c0.14-0.39,0.38-0.61,0.82-0.54
		C45.89,45.1,45.65,45.35,45.37,45.57z"/>
	<path class="st122" d="M33.11,47.61c-0.01,0.11-0.02,0.22-0.03,0.33c0,0-0.09,0.02-0.09,0.02s-0.09-0.02-0.09-0.02
		c-0.47-0.01-0.94-0.02-1.41-0.03C31.97,47.48,32.56,47.68,33.11,47.61z"/>
	<path class="st123" d="M42.02,48.96c-0.03,0.25-0.06,0.51-0.09,0.76c-0.27,0-0.53-0.05-0.53-0.37
		C41.39,48.92,41.73,48.96,42.02,48.96z"/>
	<path class="st124" d="M49.29,45.5c0.23-0.08,0.47-0.17,0.7-0.25c-0.15,0.38-0.34,0.72-0.8,0.81
		C49.32,45.89,49.02,45.64,49.29,45.5z"/>
	<path class="st125" d="M54.11,48.38c0,0.38,0,0.75-0.01,1.13C53.54,49.13,53.95,48.75,54.11,48.38z"/>
	<path class="st0" d="M42.36,49.47c1.5-1.61,2.95-2.84,4.16-4.33c-0.31,1.1-0.49,2.18-0.38,3.28c0.06,0.65-0.36,0.85-0.86,0.97
		C44.42,49.6,43.55,49.49,42.36,49.47z"/>
	<path class="st126" d="M61.27,61.75c-0.34,0-0.56,0.19-0.73,0.44c-0.19,0.21-0.01,0.73-0.55,0.63c-0.47-0.34-0.29-0.69,0.02-0.98
		C60.39,61.5,60.82,61.3,61.27,61.75z"/>
	<path class="st127" d="M59.98,62.82c0.18-0.21,0.37-0.42,0.55-0.63c0.23,0.44,0.28,0.92,0.25,1.41c-0.26,0-0.52,0-0.79,0.01
		C59.99,63.35,59.99,63.08,59.98,62.82z"/>
	<path class="st126" d="M58.99,61.24c-0.02-0.1-0.04-0.19-0.05-0.29c0,0,0,0,0,0c0.94,0.34,0.48,1.14,0.52,1.74
		c0.01,0.24-0.23,0.49-0.47,0.09C59.13,62.27,59.1,61.76,58.99,61.24z"/>
	<path class="st128" d="M63.67,62.82c-0.14,0.09-0.27,0.17-0.41,0.26c-0.05-0.01-0.09-0.02-0.14-0.03
		c-0.26-0.41-0.25-0.84-0.04-1.27c0.04-0.01,0.09-0.03,0.13-0.05c0.18,0.01,0.37,0.03,0.55,0.04C63.85,62.14,63.98,62.5,63.67,62.82
		z"/>
	<path class="st129" d="M63.67,62.82c0.03-0.35,0.07-0.7,0.1-1.04c0.07-0.01,0.13,0,0.2,0.01c0.04,0.34,0.14,0.69,0.09,1.02
		C64,63.21,63.81,63,63.67,62.82z"/>
	<path class="st130" d="M58.99,61.24c0.31,0.52,0.32,1.03-0.01,1.55C58.98,62.27,58.98,61.75,58.99,61.24z"/>
	<path class="st131" d="M58.64,62.79c-0.36-0.52-0.35-1.03-0.01-1.55C58.63,61.76,58.63,62.27,58.64,62.79z"/>
	<path class="st132" d="M39.51,61.98c0.94,0.38,0.16,0.74-0.01,1.1C39.33,62.71,39.11,62.34,39.51,61.98z"/>
	<path class="st133" d="M38.59,62.72c-0.08-0.16-0.17-0.27-0.16-0.35c0.02-0.1,0.13-0.19,0.21-0.28c0.07,0.09,0.2,0.18,0.2,0.26
		C38.83,62.45,38.71,62.55,38.59,62.72z"/>
	<path class="st134" d="M34.43,63.08c0.01-0.25,0.03-0.5,0.05-0.76c0.89-0.27,0.3,0.52,0.52,0.73
		C34.8,63.06,34.61,63.07,34.43,63.08z"/>
	<path class="st76" d="M55.72,58.6c-0.34-0.37-0.39-0.74,0.02-1.1C56.17,57.87,56.12,58.23,55.72,58.6z"/>
	<path class="st135" d="M63.09,61.78c0.16,0.42,0.16,0.84,0.04,1.27C62.45,62.65,62.38,62.23,63.09,61.78z"/>
	<path class="st136" d="M54.15,63.06c-0.01-0.34-0.03-0.67-0.04-1.01c0.09-0.09,0.17-0.19,0.26-0.28
		C54.48,62.23,54.7,62.71,54.15,63.06z"/>
	<path class="st36" d="M63.99,58.55c-0.06-0.6-0.07-1.17,0.8-1.1C64.79,58.01,64.79,58.57,63.99,58.55z"/>
	<path class="st137" d="M53.58,62c-0.01,0.35-0.02,0.7-0.03,1.05c-0.46-0.21-0.45-0.63-0.49-1.04C53.23,62.01,53.41,62.01,53.58,62z
		"/>
	<path class="st138" d="M47.22,58.54c-0.35,0-0.7,0-1.05,0c-0.01-0.17-0.01-0.34-0.02-0.52c0.31-0.28,0.66-0.37,1.06-0.27
		C47.21,58.02,47.21,58.28,47.22,58.54z"/>
	<path class="st139" d="M47.21,57.75c-0.35,0.09-0.71,0.18-1.06,0.27c0.01-0.19,0.02-0.38,0.03-0.57c0.33,0.02,0.66,0.04,1,0.06
		C47.2,57.59,47.21,57.67,47.21,57.75z"/>
	<path class="st140" d="M53.83,57.53c0.11,0.33,0.11,0.66,0,0.98c-0.54-0.01-0.5-0.41-0.52-0.77C53.48,57.67,53.65,57.6,53.83,57.53
		z"/>
	<path class="st141" d="M51.29,62.54c0.14,0,0.29,0,0.43,0c-0.01,0.16-0.01,0.31-0.02,0.47c-0.19-0.02-0.38-0.03-0.56-0.05
		C51.19,62.83,51.24,62.69,51.29,62.54z"/>
</g>
</svg>
