<?xml version="1.0" encoding="utf-8"?>
<!-- Generator: Adobe Illustrator 26.0.1, SVG Export Plug-In . SVG Version: 6.00 Build 0)  -->
<svg version="1.1" id="Layer_1" xmlns="http://www.w3.org/2000/svg" xmlns:xlink="http://www.w3.org/1999/xlink" x="0px" y="0px"
	 viewBox="0 0 100 100" style="enable-background:new 0 0 100 100;" xml:space="preserve">
<style type="text/css">
	.st0{fill:#DDE9F2;}
	.st1{fill:#FFFFFF;fill-opacity:0.9;}
</style>
<path class="st0" d="M50,2.99L50,2.99c25.96,0,47.01,21.05,47.01,47.01v0c0,25.96-21.05,47.01-47.01,47.01h0
	C24.04,97.01,2.99,75.96,2.99,50v0C2.99,24.04,24.04,2.99,50,2.99z"/>
<path class="st1" d="M27.79,42.46h-2.28v15.09h2.28V42.46z M43.64,47.36c-0.52-3.23-3.04-5.11-6.23-5.11c-3.9,0-6.79,2.93-6.79,7.75
	s2.87,7.75,6.79,7.75c3.32,0,5.74-2.08,6.23-5.06l-2.3-0.01c-0.39,1.93-2.01,2.99-3.92,2.99c-2.59,0-4.54-1.98-4.54-5.67
	c0-3.66,1.95-5.67,4.55-5.67c1.92,0,3.54,1.08,3.91,3.04H43.64z M59.47,50c0-4.83-2.89-7.75-6.79-7.75c-3.92,0-6.8,2.93-6.8,7.75
	c0,4.82,2.88,7.75,6.8,7.75C56.58,57.75,59.47,54.83,59.47,50z M57.21,50c0,3.68-1.95,5.67-4.54,5.67c-2.6,0-4.54-2-4.54-5.67
	s1.94-5.67,4.54-5.67C55.27,44.33,57.21,46.32,57.21,50z M74.49,42.46h-2.25v11.08h-0.14l-7.68-11.08h-2.11v15.09h2.28V46.48h0.14
	l7.67,11.07h2.09V42.46z"/>
<path class="st0" d="M50,2.99L50,2.99c25.96,0,47.01,21.05,47.01,47.01v0c0,25.96-21.05,47.01-47.01,47.01h0
	C24.04,97.01,2.99,75.96,2.99,50v0C2.99,24.04,24.04,2.99,50,2.99z"/>
<path class="st1" d="M27.79,42.46h-2.28v15.09h2.28V42.46z M43.64,47.36c-0.52-3.23-3.04-5.11-6.23-5.11c-3.9,0-6.79,2.93-6.79,7.75
	s2.87,7.75,6.79,7.75c3.32,0,5.74-2.08,6.23-5.06l-2.3-0.01c-0.39,1.93-2.01,2.99-3.92,2.99c-2.59,0-4.54-1.98-4.54-5.67
	c0-3.66,1.95-5.67,4.55-5.67c1.92,0,3.54,1.08,3.91,3.04H43.64z M59.47,50c0-4.83-2.89-7.75-6.79-7.75c-3.92,0-6.8,2.93-6.8,7.75
	c0,4.82,2.88,7.75,6.8,7.75C56.58,57.75,59.47,54.83,59.47,50z M57.21,50c0,3.68-1.95,5.67-4.54,5.67c-2.6,0-4.54-2-4.54-5.67
	s1.94-5.67,4.54-5.67C55.27,44.33,57.21,46.32,57.21,50z M74.49,42.46h-2.25v11.08h-0.14l-7.68-11.08h-2.11v15.09h2.28V46.48h0.14
	l7.67,11.07h2.09V42.46z"/>
</svg>
