<?xml version="1.0" encoding="utf-8"?>
<!-- Generator: Adobe Illustrator 26.0.1, SVG Export Plug-In . SVG Version: 6.00 Build 0)  -->
<svg version="1.1" id="Layer_1" xmlns="http://www.w3.org/2000/svg" xmlns:xlink="http://www.w3.org/1999/xlink" x="0px" y="0px"
	 viewBox="0 0 100 100" style="enable-background:new 0 0 100 100;" xml:space="preserve">
<style type="text/css">
	.st0{fill:#566876;}
</style>
<g>
	<path class="st0" d="M49.99,4.63C25.06,4.67,4.53,25.21,4.64,50.01c0.11,25.03,20.41,45.32,45.38,45.36
		c24.9,0.04,45.4-20.46,45.35-45.37C95.33,25.05,74.87,4.59,49.99,4.63z M43.13,9.22c5-2.43,5.38-2.18,5.38,3.17
		c0,3.93-0.02,7.86,0,11.78c0.01,1.02-0.04,1.72-1.39,1.77c-6.28,0.25-12.54,0.83-19.21,2.25C31.29,20.04,35.26,13.06,43.13,9.22z
		 M36,10.23c-4.14,4.27-7.91,8.88-9.73,14.54c-1.12,3.5-3.13,4.53-6.37,4.77c-2.41,0.18-4.8,0.79-7.59,1.27
		C17.71,20.68,25.54,13.95,36,10.23z M7.78,46.92c0.34-4.08,1.21-8.03,2.64-11.86c0.3-0.83,0.83-1.02,1.53-1.15
		c3.47-0.59,6.96-1.15,10.43-1.81c1.07-0.2,1.27,0.16,1.03,1.03c-1.23,4.62-1.8,9.34-2.03,14.11c-0.04,1.03-0.54,1.26-1.47,1.23
		c-1.84-0.05-3.68-0.01-5.53-0.01c-1.69,0-3.39-0.07-5.08,0.02C8.09,48.55,7.67,48.15,7.78,46.92z M10.33,64.81
		c-1.36-3.78-2.21-7.65-2.55-11.65c-0.1-1.15,0.2-1.69,1.48-1.61c1.76,0.1,3.54,0.02,5.3,0.02h3.46c3.34,0,3.38,0,3.52,3.24
		c0.17,3.93,0.79,7.79,1.79,11.57c0.36,1.39,0.07,1.77-1.38,1.48c-3.23-0.64-6.48-1.16-9.73-1.7C11.35,66,10.68,65.81,10.33,64.81z
		 M35.33,89.79c-10.03-4.03-17.78-10.61-23.02-20.58c4,0.68,7.55,1.32,11.11,1.87c0.86,0.14,1.36,0.46,1.65,1.32
		c2.03,6.06,5.32,11.38,9.78,15.98C35.21,88.76,35.67,89.12,35.33,89.79z M48.52,91.03c0.01,1.06-0.36,1.28-1.39,1.07
		c-2.53-0.53-4.84-1.52-6.94-2.98c-6-4.23-9.47-10.25-12.21-17.25c6.62,1.32,12.93,1.97,19.3,2.21c0.84,0.04,1.24,0.33,1.23,1.24
		C48.49,80.56,48.49,85.8,48.52,91.03z M48.53,69.46c0.01,1.13-0.23,1.64-1.52,1.61c-6.39-0.14-12.7-1.01-18.97-2.21
		c-0.76-0.15-1.17-0.39-1.39-1.23c-1.27-4.77-2.08-9.6-2.28-14.54c-0.05-1.23,0.33-1.59,1.54-1.56c3.54,0.06,7.08,0.02,10.62,0.02
		c3.39,0,6.78,0.05,10.15-0.02c1.36-0.04,1.88,0.28,1.86,1.76C48.45,58.68,48.48,64.08,48.53,69.46z M48.54,46.65
		c0.01,1.38-0.32,1.88-1.79,1.85c-3.46-0.11-6.92-0.04-10.38-0.04c-3.39,0-6.78-0.09-10.15,0.04c-1.58,0.05-1.92-0.49-1.85-1.96
		c0.25-4.71,1.01-9.3,2.18-13.86c0.28-1.12,0.86-1.49,1.85-1.65c6.06-1.01,12.13-1.97,18.31-2.07c1.38-0.02,1.86,0.3,1.84,1.77
		C48.45,36.04,48.47,41.35,48.54,46.65z M89.85,35.55c1.27,3.65,2,7.39,2.43,11.22c0.15,1.28-0.22,1.8-1.59,1.71
		c-1.76-0.11-3.54-0.02-5.31-0.02v-0.09c-2.07,0-4.57,0.71-6.1-0.2c-1.72-1.03-0.57-3.81-0.92-5.8c-0.53-2.94-0.83-5.93-1.64-8.82
		c-0.31-1.11-0.3-1.71,1.24-1.4c3.24,0.67,6.5,1.12,9.77,1.64C88.79,33.96,89.46,34.45,89.85,35.55z M87.73,30.79
		c-3.94-0.65-7.56-1.28-11.19-1.86c-0.87-0.14-1.32-0.58-1.6-1.39c-2.24-6.59-5.9-12.28-10.84-17.25
		C74.55,13.99,82.38,20.72,87.73,30.79z M51.53,9.36c-0.01-1.4,0.39-1.71,1.74-1.39c4.5,1.11,8.11,3.57,11.14,6.97
		c3.35,3.77,5.74,8.09,7.59,13.19c-6.53-1.31-12.69-1.96-18.9-2.18c-1.16-0.05-1.58-0.41-1.56-1.63
		C51.6,19.34,51.6,14.35,51.53,9.36z M51.53,30.49c-0.01-1.26,0.46-1.53,1.61-1.53c6.32,0.05,12.53,1.07,18.74,2.13
		c0.81,0.14,1.29,0.48,1.54,1.4c1.26,4.69,2,9.45,2.25,14.29c0.07,1.29-0.3,1.74-1.64,1.7c-3.46-0.09-6.91-0.02-10.37-0.02
		c-3.46,0-6.92-0.05-10.38,0.02c-1.21,0.01-1.77-0.22-1.75-1.63C51.61,41.4,51.6,35.94,51.53,30.49z M51.52,53.29
		c-0.02-1.52,0.55-1.79,1.88-1.75c3.45,0.07,6.91,0.02,10.37,0.02c3.46,0,6.91,0.05,10.37-0.02c1.23-0.02,1.59,0.39,1.53,1.59
		c-0.23,4.84-1,9.6-2.23,14.29c-0.26,1.02-0.8,1.36-1.71,1.52c-6.12,1.1-12.26,2.01-18.49,2.14c-1.28,0.02-1.74-0.32-1.71-1.65
		C51.6,64.04,51.62,58.66,51.52,53.29z M55.97,91.18c-4.34,1.85-4.41,1.74-4.41-2.97c0-4.15,0.01-8.3-0.01-12.45
		c0-0.91,0.01-1.65,1.26-1.69c6.37-0.18,12.68-0.91,19.25-2.18C68.62,80.24,64.48,87.56,55.97,91.18z M64.3,89.35
		c1.03-1.13,2.11-2.23,3.09-3.4c3.08-3.68,5.54-7.74,7.08-12.28c0.59-1.7,1.33-2.6,3.29-2.8c3.25-0.32,6.46-1.06,9.99-1.68
		C82.44,79.12,74.8,85.85,64.3,89.35z M89.92,64.24c-0.38,1.12-0.92,1.77-2.18,1.96c-3.26,0.47-6.52,1.02-9.76,1.66
		c-1.42,0.28-1.59-0.23-1.28-1.42c1.15-4.32,1.79-8.72,1.86-13.19c0.01-1.27,0.41-1.79,1.74-1.71c1.76,0.1,3.54,0.02,5.3,0.02
		c1.47,0,2.94,0.12,4.39-0.04c1.97-0.22,2.56,0.48,2.27,2.41C91.71,57.43,91.08,60.89,89.92,64.24z"/>
</g>
</svg>
