<?xml version="1.0" encoding="utf-8"?>
<!-- Generator: Adobe Illustrator 26.0.1, SVG Export Plug-In . SVG Version: 6.00 Build 0)  -->
<svg version="1.1" id="Layer_1" xmlns="http://www.w3.org/2000/svg" xmlns:xlink="http://www.w3.org/1999/xlink" x="0px" y="0px"
	 viewBox="0 0 100 100" style="enable-background:new 0 0 100 100;" xml:space="preserve">
<style type="text/css">
	.st0{fill:#504F4F;}
</style>
<g>
	<path class="st0" d="M91.15,19.35c0-2.51,0.14-6.07-3.36-5.79c-12.05,0.98-25.19-4.47-35.85,5.55c-1.08,1.02-2.29,3.14-3.76,1.43
		c-9.1-10.63-21.39-5.94-32.46-7.15c-6.33-0.69-8.5,1.54-8.29,7.96c0.4,13.15,0.12,26.3,0.12,39.46c0,18.45,0,18.44,18.69,18.45
		c9.55,0.02,20.36-2.35,21.83,15.25c7.62-15.39,7.64-15.39,21.39-15.39c5.13,0,10.26-0.23,15.37,0.06c4.45,0.23,6.44-1.29,6.4-5.94
		C91.09,55.28,91.18,37.33,91.15,19.35z M42.38,75.92c-7.46-1.33-15.27-1.16-22.91-0.85c-5.63,0.21-7.23-1.83-6.94-7.15
		c0.39-7.04,0.1-14.1,0.1-21.15c0-7.37-0.06-14.73,0.04-22.1c0.04-2.37-0.81-5.03,2.6-6.38c17.26-6.87,31.9,2.8,31.9,21.23
		c0,10.9-0.04,21.79,0.02,32.69C47.2,75.74,46.83,76.71,42.38,75.92z M79.4,74.87c-8.85-0.04-17.88-1.6-27.69,2.14
		c0-15.66-0.29-30.33,0.1-44.99c0.21-8.56,5.32-13.31,13.88-14.14c20.52-2.01,20.52-2.01,20.52,18.18c0,10.55-0.25,21.1,0.12,31.65
		C86.5,73.04,84.96,74.91,79.4,74.87z"/>
</g>
</svg>
