<?xml version="1.0" encoding="utf-8"?>
<!-- Generator: Adobe Illustrator 26.0.1, SVG Export Plug-In . SVG Version: 6.00 Build 0)  -->
<svg version="1.1" id="Layer_1" xmlns="http://www.w3.org/2000/svg" xmlns:xlink="http://www.w3.org/1999/xlink" x="0px" y="0px"
	 viewBox="0 0 100 100" style="enable-background:new 0 0 100 100;" xml:space="preserve">
<style type="text/css">
	.st0{fill:#6B7280;}
	.st1{fill:#FFFFFF;}
</style>
<g>
	<ellipse transform="matrix(0.2298 -0.9732 0.9732 0.2298 -10.1501 87.1748)" class="st0" cx="50" cy="50" rx="47" ry="47"/>
	<path class="st1" d="M66.98,58.47v5.13c0,0.48-0.1,0.95-0.29,1.38c-0.19,0.44-0.47,0.83-0.82,1.15c-0.35,0.32-0.77,0.57-1.22,0.72
		c-0.45,0.15-0.93,0.21-1.4,0.17c-5.26-0.57-10.31-2.37-14.75-5.25c-4.13-2.62-7.63-6.13-10.26-10.26
		c-2.89-4.46-4.68-9.54-5.25-14.82c-0.04-0.47,0.01-0.95,0.17-1.4c0.15-0.45,0.39-0.86,0.71-1.21c0.32-0.35,0.71-0.63,1.14-0.82
		c0.43-0.19,0.9-0.29,1.38-0.29h5.13c0.83-0.01,1.63,0.29,2.26,0.83c0.63,0.54,1.04,1.29,1.16,2.11c0.22,1.64,0.62,3.25,1.2,4.8
		c0.23,0.61,0.28,1.28,0.14,1.92c-0.14,0.64-0.45,1.23-0.91,1.69l-2.17,2.17c2.43,4.28,5.98,7.82,10.26,10.26l2.17-2.17
		c0.46-0.46,1.05-0.78,1.69-0.91c0.64-0.14,1.3-0.09,1.92,0.14c1.55,0.58,3.16,0.98,4.8,1.2c0.83,0.12,1.59,0.54,2.13,1.18
		C66.71,56.82,67,57.63,66.98,58.47z"/>
</g>
</svg>
