<?xml version="1.0" encoding="utf-8"?>
<!-- Generator: Adobe Illustrator 26.0.1, SVG Export Plug-In . SVG Version: 6.00 Build 0)  -->
<svg version="1.1" id="Layer_1" xmlns="http://www.w3.org/2000/svg" xmlns:xlink="http://www.w3.org/1999/xlink" x="0px" y="0px"
	 viewBox="0 0 100 100" style="enable-background:new 0 0 100 100;" xml:space="preserve">
<style type="text/css">
	.st0{fill:#6B7280;}
	.st1{fill:none;stroke:#FFFFFF;stroke-linecap:round;stroke-linejoin:round;}
</style>
<g>
	<circle class="st0" cx="50" cy="50" r="49.1"/>
	<path class="st1" d="M59,32.4H41.3c-4.9,0-8.8,3.9-8.8,8.8v17.6c0,4.9,3.9,8.8,8.8,8.8h17.6c4.9,0,8.8-3.9,8.8-8.8V41.2
		C67.8,36.3,63.8,32.4,59,32.4z"/>
	<path class="st1" d="M57.2,49c0.2,1.5,0,3-0.7,4.3c-0.7,1.3-1.8,2.4-3.1,3c-1.3,0.7-2.8,0.9-4.3,0.7c-1.5-0.2-2.8-0.9-3.9-2
		s-1.7-2.4-2-3.9c-0.2-1.5,0-3,0.7-4.3c0.7-1.3,1.7-2.4,3-3.1c1.3-0.7,2.8-0.9,4.3-0.7c1.5,0.2,2.9,0.9,3.9,2
		C56.3,46.1,57,47.5,57.2,49z"/>
	<path class="st1" d="M59.8,50L59.8,50"/>
</g>
</svg>
