<?xml version="1.0" encoding="utf-8"?>
<!-- Generator: Adobe Illustrator 26.0.1, SVG Export Plug-In . SVG Version: 6.00 Build 0)  -->
<svg version="1.1" id="Layer_1" xmlns="http://www.w3.org/2000/svg" xmlns:xlink="http://www.w3.org/1999/xlink" x="0px" y="0px"
	 viewBox="0 0 100 100" style="enable-background:new 0 0 100 100;" xml:space="preserve">
<style type="text/css">
	.st0{fill:#6B7280;}
	.st1{fill-rule:evenodd;clip-rule:evenodd;fill:#FFFFFF;}
</style>
<g>
	<circle class="st0" cx="50" cy="50" r="47.32"/>
	<path class="st1" d="M38.01,36.85c0,1.98-1.79,3.59-3.99,3.59c-2.2,0-3.99-1.61-3.99-3.59c0-1.98,1.79-3.59,3.99-3.59
		C36.22,33.26,38.01,34.86,38.01,36.85z M61.14,42c-3.87,0-7.34,1.27-9.79,4.08v-3.33h-8.01v23.99h8.01V53.77
		c0-2.74,2.79-5.42,6.29-5.42c3.5,0,4.36,2.68,4.36,5.35v13.04h7.98V53.17C69.98,43.74,65.02,42,61.14,42z M30.06,66.74h7.98V42.83
		h-7.98V66.74z"/>
</g>
</svg>
