<?xml version="1.0" encoding="utf-8"?>
<!-- Generator: Adobe Illustrator 26.0.1, SVG Export Plug-In . SVG Version: 6.00 Build 0)  -->
<svg version="1.1" id="Layer_1" xmlns="http://www.w3.org/2000/svg" xmlns:xlink="http://www.w3.org/1999/xlink" x="0px" y="0px"
	 viewBox="0 0 100 100" style="enable-background:new 0 0 100 100;" xml:space="preserve">
<style type="text/css">
	.st0{fill:#3BB67E;}
</style>
<g>
	<path class="st0" d="M85.88,34.81C82.47,16.65,77.9,12.25,59.09,10c-1.55-0.19-3.14-0.05-4.4-1.19H40.47
		c-19.85,0.77-32.21,9.5-33.2,30.23v16.27c1.86,1.89,1.28,4.4,1.52,6.6c1.45,14.29,8.75,22.8,23.8,24.21
		c1.86,0.17,3.97,0.34,5.51,1.74h11.85c3.1-2.35,6.87-1.21,10.25-1.69c14.7-2.1,23.6-9.53,25.61-24.35c0.31-2.2,0.48-4.62,2.08-6.5
		V43.68C85.83,41.05,86.44,37.76,85.88,34.81z M66.08,39.5c-7.74,7.64-15.52,15.23-23.31,22.78c-0.51,0.51-1.38,0.63-2.08,0.92
		c-2.47,0.1-15.16-12.04-14.29-14.1c1.28-3.05,3.87-7.62,7.45-3.46c7.18,8.37,10.91,2.25,15.45-2.35c3.29-3.29,6.67-6.5,10.01-9.75
		c2.03-1.98,3.99-2.01,6.05,0.05C67.17,35.44,68.28,37.32,66.08,39.5z"/>
</g>
</svg>
