<?xml version="1.0" encoding="utf-8"?>
<!-- Generator: Adobe Illustrator 26.0.1, SVG Export Plug-In . SVG Version: 6.00 Build 0)  -->
<svg version="1.1" id="Layer_1" xmlns="http://www.w3.org/2000/svg" xmlns:xlink="http://www.w3.org/1999/xlink" x="0px" y="0px"
	 viewBox="0 0 100 100" style="enable-background:new 0 0 100 100;" xml:space="preserve">
<style type="text/css">
	.st0{fill:#DC2927;}
</style>
<g>
	<path class="st0" d="M51.25,2.33C24.22,1.92,3.11,22.09,2.86,48.57C2.62,74.53,23,95.33,49.09,95.77
		c25.73,0.44,47.09-20.26,47.5-45.99C96.99,24.3,76.36,2.71,51.25,2.33z M68.32,67.4c-2.99,3.06-4.57,3.43-7.73,0.2
		c-8.93-9.14-9.26-9.15-18.24,0.07c-3.27,3.35-4.86,2.52-7.8-0.25c-3.19-3.04-3.06-4.74,0.05-7.77c9.27-9.06,9.31-9.4-0.05-18.03
		c-3.43-3.15-3-4.87,0.07-7.68c2.63-2.4,4.08-4.2,7.56-0.42c8.93,9.67,9.18,9.43,18.61,0.12c1.08-1.05,2.21-2.06,3.28-3.08
		c8.13,7.07,8.43,7.43,0.74,14.23c-5.03,4.45-6,7.77-0.08,11.82c1.25,0.86,2.07,2.35,3.33,3.21C71.69,62.31,71.41,64.26,68.32,67.4z
		"/>
</g>
</svg>
