<?xml version="1.0" encoding="utf-8"?>
<!-- Generator: Adobe Illustrator 26.0.1, SVG Export Plug-In . SVG Version: 6.00 Build 0)  -->
<svg version="1.1" id="Layer_1" xmlns="http://www.w3.org/2000/svg" xmlns:xlink="http://www.w3.org/1999/xlink" x="0px" y="0px"
	 viewBox="0 0 100 100" style="enable-background:new 0 0 100 100;" xml:space="preserve">
<style type="text/css">
	.st0{fill:#6B7280;}
	.st1{fill:#FFFFFF;}
</style>
<g>
	<circle class="st0" cx="50" cy="50" r="48.21"/>
	<path class="st1" d="M74.03,36.82c-1.54,0.69-3.18,1.15-4.9,1.38c1.76-1.08,3.11-2.77,3.74-4.82c-1.64,1-3.46,1.71-5.39,2.11
		c-1.56-1.7-3.78-2.76-6.21-2.76c-4.7,0-8.49,3.92-8.49,8.72c0,0.69,0.06,1.35,0.2,1.99c-7.06-0.35-13.31-3.83-17.51-9.12
		c-0.73,1.3-1.16,2.8-1.16,4.4c0,3.02,1.52,5.69,3.77,7.24c-1.37-0.03-2.7-0.43-3.84-1.07c0,0.03,0,0.06,0,0.1
		c0,4.23,2.95,7.75,6.81,8.56c-0.69,0.19-1.45,0.29-2.23,0.29c-0.54,0-1.09-0.03-1.61-0.15c1.1,3.45,4.22,5.99,7.94,6.07
		c-2.89,2.32-6.56,3.72-10.53,3.72c-0.7,0-1.37-0.03-2.03-0.12c3.76,2.49,8.22,3.91,13.03,3.91c15.63,0,24.18-13.28,24.18-24.8
		c0-0.39-0.01-0.76-0.03-1.13C71.46,40.12,72.88,38.58,74.03,36.82z"/>
</g>
</svg>
