<?xml version="1.0" encoding="utf-8"?>
<!-- Generator: Adobe Illustrator 26.0.1, SVG Export Plug-In . SVG Version: 6.00 Build 0)  -->
<svg version="1.1" id="Layer_1" xmlns="http://www.w3.org/2000/svg" xmlns:xlink="http://www.w3.org/1999/xlink" x="0px" y="0px"
	 viewBox="0 0 10 10" style="enable-background:new 0 0 10 10;" xml:space="preserve">
<style type="text/css">
	.st0{fill:#FFFFFF;}
</style>
<g>
	<path class="st0" d="M8.9,3.1c-1.3-1-2.6-2-3.8-3C4.9,0,4.8,0,4.7,0.2c-1.3,1-2.5,2-3.8,3C0.7,3.3,0.7,3.4,0.7,3.5c0,2,0,4.1,0,6.1
		C0.7,10,0.8,10,1,10h3.9c1.3,0,2.6,0,3.9,0c0.2,0,0.3,0,0.3-0.3c0-2.1,0-4.1,0-6.2C9.1,3.4,9,3.2,8.9,3.1z M7.9,8.6
		c0,0.2,0,0.3-0.2,0.3c-0.6,0-1.2,0-1.8,0c-0.2,0-0.2-0.1-0.2-0.3c0-0.4,0-0.9,0-1.3c0-0.2,0-0.3-0.2-0.2c-0.2,0-0.5,0-0.8,0
		c-0.2,0-0.2,0.1-0.2,0.3c0,0.4,0,0.8,0,1.3c0,0.2-0.1,0.3-0.3,0.3c-0.6,0-1.2,0-1.9,0c-0.2,0-0.3-0.1-0.3-0.3V4.1
		c0-0.2,0-0.3,0.2-0.4C3,3,3.8,2.3,4.7,1.6c0.1-0.1,0.2-0.1,0.3,0C5.9,2.3,6.8,3,7.7,3.7C7.8,3.8,7.9,3.8,7.9,4V8.6z"/>
	<path class="st0" d="M7.9,4v4.6c0,0.2,0,0.3-0.2,0.3c-0.6,0-1.2,0-1.8,0c-0.2,0-0.2-0.1-0.2-0.3c0-0.4,0-0.9,0-1.3
		c0-0.2,0-0.3-0.2-0.2c-0.2,0-0.5,0-0.8,0c-0.2,0-0.2,0.1-0.2,0.3c0,0.4,0,0.8,0,1.3c0,0.2-0.1,0.3-0.3,0.3c-0.6,0-1.2,0-1.9,0
		c-0.2,0-0.3-0.1-0.3-0.3V4.1c0-0.2,0-0.3,0.2-0.4C3,3,3.8,2.3,4.7,1.6c0.1-0.1,0.2-0.1,0.3,0C5.9,2.3,6.8,3,7.7,3.7
		C7.8,3.8,7.9,3.8,7.9,4z"/>
</g>
</svg>
