<?xml version="1.0" encoding="utf-8"?>
<!-- Generator: Adobe Illustrator 26.0.1, SVG Export Plug-In . SVG Version: 6.00 Build 0)  -->
<svg version="1.1" id="Layer_1" xmlns="http://www.w3.org/2000/svg" xmlns:xlink="http://www.w3.org/1999/xlink" x="0px" y="0px"
	 viewBox="0 0 100 100" style="enable-background:new 0 0 100 100;" xml:space="preserve">
<style type="text/css">
	.st0{fill:#EEF0F3;}
	.st1{fill:#FEFEFE;}
</style>
<g>
	<g>
		<path class="st0" d="M49.51,98.93c-15.41,0-30.82-0.07-46.23,0.07c-2.46,0.02-3.02-0.57-3.02-3.06c0.1-30.62,0.1-61.25,0-91.88
			C0.25,1.56,0.81,0.99,3.27,1c31.15,0.1,62.3,0.1,93.45,0c2.46-0.01,3.02,0.56,3.02,3.06c-0.1,30.63-0.1,61.25,0,91.88
			c0.01,2.5-0.55,3.08-3.02,3.06C80.99,98.87,65.25,98.93,49.51,98.93z"/>
		<path class="st1" d="M50.5,84.95c-10.32,0-20.64,0-30.96,0c-1.46,0-3.16,0.26-3.93-1.36c-0.74-1.55,0.83-2.32,1.58-3.33
			C21,75.09,24.77,69.9,28.65,64.79c2.75-3.62,4.49-3.56,7.33,0.03c1.94,2.45,4.03,4.79,5.73,7.4c2.39,3.65,4.58,3.1,6.89,0.09
			c4-5.22,8.03-10.42,11.9-15.74c2.26-3.1,4.16-3.26,6.47-0.07c5.61,7.73,11.34,15.36,16.99,23.05c0.87,1.18,2.07,2.44,1.39,4.01
			c-0.71,1.65-2.45,1.38-3.91,1.38C71.14,84.95,60.82,84.95,50.5,84.95z"/>
	</g>
</g>
</svg>
